<?xml version="1.0" encoding="utf-8"?>
<svg xmlns="http://www.w3.org/2000/svg" xmlns:xlink="http://www.w3.org/1999/xlink" width="600" height="400" viewBox="0 0 2400 1600">
<defs>
  <clipPath id="clip590">
    <rect x="0" y="0" width="2400" height="1600"/>
  </clipPath>
</defs>
<path clip-path="url(#clip590)" d="M0 1600 L2400 1600 L2400 0 L0 0  Z" fill="#ffffff" fill-rule="evenodd" fill-opacity="1"/>
<defs>
  <clipPath id="clip591">
    <rect x="480" y="0" width="1681" height="1600"/>
  </clipPath>
</defs>
<path clip-path="url(#clip590)" d="M203.964 1375.05 L2352.76 1375.05 L2352.76 183.952 L203.964 183.952  Z" fill="#ffffff" fill-rule="evenodd" fill-opacity="1"/>
<defs>
  <clipPath id="clip592">
    <rect x="203" y="183" width="2150" height="1192"/>
  </clipPath>
</defs>
<polyline clip-path="url(#clip592)" style="stroke:#000000; stroke-linecap:round; stroke-linejoin:round; stroke-width:2; stroke-opacity:0.1; fill:none" points="420.224,1375.05 420.224,183.952 "/>
<polyline clip-path="url(#clip592)" style="stroke:#000000; stroke-linecap:round; stroke-linejoin:round; stroke-width:2; stroke-opacity:0.1; fill:none" points="665.405,1375.05 665.405,183.952 "/>
<polyline clip-path="url(#clip592)" style="stroke:#000000; stroke-linecap:round; stroke-linejoin:round; stroke-width:2; stroke-opacity:0.1; fill:none" points="910.587,1375.05 910.587,183.952 "/>
<polyline clip-path="url(#clip592)" style="stroke:#000000; stroke-linecap:round; stroke-linejoin:round; stroke-width:2; stroke-opacity:0.1; fill:none" points="1155.77,1375.05 1155.77,183.952 "/>
<polyline clip-path="url(#clip592)" style="stroke:#000000; stroke-linecap:round; stroke-linejoin:round; stroke-width:2; stroke-opacity:0.1; fill:none" points="1400.95,1375.05 1400.95,183.952 "/>
<polyline clip-path="url(#clip592)" style="stroke:#000000; stroke-linecap:round; stroke-linejoin:round; stroke-width:2; stroke-opacity:0.1; fill:none" points="1646.13,1375.05 1646.13,183.952 "/>
<polyline clip-path="url(#clip592)" style="stroke:#000000; stroke-linecap:round; stroke-linejoin:round; stroke-width:2; stroke-opacity:0.1; fill:none" points="1891.31,1375.05 1891.31,183.952 "/>
<polyline clip-path="url(#clip592)" style="stroke:#000000; stroke-linecap:round; stroke-linejoin:round; stroke-width:2; stroke-opacity:0.1; fill:none" points="2136.5,1375.05 2136.5,183.952 "/>
<polyline clip-path="url(#clip590)" style="stroke:#000000; stroke-linecap:round; stroke-linejoin:round; stroke-width:4; stroke-opacity:1; fill:none" points="203.964,1375.05 2352.76,1375.05 "/>
<polyline clip-path="url(#clip590)" style="stroke:#000000; stroke-linecap:round; stroke-linejoin:round; stroke-width:4; stroke-opacity:1; fill:none" points="420.224,1375.05 420.224,1356.16 "/>
<polyline clip-path="url(#clip590)" style="stroke:#000000; stroke-linecap:round; stroke-linejoin:round; stroke-width:4; stroke-opacity:1; fill:none" points="665.405,1375.05 665.405,1356.16 "/>
<polyline clip-path="url(#clip590)" style="stroke:#000000; stroke-linecap:round; stroke-linejoin:round; stroke-width:4; stroke-opacity:1; fill:none" points="910.587,1375.05 910.587,1356.16 "/>
<polyline clip-path="url(#clip590)" style="stroke:#000000; stroke-linecap:round; stroke-linejoin:round; stroke-width:4; stroke-opacity:1; fill:none" points="1155.77,1375.05 1155.77,1356.16 "/>
<polyline clip-path="url(#clip590)" style="stroke:#000000; stroke-linecap:round; stroke-linejoin:round; stroke-width:4; stroke-opacity:1; fill:none" points="1400.95,1375.05 1400.95,1356.16 "/>
<polyline clip-path="url(#clip590)" style="stroke:#000000; stroke-linecap:round; stroke-linejoin:round; stroke-width:4; stroke-opacity:1; fill:none" points="1646.13,1375.05 1646.13,1356.16 "/>
<polyline clip-path="url(#clip590)" style="stroke:#000000; stroke-linecap:round; stroke-linejoin:round; stroke-width:4; stroke-opacity:1; fill:none" points="1891.31,1375.05 1891.31,1356.16 "/>
<polyline clip-path="url(#clip590)" style="stroke:#000000; stroke-linecap:round; stroke-linejoin:round; stroke-width:4; stroke-opacity:1; fill:none" points="2136.5,1375.05 2136.5,1356.16 "/>
<path clip-path="url(#clip590)" d="M372.674 1464.22 L384.398 1478.32 L390.752 1467.31 L372.674 1464.22 M367.365 1464.21 L370.016 1459.62 L406.531 1465.49 L404.101 1469.7 L394.849 1467.99 L387.06 1481.48 L393.163 1488.64 L390.698 1492.91 L367.365 1464.21 Z" fill="#000000" fill-rule="nonzero" fill-opacity="1" /><path clip-path="url(#clip590)" d="M379.125 1443.84 L390.05 1424.92 L393.458 1426.88 L384.871 1441.76 L393.731 1446.87 L401.96 1432.62 L405.368 1434.59 L397.139 1448.84 L407.984 1455.1 L416.781 1439.87 L420.189 1441.83 L409.054 1461.12 L379.125 1443.84 Z" fill="#000000" fill-rule="nonzero" fill-opacity="1" /><path clip-path="url(#clip590)" d="M399.767 1415.77 L411.013 1422.26 L413.953 1417.17 Q415.585 1414.35 415.013 1411.96 Q414.441 1409.57 411.734 1408.01 Q409.048 1406.45 406.693 1407.15 Q404.339 1407.85 402.707 1410.68 L399.767 1415.77 M394.101 1417.9 L399.379 1408.76 Q402.284 1403.73 406.051 1402.48 Q409.809 1401.2 414.2 1403.74 Q418.63 1406.29 419.402 1410.19 Q420.186 1414.06 417.281 1419.09 L414.341 1424.19 L426.369 1431.13 L424.031 1435.18 L394.101 1417.9 Z" fill="#000000" fill-rule="nonzero" fill-opacity="1" /><path clip-path="url(#clip590)" d="M617.283 1461.33 L621.553 1463.79 Q618.468 1464.74 616.183 1466.52 Q613.91 1468.28 612.405 1470.89 Q609.442 1476.02 611.016 1480.56 Q612.569 1485.1 618.503 1488.52 Q624.417 1491.94 629.138 1491.03 Q633.839 1490.11 636.802 1484.97 Q638.307 1482.37 638.696 1479.52 Q639.096 1476.65 638.372 1473.5 L642.602 1475.95 Q642.819 1478.9 642.163 1481.71 Q641.519 1484.49 639.991 1487.14 Q636.068 1493.93 629.661 1495.44 Q623.234 1496.95 616.038 1492.79 Q608.821 1488.62 606.928 1482.32 Q605.015 1476 608.939 1469.21 Q610.49 1466.52 612.577 1464.57 Q614.656 1462.59 617.283 1461.33 Z" fill="#000000" fill-rule="nonzero" fill-opacity="1" /><path clip-path="url(#clip590)" d="M618.589 1453.74 L622.073 1447.71 L646.85 1451.83 L630.915 1432.39 L634.399 1426.36 L664.329 1443.64 L662.049 1447.59 L635.767 1432.41 L651.839 1451.98 L649.49 1456.05 L624.506 1451.92 L650.787 1467.09 L648.519 1471.02 L618.589 1453.74 Z" fill="#000000" fill-rule="nonzero" fill-opacity="1" /><path clip-path="url(#clip590)" d="M650.381 1400.95 L654.33 1403.23 Q651.897 1404.89 650.175 1406.63 Q648.453 1408.36 647.354 1410.26 Q645.444 1413.57 645.685 1416.12 Q645.938 1418.64 648.304 1420.01 Q650.288 1421.15 651.994 1420.56 Q653.69 1419.94 656.233 1416.97 L658.146 1414.81 Q661.624 1410.78 665.047 1409.89 Q668.463 1408.98 672.111 1411.09 Q676.461 1413.6 677.017 1417.82 Q677.584 1422.02 674.331 1427.66 Q673.104 1429.78 671.234 1431.91 Q669.376 1434.02 666.952 1436.04 L662.783 1433.63 Q665.589 1431.96 667.657 1430 Q669.724 1428.04 671.044 1425.76 Q673.046 1422.29 672.771 1419.62 Q672.496 1416.95 669.97 1415.49 Q667.764 1414.22 665.735 1414.86 Q663.716 1415.49 661.312 1418.22 L659.408 1420.4 Q655.89 1424.41 652.796 1425.33 Q649.703 1426.24 646.275 1424.26 Q642.306 1421.97 641.629 1417.86 Q640.964 1413.74 643.8 1408.83 Q645.015 1406.72 646.657 1404.76 Q648.3 1402.79 650.381 1400.95 Z" fill="#000000" fill-rule="nonzero" fill-opacity="1" /><path clip-path="url(#clip590)" d="M838.979 1496.68 L849.905 1477.76 L853.313 1479.73 L844.725 1494.6 L853.586 1499.72 L861.815 1485.46 L865.223 1487.43 L856.994 1501.68 L867.839 1507.95 L876.635 1492.71 L880.043 1494.68 L868.909 1513.96 L838.979 1496.68 Z" fill="#000000" fill-rule="nonzero" fill-opacity="1" /><path clip-path="url(#clip590)" d="M853.122 1472.19 L855.634 1467.84 L871.054 1466.82 L864.245 1452.92 L866.757 1448.57 L875.575 1466.49 L897.057 1465.21 L894.545 1469.56 L876.954 1470.63 L884.788 1486.46 L882.265 1490.83 L872.457 1470.92 L853.122 1472.19 Z" fill="#000000" fill-rule="nonzero" fill-opacity="1" /><path clip-path="url(#clip590)" d="M875.86 1440.49 L887.106 1446.98 L890.046 1441.89 Q891.678 1439.06 891.106 1436.67 Q890.533 1434.29 887.827 1432.72 Q885.141 1431.17 882.786 1431.87 Q880.432 1432.57 878.8 1435.4 L875.86 1440.49 M870.194 1442.62 L875.472 1433.48 Q878.377 1428.44 882.144 1427.2 Q885.902 1425.92 890.292 1428.45 Q894.723 1431.01 895.495 1434.91 Q896.279 1438.78 893.374 1443.81 L890.434 1448.9 L902.462 1455.85 L900.124 1459.9 L870.194 1442.62 Z" fill="#000000" fill-rule="nonzero" fill-opacity="1" /><path clip-path="url(#clip590)" d="M884.488 1417.86 L895.414 1398.93 L898.822 1400.9 L890.234 1415.78 L899.095 1420.89 L907.324 1406.64 L910.732 1408.61 L902.503 1422.86 L913.348 1429.12 L922.144 1413.89 L925.552 1415.85 L914.418 1435.14 L884.488 1417.86 Z" fill="#000000" fill-rule="nonzero" fill-opacity="1" /><path clip-path="url(#clip590)" d="M1101.89 1465.97 L1104.23 1461.92 L1116.5 1469.01 L1124.99 1454.29 L1112.73 1447.21 L1115.06 1443.16 L1144.99 1460.44 L1142.66 1464.49 L1128.4 1456.26 L1119.91 1470.97 L1134.16 1479.2 L1131.82 1483.25 L1101.89 1465.97 Z" fill="#000000" fill-rule="nonzero" fill-opacity="1" /><path clip-path="url(#clip590)" d="M1119.72 1435.1 L1122.05 1431.05 L1151.98 1448.33 L1149.65 1452.38 L1119.72 1435.1 Z" fill="#000000" fill-rule="nonzero" fill-opacity="1" /><path clip-path="url(#clip590)" d="M1164.15 1417.4 L1156.11 1412.76 L1152.29 1419.37 L1148.96 1417.45 L1155.1 1406.83 L1167.95 1414.25 Q1168.26 1417.55 1167.49 1420.88 Q1166.7 1424.19 1164.85 1427.4 Q1160.79 1434.41 1154.41 1436.02 Q1148.02 1437.6 1140.71 1433.37 Q1133.37 1429.14 1131.56 1422.83 Q1129.74 1416.48 1133.79 1409.47 Q1135.48 1406.54 1137.72 1404.33 Q1139.97 1402.1 1142.66 1400.69 L1146.97 1403.18 Q1143.77 1404.32 1141.35 1406.29 Q1138.93 1408.26 1137.32 1411.05 Q1134.15 1416.54 1135.62 1421.08 Q1137.1 1425.6 1143.17 1429.1 Q1149.23 1432.6 1153.88 1431.62 Q1158.54 1430.63 1161.71 1425.13 Q1162.95 1422.99 1163.56 1421.1 Q1164.16 1419.19 1164.15 1417.4 Z" fill="#000000" fill-rule="nonzero" fill-opacity="1" /><path clip-path="url(#clip590)" d="M1351.31 1458.63 L1353.65 1454.58 L1383.58 1471.86 L1381.24 1475.91 L1351.31 1458.63 Z" fill="#000000" fill-rule="nonzero" fill-opacity="1" /><path clip-path="url(#clip590)" d="M1373.55 1425.44 L1377.82 1427.91 Q1374.73 1428.86 1372.45 1430.64 Q1370.17 1432.4 1368.67 1435 Q1365.71 1440.14 1367.28 1444.68 Q1368.83 1449.21 1374.77 1452.64 Q1380.68 1456.05 1385.4 1455.14 Q1390.1 1454.22 1393.07 1449.09 Q1394.57 1446.48 1394.96 1443.63 Q1395.36 1440.76 1394.63 1437.62 L1398.86 1440.06 Q1399.08 1443.02 1398.43 1445.82 Q1397.78 1448.61 1396.25 1451.25 Q1392.33 1458.05 1385.92 1459.56 Q1379.5 1461.06 1372.3 1456.91 Q1365.08 1452.74 1363.19 1446.44 Q1361.28 1440.12 1365.2 1433.32 Q1366.75 1430.64 1368.84 1428.69 Q1370.92 1426.71 1373.55 1425.44 Z" fill="#000000" fill-rule="nonzero" fill-opacity="1" /><path clip-path="url(#clip590)" d="M1374.85 1417.86 L1385.78 1398.93 L1389.19 1400.9 L1380.6 1415.78 L1389.46 1420.89 L1397.69 1406.64 L1401.1 1408.61 L1392.87 1422.86 L1403.71 1429.12 L1412.51 1413.89 L1415.92 1415.85 L1404.78 1435.14 L1374.85 1417.86 Z" fill="#000000" fill-rule="nonzero" fill-opacity="1" /><path clip-path="url(#clip590)" d="M1578.69 1489.47 L1581.03 1485.42 L1608.87 1501.49 Q1614.29 1504.62 1615.54 1508.09 Q1616.81 1511.55 1614.18 1516.1 L1613.29 1517.65 L1609.88 1515.68 L1610.61 1514.42 Q1612.16 1511.73 1611.29 1509.76 Q1610.42 1507.79 1606.54 1505.54 L1578.69 1489.47 Z" fill="#000000" fill-rule="nonzero" fill-opacity="1" /><path clip-path="url(#clip590)" d="M1585.68 1477.36 L1588.83 1471.91 L1621.53 1473.09 L1596.49 1458.63 L1598.76 1454.7 L1628.69 1471.98 L1625.54 1477.44 L1592.84 1476.25 L1617.88 1490.71 L1615.61 1494.64 L1585.68 1477.36 Z" fill="#000000" fill-rule="nonzero" fill-opacity="1" /><path clip-path="url(#clip590)" d="M1609.08 1444.52 L1620.32 1451.01 L1623.26 1445.92 Q1624.9 1443.09 1624.32 1440.7 Q1623.75 1438.32 1621.05 1436.75 Q1618.36 1435.2 1616.01 1435.9 Q1613.65 1436.6 1612.02 1439.43 L1609.08 1444.52 M1603.41 1446.65 L1608.69 1437.5 Q1611.6 1432.47 1615.36 1431.23 Q1619.12 1429.95 1623.51 1432.48 Q1627.94 1435.04 1628.71 1438.93 Q1629.5 1442.81 1626.59 1447.84 L1623.65 1452.93 L1635.68 1459.88 L1633.34 1463.93 L1603.41 1446.65 Z" fill="#000000" fill-rule="nonzero" fill-opacity="1" /><path clip-path="url(#clip590)" d="M1641.8 1416.87 Q1642.99 1415.82 1645.14 1415.44 Q1647.3 1415.03 1650.55 1415.24 L1661.1 1415.85 L1658.59 1420.2 L1648.7 1419.6 Q1644.83 1419.35 1643.04 1420.18 Q1641.26 1421 1639.87 1423.41 L1637.33 1427.82 L1649.97 1435.12 L1647.64 1439.17 L1617.71 1421.89 L1622.98 1412.75 Q1625.95 1407.61 1629.55 1406.33 Q1633.15 1405.04 1637.48 1407.54 Q1640.31 1409.17 1641.41 1411.57 Q1642.52 1413.95 1641.8 1416.87 M1623.37 1419.76 L1634 1425.89 L1636.94 1420.8 Q1638.63 1417.88 1638.14 1415.62 Q1637.65 1413.33 1635.02 1411.81 Q1632.39 1410.29 1630.2 1411.03 Q1628 1411.74 1626.31 1414.67 L1623.37 1419.76 Z" fill="#000000" fill-rule="nonzero" fill-opacity="1" /><path clip-path="url(#clip590)" d="M1839.33 1470.38 L1850.58 1476.87 L1853.52 1471.78 Q1855.15 1468.95 1854.58 1466.56 Q1854 1464.18 1851.3 1462.61 Q1848.61 1461.06 1846.26 1461.76 Q1843.9 1462.46 1842.27 1465.29 L1839.33 1470.38 M1833.66 1472.51 L1838.94 1463.37 Q1841.85 1458.33 1845.61 1457.09 Q1849.37 1455.81 1853.76 1458.34 Q1858.19 1460.9 1858.96 1464.8 Q1859.75 1468.67 1856.84 1473.7 L1853.9 1478.79 L1865.93 1485.74 L1863.59 1489.79 L1833.66 1472.51 Z" fill="#000000" fill-rule="nonzero" fill-opacity="1" /><path clip-path="url(#clip590)" d="M1853.62 1445.62 L1864.87 1452.11 L1867.81 1447.02 Q1869.44 1444.2 1868.87 1441.81 Q1868.3 1439.42 1865.59 1437.86 Q1862.9 1436.3 1860.55 1437 Q1858.2 1437.7 1856.56 1440.53 L1853.62 1445.62 M1847.96 1447.75 L1853.24 1438.61 Q1856.14 1433.58 1859.91 1432.33 Q1863.67 1431.05 1868.06 1433.59 Q1872.49 1436.14 1873.26 1440.04 Q1874.04 1443.91 1871.14 1448.94 L1868.2 1454.03 L1880.23 1460.98 L1877.89 1465.03 L1847.96 1447.75 Z" fill="#000000" fill-rule="nonzero" fill-opacity="1" /><path clip-path="url(#clip590)" d="M1899.69 1417.4 L1891.66 1412.76 L1887.84 1419.37 L1884.51 1417.45 L1890.64 1406.83 L1903.49 1414.25 Q1903.8 1417.55 1903.03 1420.88 Q1902.24 1424.19 1900.39 1427.4 Q1896.34 1434.41 1889.96 1436.02 Q1883.57 1437.6 1876.25 1433.37 Q1868.91 1429.14 1867.11 1422.83 Q1865.29 1416.48 1869.34 1409.47 Q1871.03 1406.54 1873.27 1404.33 Q1875.52 1402.1 1878.2 1400.69 L1882.51 1403.18 Q1879.31 1404.32 1876.89 1406.29 Q1874.47 1408.26 1872.86 1411.05 Q1869.69 1416.54 1871.16 1421.08 Q1872.64 1425.6 1878.72 1429.1 Q1884.77 1432.6 1889.42 1431.62 Q1894.09 1430.63 1897.26 1425.13 Q1898.5 1422.99 1899.11 1421.1 Q1899.7 1419.19 1899.69 1417.4 Z" fill="#000000" fill-rule="nonzero" fill-opacity="1" /><path clip-path="url(#clip590)" d="M2119.22 1439.29 Q2120.42 1438.24 2122.56 1437.85 Q2124.73 1437.44 2127.97 1437.65 L2138.52 1438.27 L2136.01 1442.62 L2126.12 1442.01 Q2122.26 1441.76 2120.46 1442.6 Q2118.68 1443.41 2117.3 1445.82 L2114.75 1450.23 L2127.4 1457.53 L2125.06 1461.58 L2095.13 1444.3 L2100.41 1435.16 Q2103.37 1430.03 2106.97 1428.74 Q2110.58 1427.45 2114.91 1429.95 Q2117.73 1431.58 2118.84 1433.98 Q2119.95 1436.36 2119.22 1439.29 M2100.8 1442.17 L2111.42 1448.31 L2114.36 1443.21 Q2116.05 1440.29 2115.56 1438.03 Q2115.07 1435.74 2112.44 1434.22 Q2109.82 1432.71 2107.63 1433.45 Q2105.43 1434.15 2103.74 1437.08 L2100.8 1442.17 Z" fill="#000000" fill-rule="nonzero" fill-opacity="1" /><path clip-path="url(#clip590)" d="M2111.6 1415.77 L2121.53 1398.57 L2124.94 1400.54 L2117.35 1413.69 L2126.17 1418.78 L2133.02 1406.92 L2136.43 1408.88 L2129.57 1420.75 L2143.87 1429 L2141.53 1433.05 L2111.6 1415.77 Z" fill="#000000" fill-rule="nonzero" fill-opacity="1" /><path clip-path="url(#clip590)" d="M973.124 1546.15 L973.124 1552.42 Q969.464 1550.67 966.217 1549.81 Q962.971 1548.95 959.947 1548.95 Q954.695 1548.95 951.831 1550.98 Q948.998 1553.02 948.998 1556.78 Q948.998 1559.93 950.876 1561.55 Q952.786 1563.14 958.069 1564.13 L961.952 1564.93 Q969.146 1566.29 972.551 1569.76 Q975.989 1573.2 975.989 1578.99 Q975.989 1585.9 971.342 1589.47 Q966.727 1593.03 957.783 1593.03 Q954.409 1593.03 950.59 1592.27 Q946.802 1591.5 942.728 1590.01 L942.728 1583.39 Q946.643 1585.58 950.399 1586.7 Q954.154 1587.81 957.783 1587.81 Q963.289 1587.81 966.281 1585.65 Q969.273 1583.48 969.273 1579.47 Q969.273 1575.97 967.109 1574 Q964.976 1572.02 960.074 1571.04 L956.159 1570.27 Q948.966 1568.84 945.752 1565.78 Q942.537 1562.73 942.537 1557.29 Q942.537 1550.98 946.961 1547.36 Q951.417 1543.73 959.215 1543.73 Q962.557 1543.73 966.026 1544.33 Q969.496 1544.94 973.124 1546.15 Z" fill="#000000" fill-rule="nonzero" fill-opacity="1" /><path clip-path="url(#clip590)" d="M995.468 1566.55 Q992.571 1569.13 991.203 1571.7 Q989.866 1574.25 989.866 1577.05 Q989.866 1581.7 993.24 1584.79 Q996.614 1587.87 1001.71 1587.87 Q1004.73 1587.87 1007.37 1586.89 Q1010.01 1585.87 1012.34 1583.83 L995.468 1566.55 M999.956 1562.98 L1016.12 1579.53 Q1018 1576.7 1019.05 1573.49 Q1020.1 1570.24 1020.29 1566.61 L1026.21 1566.61 Q1025.83 1570.81 1024.18 1574.92 Q1022.52 1579.03 1019.56 1583.04 L1028.44 1592.11 L1020.42 1592.11 L1015.87 1587.43 Q1012.56 1590.26 1008.93 1591.66 Q1005.3 1593.03 1001.13 1593.03 Q993.463 1593.03 988.593 1588.67 Q983.723 1584.28 983.723 1577.43 Q983.723 1573.36 985.856 1569.8 Q987.988 1566.2 992.253 1563.05 Q990.725 1561.04 989.93 1559.07 Q989.134 1557.06 989.134 1555.15 Q989.134 1550 992.667 1546.88 Q996.2 1543.73 1002.06 1543.73 Q1004.7 1543.73 1007.31 1544.3 Q1009.95 1544.87 1012.66 1546.02 L1012.66 1551.81 Q1009.89 1550.32 1007.37 1549.55 Q1004.86 1548.76 1002.69 1548.76 Q999.351 1548.76 997.25 1550.54 Q995.181 1552.29 995.181 1555.09 Q995.181 1556.71 996.104 1558.37 Q997.059 1559.99 999.956 1562.98 Z" fill="#000000" fill-rule="nonzero" fill-opacity="1" /><path clip-path="url(#clip590)" d="M1043.27 1549.87 L1043.27 1567.73 L1051.36 1567.73 Q1055.85 1567.73 1058.3 1565.4 Q1060.75 1563.08 1060.75 1558.78 Q1060.75 1554.52 1058.3 1552.19 Q1055.85 1549.87 1051.36 1549.87 L1043.27 1549.87 M1036.84 1544.59 L1051.36 1544.59 Q1059.35 1544.59 1063.42 1548.22 Q1067.53 1551.81 1067.53 1558.78 Q1067.53 1565.82 1063.42 1569.41 Q1059.35 1573.01 1051.36 1573.01 L1043.27 1573.01 L1043.27 1592.11 L1036.84 1592.11 L1036.84 1544.59 Z" fill="#000000" fill-rule="nonzero" fill-opacity="1" /><path clip-path="url(#clip590)" d="M1076.79 1544.59 L1102.03 1544.59 L1102.03 1550 L1082.68 1550 L1082.68 1561.65 Q1084.08 1561.17 1085.48 1560.95 Q1086.88 1560.69 1088.28 1560.69 Q1096.24 1560.69 1100.88 1565.05 Q1105.53 1569.41 1105.53 1576.86 Q1105.53 1584.53 1100.76 1588.8 Q1095.98 1593.03 1087.29 1593.03 Q1084.3 1593.03 1081.18 1592.52 Q1078.09 1592.01 1074.78 1590.99 L1074.78 1584.53 Q1077.65 1586.09 1080.7 1586.86 Q1083.76 1587.62 1087.17 1587.62 Q1092.67 1587.62 1095.89 1584.72 Q1099.1 1581.83 1099.1 1576.86 Q1099.1 1571.9 1095.89 1569 Q1092.67 1566.1 1087.17 1566.1 Q1084.59 1566.1 1082.01 1566.68 Q1079.46 1567.25 1076.79 1568.46 L1076.79 1544.59 Z" fill="#000000" fill-rule="nonzero" fill-opacity="1" /><path clip-path="url(#clip590)" d="M1131.95 1548.82 Q1126.98 1548.82 1124.47 1553.72 Q1121.99 1558.59 1121.99 1568.39 Q1121.99 1578.17 1124.47 1583.07 Q1126.98 1587.94 1131.95 1587.94 Q1136.95 1587.94 1139.43 1583.07 Q1141.94 1578.17 1141.94 1568.39 Q1141.94 1558.59 1139.43 1553.72 Q1136.95 1548.82 1131.95 1548.82 M1131.95 1543.73 Q1139.94 1543.73 1144.14 1550.06 Q1148.37 1556.36 1148.37 1568.39 Q1148.37 1580.39 1144.14 1586.73 Q1139.94 1593.03 1131.95 1593.03 Q1123.96 1593.03 1119.73 1586.73 Q1115.52 1580.39 1115.52 1568.39 Q1115.52 1556.36 1119.73 1550.06 Q1123.96 1543.73 1131.95 1543.73 Z" fill="#000000" fill-rule="nonzero" fill-opacity="1" /><path clip-path="url(#clip590)" d="M1173.42 1548.82 Q1168.46 1548.82 1165.94 1553.72 Q1163.46 1558.59 1163.46 1568.39 Q1163.46 1578.17 1165.94 1583.07 Q1168.46 1587.94 1173.42 1587.94 Q1178.42 1587.94 1180.9 1583.07 Q1183.42 1578.17 1183.42 1568.39 Q1183.42 1558.59 1180.9 1553.72 Q1178.42 1548.82 1173.42 1548.82 M1173.42 1543.73 Q1181.41 1543.73 1185.61 1550.06 Q1189.84 1556.36 1189.84 1568.39 Q1189.84 1580.39 1185.61 1586.73 Q1181.41 1593.03 1173.42 1593.03 Q1165.43 1593.03 1161.2 1586.73 Q1157 1580.39 1157 1568.39 Q1157 1556.36 1161.2 1550.06 Q1165.43 1543.73 1173.42 1543.73 Z" fill="#000000" fill-rule="nonzero" fill-opacity="1" /><path clip-path="url(#clip590)" d="M1246.69 1557.83 L1246.69 1563.3 Q1244.21 1561.93 1241.69 1561.26 Q1239.21 1560.56 1236.66 1560.56 Q1230.97 1560.56 1227.82 1564.19 Q1224.67 1567.79 1224.67 1574.31 Q1224.67 1580.84 1227.82 1584.47 Q1230.97 1588.06 1236.66 1588.06 Q1239.21 1588.06 1241.69 1587.4 Q1244.21 1586.7 1246.69 1585.33 L1246.69 1590.74 Q1244.24 1591.88 1241.6 1592.46 Q1238.99 1593.03 1236.03 1593.03 Q1227.98 1593.03 1223.23 1587.97 Q1218.49 1582.91 1218.49 1574.31 Q1218.49 1565.59 1223.26 1560.6 Q1228.07 1555.6 1236.41 1555.6 Q1239.12 1555.6 1241.69 1556.17 Q1244.27 1556.71 1246.69 1557.83 Z" fill="#000000" fill-rule="nonzero" fill-opacity="1" /><path clip-path="url(#clip590)" d="M1270.69 1560.56 Q1265.98 1560.56 1263.24 1564.26 Q1260.5 1567.92 1260.5 1574.31 Q1260.5 1580.71 1263.21 1584.4 Q1265.95 1588.06 1270.69 1588.06 Q1275.37 1588.06 1278.11 1584.37 Q1280.84 1580.68 1280.84 1574.31 Q1280.84 1567.98 1278.11 1564.29 Q1275.37 1560.56 1270.69 1560.56 M1270.69 1555.6 Q1278.33 1555.6 1282.69 1560.56 Q1287.05 1565.53 1287.05 1574.31 Q1287.05 1583.07 1282.69 1588.06 Q1278.33 1593.03 1270.69 1593.03 Q1263.02 1593.03 1258.66 1588.06 Q1254.33 1583.07 1254.33 1574.31 Q1254.33 1565.53 1258.66 1560.56 Q1263.02 1555.6 1270.69 1555.6 Z" fill="#000000" fill-rule="nonzero" fill-opacity="1" /><path clip-path="url(#clip590)" d="M1326.39 1570.59 L1326.39 1592.11 L1320.53 1592.11 L1320.53 1570.78 Q1320.53 1565.72 1318.56 1563.21 Q1316.59 1560.69 1312.64 1560.69 Q1307.9 1560.69 1305.16 1563.72 Q1302.42 1566.74 1302.42 1571.96 L1302.42 1592.11 L1296.53 1592.11 L1296.53 1556.46 L1302.42 1556.46 L1302.42 1562 Q1304.52 1558.78 1307.36 1557.19 Q1310.22 1555.6 1313.94 1555.6 Q1320.09 1555.6 1323.24 1559.42 Q1326.39 1563.21 1326.39 1570.59 Z" fill="#000000" fill-rule="nonzero" fill-opacity="1" /><path clip-path="url(#clip590)" d="M1360.8 1557.51 L1360.8 1563.05 Q1358.31 1561.77 1355.64 1561.14 Q1352.97 1560.5 1350.1 1560.5 Q1345.74 1560.5 1343.54 1561.84 Q1341.38 1563.17 1341.38 1565.85 Q1341.38 1567.89 1342.94 1569.06 Q1344.5 1570.21 1349.21 1571.26 L1351.22 1571.7 Q1357.45 1573.04 1360.06 1575.49 Q1362.71 1577.91 1362.71 1582.27 Q1362.71 1587.24 1358.76 1590.13 Q1354.84 1593.03 1347.97 1593.03 Q1345.1 1593.03 1341.98 1592.46 Q1338.9 1591.92 1335.46 1590.8 L1335.46 1584.75 Q1338.71 1586.44 1341.86 1587.3 Q1345.01 1588.13 1348.1 1588.13 Q1352.23 1588.13 1354.46 1586.73 Q1356.69 1585.3 1356.69 1582.72 Q1356.69 1580.33 1355.07 1579.06 Q1353.48 1577.78 1348.03 1576.61 L1346 1576.13 Q1340.55 1574.98 1338.13 1572.63 Q1335.71 1570.24 1335.71 1566.1 Q1335.71 1561.07 1339.28 1558.34 Q1342.84 1555.6 1349.4 1555.6 Q1352.65 1555.6 1355.51 1556.08 Q1358.38 1556.55 1360.8 1557.51 Z" fill="#000000" fill-rule="nonzero" fill-opacity="1" /><path clip-path="url(#clip590)" d="M1377.82 1546.34 L1377.82 1556.46 L1389.89 1556.46 L1389.89 1561.01 L1377.82 1561.01 L1377.82 1580.36 Q1377.82 1584.72 1379 1585.96 Q1380.21 1587.21 1383.87 1587.21 L1389.89 1587.21 L1389.89 1592.11 L1383.87 1592.11 Q1377.09 1592.11 1374.51 1589.59 Q1371.94 1587.05 1371.94 1580.36 L1371.94 1561.01 L1367.64 1561.01 L1367.64 1556.46 L1371.94 1556.46 L1371.94 1546.34 L1377.82 1546.34 Z" fill="#000000" fill-rule="nonzero" fill-opacity="1" /><path clip-path="url(#clip590)" d="M1397.59 1556.46 L1403.45 1556.46 L1403.45 1592.11 L1397.59 1592.11 L1397.59 1556.46 M1397.59 1542.58 L1403.45 1542.58 L1403.45 1550 L1397.59 1550 L1397.59 1542.58 Z" fill="#000000" fill-rule="nonzero" fill-opacity="1" /><path clip-path="url(#clip590)" d="M1421.49 1546.34 L1421.49 1556.46 L1433.56 1556.46 L1433.56 1561.01 L1421.49 1561.01 L1421.49 1580.36 Q1421.49 1584.72 1422.67 1585.96 Q1423.88 1587.21 1427.54 1587.21 L1433.56 1587.21 L1433.56 1592.11 L1427.54 1592.11 Q1420.76 1592.11 1418.18 1589.59 Q1415.6 1587.05 1415.6 1580.36 L1415.6 1561.01 L1411.31 1561.01 L1411.31 1556.46 L1415.6 1556.46 L1415.6 1546.34 L1421.49 1546.34 Z" fill="#000000" fill-rule="nonzero" fill-opacity="1" /><path clip-path="url(#clip590)" d="M1440.65 1578.04 L1440.65 1556.46 L1446.51 1556.46 L1446.51 1577.82 Q1446.51 1582.88 1448.48 1585.42 Q1450.46 1587.94 1454.4 1587.94 Q1459.15 1587.94 1461.88 1584.91 Q1464.65 1581.89 1464.65 1576.67 L1464.65 1556.46 L1470.51 1556.46 L1470.51 1592.11 L1464.65 1592.11 L1464.65 1586.63 Q1462.52 1589.88 1459.69 1591.47 Q1456.89 1593.03 1453.16 1593.03 Q1447.02 1593.03 1443.84 1589.21 Q1440.65 1585.39 1440.65 1578.04 M1455.39 1555.6 L1455.39 1555.6 Z" fill="#000000" fill-rule="nonzero" fill-opacity="1" /><path clip-path="url(#clip590)" d="M1513.06 1572.82 L1513.06 1575.68 L1486.14 1575.68 Q1486.52 1581.73 1489.76 1584.91 Q1493.04 1588.06 1498.87 1588.06 Q1502.24 1588.06 1505.39 1587.24 Q1508.58 1586.41 1511.69 1584.75 L1511.69 1590.29 Q1508.54 1591.63 1505.23 1592.33 Q1501.92 1593.03 1498.52 1593.03 Q1489.99 1593.03 1484.99 1588.06 Q1480.03 1583.1 1480.03 1574.63 Q1480.03 1565.88 1484.74 1560.76 Q1489.48 1555.6 1497.5 1555.6 Q1504.69 1555.6 1508.86 1560.25 Q1513.06 1564.86 1513.06 1572.82 M1507.21 1571.1 Q1507.14 1566.29 1504.5 1563.43 Q1501.89 1560.56 1497.56 1560.56 Q1492.66 1560.56 1489.7 1563.33 Q1486.77 1566.1 1486.33 1571.13 L1507.21 1571.1 Z" fill="#000000" fill-rule="nonzero" fill-opacity="1" /><path clip-path="url(#clip590)" d="M1552.31 1570.59 L1552.31 1592.11 L1546.45 1592.11 L1546.45 1570.78 Q1546.45 1565.72 1544.48 1563.21 Q1542.5 1560.69 1538.56 1560.69 Q1533.82 1560.69 1531.08 1563.72 Q1528.34 1566.74 1528.34 1571.96 L1528.34 1592.11 L1522.45 1592.11 L1522.45 1556.46 L1528.34 1556.46 L1528.34 1562 Q1530.44 1558.78 1533.27 1557.19 Q1536.14 1555.6 1539.86 1555.6 Q1546.01 1555.6 1549.16 1559.42 Q1552.31 1563.21 1552.31 1570.59 Z" fill="#000000" fill-rule="nonzero" fill-opacity="1" /><path clip-path="url(#clip590)" d="M1569.78 1546.34 L1569.78 1556.46 L1581.84 1556.46 L1581.84 1561.01 L1569.78 1561.01 L1569.78 1580.36 Q1569.78 1584.72 1570.96 1585.96 Q1572.17 1587.21 1575.83 1587.21 L1581.84 1587.21 L1581.84 1592.11 L1575.83 1592.11 Q1569.05 1592.11 1566.47 1589.59 Q1563.89 1587.05 1563.89 1580.36 L1563.89 1561.01 L1559.6 1561.01 L1559.6 1556.46 L1563.89 1556.46 L1563.89 1546.34 L1569.78 1546.34 Z" fill="#000000" fill-rule="nonzero" fill-opacity="1" /><path clip-path="url(#clip590)" d="M1612.27 1557.51 L1612.27 1563.05 Q1609.79 1561.77 1607.12 1561.14 Q1604.44 1560.5 1601.58 1560.5 Q1597.22 1560.5 1595.02 1561.84 Q1592.86 1563.17 1592.86 1565.85 Q1592.86 1567.89 1594.42 1569.06 Q1595.98 1570.21 1600.69 1571.26 L1602.69 1571.7 Q1608.93 1573.04 1611.54 1575.49 Q1614.18 1577.91 1614.18 1582.27 Q1614.18 1587.24 1610.24 1590.13 Q1606.32 1593.03 1599.45 1593.03 Q1596.58 1593.03 1593.46 1592.46 Q1590.37 1591.92 1586.94 1590.8 L1586.94 1584.75 Q1590.18 1586.44 1593.33 1587.3 Q1596.49 1588.13 1599.57 1588.13 Q1603.71 1588.13 1605.94 1586.73 Q1608.17 1585.3 1608.17 1582.72 Q1608.17 1580.33 1606.54 1579.06 Q1604.95 1577.78 1599.51 1576.61 L1597.47 1576.13 Q1592.03 1574.98 1589.61 1572.63 Q1587.19 1570.24 1587.19 1566.1 Q1587.19 1561.07 1590.76 1558.34 Q1594.32 1555.6 1600.88 1555.6 Q1604.12 1555.6 1606.99 1556.08 Q1609.85 1556.55 1612.27 1557.51 Z" fill="#000000" fill-rule="nonzero" fill-opacity="1" /><polyline clip-path="url(#clip592)" style="stroke:#000000; stroke-linecap:round; stroke-linejoin:round; stroke-width:2; stroke-opacity:0.1; fill:none" points="203.964,1375.05 2352.76,1375.05 "/>
<polyline clip-path="url(#clip592)" style="stroke:#000000; stroke-linecap:round; stroke-linejoin:round; stroke-width:2; stroke-opacity:0.1; fill:none" points="203.964,1176.66 2352.76,1176.66 "/>
<polyline clip-path="url(#clip592)" style="stroke:#000000; stroke-linecap:round; stroke-linejoin:round; stroke-width:2; stroke-opacity:0.1; fill:none" points="203.964,978.268 2352.76,978.268 "/>
<polyline clip-path="url(#clip592)" style="stroke:#000000; stroke-linecap:round; stroke-linejoin:round; stroke-width:2; stroke-opacity:0.1; fill:none" points="203.964,779.875 2352.76,779.875 "/>
<polyline clip-path="url(#clip592)" style="stroke:#000000; stroke-linecap:round; stroke-linejoin:round; stroke-width:2; stroke-opacity:0.1; fill:none" points="203.964,581.483 2352.76,581.483 "/>
<polyline clip-path="url(#clip592)" style="stroke:#000000; stroke-linecap:round; stroke-linejoin:round; stroke-width:2; stroke-opacity:0.1; fill:none" points="203.964,383.09 2352.76,383.09 "/>
<polyline clip-path="url(#clip592)" style="stroke:#000000; stroke-linecap:round; stroke-linejoin:round; stroke-width:2; stroke-opacity:0.1; fill:none" points="203.964,184.697 2352.76,184.697 "/>
<polyline clip-path="url(#clip590)" style="stroke:#000000; stroke-linecap:round; stroke-linejoin:round; stroke-width:4; stroke-opacity:1; fill:none" points="203.964,1375.05 203.964,183.952 "/>
<polyline clip-path="url(#clip590)" style="stroke:#000000; stroke-linecap:round; stroke-linejoin:round; stroke-width:4; stroke-opacity:1; fill:none" points="203.964,1375.05 222.861,1375.05 "/>
<polyline clip-path="url(#clip590)" style="stroke:#000000; stroke-linecap:round; stroke-linejoin:round; stroke-width:4; stroke-opacity:1; fill:none" points="203.964,1176.66 222.861,1176.66 "/>
<polyline clip-path="url(#clip590)" style="stroke:#000000; stroke-linecap:round; stroke-linejoin:round; stroke-width:4; stroke-opacity:1; fill:none" points="203.964,978.268 222.861,978.268 "/>
<polyline clip-path="url(#clip590)" style="stroke:#000000; stroke-linecap:round; stroke-linejoin:round; stroke-width:4; stroke-opacity:1; fill:none" points="203.964,779.875 222.861,779.875 "/>
<polyline clip-path="url(#clip590)" style="stroke:#000000; stroke-linecap:round; stroke-linejoin:round; stroke-width:4; stroke-opacity:1; fill:none" points="203.964,581.483 222.861,581.483 "/>
<polyline clip-path="url(#clip590)" style="stroke:#000000; stroke-linecap:round; stroke-linejoin:round; stroke-width:4; stroke-opacity:1; fill:none" points="203.964,383.09 222.861,383.09 "/>
<polyline clip-path="url(#clip590)" style="stroke:#000000; stroke-linecap:round; stroke-linejoin:round; stroke-width:4; stroke-opacity:1; fill:none" points="203.964,184.697 222.861,184.697 "/>
<path clip-path="url(#clip590)" d="M156.019 1360.85 Q152.408 1360.85 150.579 1364.42 Q148.774 1367.96 148.774 1375.09 Q148.774 1382.2 150.579 1385.76 Q152.408 1389.3 156.019 1389.3 Q159.653 1389.3 161.459 1385.76 Q163.288 1382.2 163.288 1375.09 Q163.288 1367.96 161.459 1364.42 Q159.653 1360.85 156.019 1360.85 M156.019 1357.15 Q161.829 1357.15 164.885 1361.76 Q167.964 1366.34 167.964 1375.09 Q167.964 1383.82 164.885 1388.42 Q161.829 1393.01 156.019 1393.01 Q150.209 1393.01 147.13 1388.42 Q144.075 1383.82 144.075 1375.09 Q144.075 1366.34 147.13 1361.76 Q150.209 1357.15 156.019 1357.15 Z" fill="#000000" fill-rule="nonzero" fill-opacity="1" /><path clip-path="url(#clip590)" d="M147.061 1159.38 L165.417 1159.38 L165.417 1163.32 L151.343 1163.32 L151.343 1171.79 Q152.362 1171.44 153.38 1171.28 Q154.399 1171.09 155.417 1171.09 Q161.204 1171.09 164.584 1174.27 Q167.964 1177.44 167.964 1182.85 Q167.964 1188.43 164.491 1191.53 Q161.019 1194.61 154.7 1194.61 Q152.524 1194.61 150.255 1194.24 Q148.01 1193.87 145.603 1193.13 L145.603 1188.43 Q147.686 1189.57 149.908 1190.12 Q152.13 1190.68 154.607 1190.68 Q158.612 1190.68 160.95 1188.57 Q163.288 1186.46 163.288 1182.85 Q163.288 1179.24 160.95 1177.14 Q158.612 1175.03 154.607 1175.03 Q152.732 1175.03 150.857 1175.45 Q149.005 1175.86 147.061 1176.74 L147.061 1159.38 Z" fill="#000000" fill-rule="nonzero" fill-opacity="1" /><path clip-path="url(#clip590)" d="M116.668 991.613 L124.306 991.613 L124.306 965.247 L115.996 966.914 L115.996 962.655 L124.26 960.988 L128.936 960.988 L128.936 991.613 L136.575 991.613 L136.575 995.548 L116.668 995.548 L116.668 991.613 Z" fill="#000000" fill-rule="nonzero" fill-opacity="1" /><path clip-path="url(#clip590)" d="M156.019 964.067 Q152.408 964.067 150.579 967.632 Q148.774 971.173 148.774 978.303 Q148.774 985.409 150.579 988.974 Q152.408 992.516 156.019 992.516 Q159.653 992.516 161.459 988.974 Q163.288 985.409 163.288 978.303 Q163.288 971.173 161.459 967.632 Q159.653 964.067 156.019 964.067 M156.019 960.363 Q161.829 960.363 164.885 964.97 Q167.964 969.553 167.964 978.303 Q167.964 987.03 164.885 991.636 Q161.829 996.22 156.019 996.22 Q150.209 996.22 147.13 991.636 Q144.075 987.03 144.075 978.303 Q144.075 969.553 147.13 964.97 Q150.209 960.363 156.019 960.363 Z" fill="#000000" fill-rule="nonzero" fill-opacity="1" /><path clip-path="url(#clip590)" d="M117.663 793.22 L125.302 793.22 L125.302 766.855 L116.992 768.521 L116.992 764.262 L125.255 762.595 L129.931 762.595 L129.931 793.22 L137.57 793.22 L137.57 797.155 L117.663 797.155 L117.663 793.22 Z" fill="#000000" fill-rule="nonzero" fill-opacity="1" /><path clip-path="url(#clip590)" d="M147.061 762.595 L165.417 762.595 L165.417 766.531 L151.343 766.531 L151.343 775.003 Q152.362 774.655 153.38 774.493 Q154.399 774.308 155.417 774.308 Q161.204 774.308 164.584 777.48 Q167.964 780.651 167.964 786.067 Q167.964 791.646 164.491 794.748 Q161.019 797.827 154.7 797.827 Q152.524 797.827 150.255 797.456 Q148.01 797.086 145.603 796.345 L145.603 791.646 Q147.686 792.78 149.908 793.336 Q152.13 793.892 154.607 793.892 Q158.612 793.892 160.95 791.785 Q163.288 789.679 163.288 786.067 Q163.288 782.456 160.95 780.35 Q158.612 778.243 154.607 778.243 Q152.732 778.243 150.857 778.66 Q149.005 779.077 147.061 779.956 L147.061 762.595 Z" fill="#000000" fill-rule="nonzero" fill-opacity="1" /><path clip-path="url(#clip590)" d="M119.885 594.827 L136.204 594.827 L136.204 598.763 L114.26 598.763 L114.26 594.827 Q116.922 592.073 121.505 587.443 Q126.112 582.79 127.292 581.448 Q129.538 578.925 130.417 577.189 Q131.32 575.429 131.32 573.74 Q131.32 570.985 129.376 569.249 Q127.455 567.513 124.353 567.513 Q122.154 567.513 119.7 568.277 Q117.269 569.04 114.492 570.591 L114.492 565.869 Q117.316 564.735 119.769 564.156 Q122.223 563.578 124.26 563.578 Q129.63 563.578 132.825 566.263 Q136.019 568.948 136.019 573.439 Q136.019 575.568 135.209 577.49 Q134.422 579.388 132.316 581.98 Q131.737 582.652 128.635 585.869 Q125.533 589.064 119.885 594.827 Z" fill="#000000" fill-rule="nonzero" fill-opacity="1" /><path clip-path="url(#clip590)" d="M156.019 567.281 Q152.408 567.281 150.579 570.846 Q148.774 574.388 148.774 581.517 Q148.774 588.624 150.579 592.188 Q152.408 595.73 156.019 595.73 Q159.653 595.73 161.459 592.188 Q163.288 588.624 163.288 581.517 Q163.288 574.388 161.459 570.846 Q159.653 567.281 156.019 567.281 M156.019 563.578 Q161.829 563.578 164.885 568.184 Q167.964 572.767 167.964 581.517 Q167.964 590.244 164.885 594.851 Q161.829 599.434 156.019 599.434 Q150.209 599.434 147.13 594.851 Q144.075 590.244 144.075 581.517 Q144.075 572.767 147.13 568.184 Q150.209 563.578 156.019 563.578 Z" fill="#000000" fill-rule="nonzero" fill-opacity="1" /><path clip-path="url(#clip590)" d="M120.88 396.435 L137.2 396.435 L137.2 400.37 L115.256 400.37 L115.256 396.435 Q117.918 393.68 122.501 389.05 Q127.107 384.398 128.288 383.055 Q130.533 380.532 131.413 378.796 Q132.316 377.036 132.316 375.347 Q132.316 372.592 130.371 370.856 Q128.45 369.12 125.348 369.12 Q123.149 369.12 120.695 369.884 Q118.265 370.648 115.487 372.199 L115.487 367.476 Q118.311 366.342 120.765 365.763 Q123.218 365.185 125.255 365.185 Q130.626 365.185 133.82 367.87 Q137.015 370.555 137.015 375.046 Q137.015 377.175 136.204 379.097 Q135.417 380.995 133.311 383.587 Q132.732 384.259 129.63 387.476 Q126.529 390.671 120.88 396.435 Z" fill="#000000" fill-rule="nonzero" fill-opacity="1" /><path clip-path="url(#clip590)" d="M147.061 365.81 L165.417 365.81 L165.417 369.745 L151.343 369.745 L151.343 378.217 Q152.362 377.87 153.38 377.708 Q154.399 377.523 155.417 377.523 Q161.204 377.523 164.584 380.694 Q167.964 383.865 167.964 389.282 Q167.964 394.86 164.491 397.962 Q161.019 401.041 154.7 401.041 Q152.524 401.041 150.255 400.671 Q148.01 400.3 145.603 399.56 L145.603 394.86 Q147.686 395.995 149.908 396.55 Q152.13 397.106 154.607 397.106 Q158.612 397.106 160.95 394.999 Q163.288 392.893 163.288 389.282 Q163.288 385.671 160.95 383.564 Q158.612 381.458 154.607 381.458 Q152.732 381.458 150.857 381.874 Q149.005 382.291 147.061 383.171 L147.061 365.81 Z" fill="#000000" fill-rule="nonzero" fill-opacity="1" /><path clip-path="url(#clip590)" d="M130.024 183.343 Q133.38 184.06 135.255 186.329 Q137.154 188.597 137.154 191.931 Q137.154 197.046 133.635 199.847 Q130.117 202.648 123.635 202.648 Q121.459 202.648 119.144 202.208 Q116.853 201.792 114.399 200.935 L114.399 196.421 Q116.343 197.556 118.658 198.134 Q120.973 198.713 123.496 198.713 Q127.894 198.713 130.186 196.977 Q132.501 195.241 132.501 191.931 Q132.501 188.875 130.348 187.162 Q128.218 185.426 124.399 185.426 L120.371 185.426 L120.371 181.583 L124.584 181.583 Q128.033 181.583 129.862 180.218 Q131.691 178.829 131.691 176.236 Q131.691 173.574 129.792 172.162 Q127.917 170.727 124.399 170.727 Q122.478 170.727 120.279 171.144 Q118.08 171.56 115.441 172.44 L115.441 168.273 Q118.103 167.533 120.418 167.162 Q122.755 166.792 124.816 166.792 Q130.14 166.792 133.242 169.222 Q136.343 171.63 136.343 175.75 Q136.343 178.621 134.7 180.611 Q133.056 182.579 130.024 183.343 Z" fill="#000000" fill-rule="nonzero" fill-opacity="1" /><path clip-path="url(#clip590)" d="M156.019 170.496 Q152.408 170.496 150.579 174.06 Q148.774 177.602 148.774 184.732 Q148.774 191.838 150.579 195.403 Q152.408 198.944 156.019 198.944 Q159.653 198.944 161.459 195.403 Q163.288 191.838 163.288 184.732 Q163.288 177.602 161.459 174.06 Q159.653 170.496 156.019 170.496 M156.019 166.792 Q161.829 166.792 164.885 171.398 Q167.964 175.982 167.964 184.732 Q167.964 193.458 164.885 198.065 Q161.829 202.648 156.019 202.648 Q150.209 202.648 147.13 198.065 Q144.075 193.458 144.075 184.732 Q144.075 175.982 147.13 171.398 Q150.209 166.792 156.019 166.792 Z" fill="#000000" fill-rule="nonzero" fill-opacity="1" /><path clip-path="url(#clip590)" d="M46.0847 1078.55 Q46.0847 1085.65 47.7079 1088.38 Q49.3312 1091.12 53.2461 1091.12 Q56.3653 1091.12 58.2114 1089.08 Q60.0256 1087.01 60.0256 1083.48 Q60.0256 1078.61 56.5881 1075.68 Q53.1188 1072.72 47.3897 1072.72 L46.0847 1072.72 L46.0847 1078.55 M43.6657 1066.87 L64.0042 1066.87 L64.0042 1072.72 L58.5933 1072.72 Q61.8398 1074.73 63.3994 1077.72 Q64.9272 1080.71 64.9272 1085.04 Q64.9272 1090.52 61.8716 1093.76 Q58.7843 1096.98 53.6281 1096.98 Q47.6125 1096.98 44.5569 1092.97 Q41.5014 1088.92 41.5014 1080.94 L41.5014 1072.72 L40.9285 1072.72 Q36.8862 1072.72 34.6901 1075.4 Q32.4621 1078.04 32.4621 1082.84 Q32.4621 1085.9 33.1941 1088.8 Q33.9262 1091.69 35.3903 1094.37 L29.9795 1094.37 Q28.7381 1091.15 28.1334 1088.13 Q27.4968 1085.1 27.4968 1082.24 Q27.4968 1074.51 31.5072 1070.69 Q35.5176 1066.87 43.6657 1066.87 Z" fill="#000000" fill-rule="nonzero" fill-opacity="1" /><path clip-path="url(#clip590)" d="M29.4065 1032.08 L34.9447 1032.08 Q33.6716 1034.56 33.035 1037.23 Q32.3984 1039.91 32.3984 1042.77 Q32.3984 1047.13 33.7352 1049.33 Q35.072 1051.49 37.7456 1051.49 Q39.7826 1051.49 40.9603 1049.93 Q42.1061 1048.37 43.1565 1043.66 L43.6021 1041.66 Q44.9389 1035.42 47.3897 1032.81 Q49.8086 1030.17 54.1691 1030.17 Q59.1344 1030.17 62.0308 1034.12 Q64.9272 1038.03 64.9272 1044.91 Q64.9272 1047.77 64.3543 1050.89 Q63.8132 1053.98 62.6992 1057.41 L56.6518 1057.41 Q58.3387 1054.17 59.198 1051.02 Q60.0256 1047.87 60.0256 1044.78 Q60.0256 1040.64 58.6251 1038.41 Q57.1929 1036.18 54.6147 1036.18 Q52.2276 1036.18 50.9545 1037.81 Q49.6813 1039.4 48.5037 1044.84 L48.0262 1046.88 Q46.8804 1052.32 44.5251 1054.74 Q42.138 1057.16 38.0002 1057.16 Q32.9713 1057.16 30.2341 1053.59 Q27.4968 1050.03 27.4968 1043.47 Q27.4968 1040.23 27.9743 1037.36 Q28.4517 1034.5 29.4065 1032.08 Z" fill="#000000" fill-rule="nonzero" fill-opacity="1" /><path clip-path="url(#clip590)" d="M29.4065 998.117 L34.9447 998.117 Q33.6716 1000.6 33.035 1003.27 Q32.3984 1005.95 32.3984 1008.81 Q32.3984 1013.17 33.7352 1015.37 Q35.072 1017.53 37.7456 1017.53 Q39.7826 1017.53 40.9603 1015.97 Q42.1061 1014.41 43.1565 1009.7 L43.6021 1007.7 Q44.9389 1001.46 47.3897 998.849 Q49.8086 996.208 54.1691 996.208 Q59.1344 996.208 62.0308 1000.15 Q64.9272 1004.07 64.9272 1010.94 Q64.9272 1013.81 64.3543 1016.93 Q63.8132 1020.02 62.6992 1023.45 L56.6518 1023.45 Q58.3387 1020.21 59.198 1017.06 Q60.0256 1013.9 60.0256 1010.82 Q60.0256 1006.68 58.6251 1004.45 Q57.1929 1002.22 54.6147 1002.22 Q52.2276 1002.22 50.9545 1003.85 Q49.6813 1005.44 48.5037 1010.88 L48.0262 1012.92 Q46.8804 1018.36 44.5251 1020.78 Q42.138 1023.2 38.0002 1023.2 Q32.9713 1023.2 30.2341 1019.63 Q27.4968 1016.07 27.4968 1009.51 Q27.4968 1006.27 27.9743 1003.4 Q28.4517 1000.54 29.4065 998.117 Z" fill="#000000" fill-rule="nonzero" fill-opacity="1" /><path clip-path="url(#clip590)" d="M44.7161 956.39 L47.5806 956.39 L47.5806 983.317 Q53.6281 982.935 56.8109 979.689 Q59.9619 976.41 59.9619 970.586 Q59.9619 967.212 59.1344 964.061 Q58.3069 960.878 56.6518 957.759 L62.1899 957.759 Q63.5267 960.91 64.227 964.22 Q64.9272 967.53 64.9272 970.936 Q64.9272 979.466 59.9619 984.463 Q54.9967 989.428 46.5303 989.428 Q37.7774 989.428 32.6531 984.717 Q27.4968 979.975 27.4968 971.954 Q27.4968 964.761 32.1438 960.591 Q36.7589 956.39 44.7161 956.39 M42.9973 962.247 Q38.1912 962.31 35.3266 964.952 Q32.4621 967.562 32.4621 971.891 Q32.4621 976.792 35.2312 979.752 Q38.0002 982.68 43.0292 983.126 L42.9973 962.247 Z" fill="#000000" fill-rule="nonzero" fill-opacity="1" /><path clip-path="url(#clip590)" d="M18.2347 940.985 L28.3562 940.985 L28.3562 928.922 L32.9077 928.922 L32.9077 940.985 L52.2594 940.985 Q56.6199 940.985 57.8613 939.807 Q59.1026 938.598 59.1026 934.938 L59.1026 928.922 L64.0042 928.922 L64.0042 934.938 Q64.0042 941.717 61.4897 944.295 Q58.9434 946.873 52.2594 946.873 L32.9077 946.873 L32.9077 951.17 L28.3562 951.17 L28.3562 946.873 L18.2347 946.873 L18.2347 940.985 Z" fill="#000000" fill-rule="nonzero" fill-opacity="1" /><path clip-path="url(#clip590)" d="M46.0847 884.298 Q46.0847 891.396 47.7079 894.133 Q49.3312 896.871 53.2461 896.871 Q56.3653 896.871 58.2114 894.834 Q60.0256 892.765 60.0256 889.232 Q60.0256 884.362 56.5881 881.434 Q53.1188 878.474 47.3897 878.474 L46.0847 878.474 L46.0847 884.298 M43.6657 872.617 L64.0042 872.617 L64.0042 878.474 L58.5933 878.474 Q61.8398 880.479 63.3994 883.471 Q64.9272 886.463 64.9272 890.791 Q64.9272 896.266 61.8716 899.512 Q58.7843 902.727 53.6281 902.727 Q47.6125 902.727 44.5569 898.717 Q41.5014 894.675 41.5014 886.686 L41.5014 878.474 L40.9285 878.474 Q36.8862 878.474 34.6901 881.147 Q32.4621 883.789 32.4621 888.595 Q32.4621 891.651 33.1941 894.547 Q33.9262 897.444 35.3903 900.117 L29.9795 900.117 Q28.7381 896.903 28.1334 893.879 Q27.4968 890.855 27.4968 887.991 Q27.4968 880.256 31.5072 876.437 Q35.5176 872.617 43.6657 872.617 Z" fill="#000000" fill-rule="nonzero" fill-opacity="1" /><path clip-path="url(#clip590)" d="M14.479 860.554 L14.479 854.698 L64.0042 854.698 L64.0042 860.554 L14.479 860.554 Z" fill="#000000" fill-rule="nonzero" fill-opacity="1" /><path clip-path="url(#clip590)" d="M14.479 842.444 L14.479 836.587 L64.0042 836.587 L64.0042 842.444 L14.479 842.444 Z" fill="#000000" fill-rule="nonzero" fill-opacity="1" /><path clip-path="url(#clip590)" d="M32.4621 810.52 Q32.4621 815.231 36.1542 817.968 Q39.8145 820.705 46.212 820.705 Q52.6095 820.705 56.3017 818 Q59.9619 815.262 59.9619 810.52 Q59.9619 805.841 56.2698 803.104 Q52.5777 800.367 46.212 800.367 Q39.8781 800.367 36.186 803.104 Q32.4621 805.841 32.4621 810.52 M27.4968 810.52 Q27.4968 802.881 32.4621 798.521 Q37.4273 794.16 46.212 794.16 Q54.9649 794.16 59.9619 798.521 Q64.9272 802.881 64.9272 810.52 Q64.9272 818.191 59.9619 822.551 Q54.9649 826.88 46.212 826.88 Q37.4273 826.88 32.4621 822.551 Q27.4968 818.191 27.4968 810.52 Z" fill="#000000" fill-rule="nonzero" fill-opacity="1" /><path clip-path="url(#clip590)" d="M29.7248 758.799 L35.1993 758.799 Q33.8307 761.281 33.1623 763.796 Q32.4621 766.278 32.4621 768.825 Q32.4621 774.522 36.0905 777.673 Q39.6872 780.824 46.212 780.824 Q52.7369 780.824 56.3653 777.673 Q59.9619 774.522 59.9619 768.825 Q59.9619 766.278 59.2935 763.796 Q58.5933 761.281 57.2247 758.799 L62.6355 758.799 Q63.7814 761.249 64.3543 763.891 Q64.9272 766.501 64.9272 769.461 Q64.9272 777.514 59.8664 782.256 Q54.8057 786.999 46.212 786.999 Q37.491 786.999 32.4939 782.224 Q27.4968 777.418 27.4968 769.079 Q27.4968 766.374 28.0697 763.796 Q28.6108 761.218 29.7248 758.799 Z" fill="#000000" fill-rule="nonzero" fill-opacity="1" /><path clip-path="url(#clip590)" d="M46.0847 732.413 Q46.0847 739.51 47.7079 742.248 Q49.3312 744.985 53.2461 744.985 Q56.3653 744.985 58.2114 742.948 Q60.0256 740.879 60.0256 737.346 Q60.0256 732.476 56.5881 729.548 Q53.1188 726.588 47.3897 726.588 L46.0847 726.588 L46.0847 732.413 M43.6657 720.732 L64.0042 720.732 L64.0042 726.588 L58.5933 726.588 Q61.8398 728.593 63.3994 731.585 Q64.9272 734.577 64.9272 738.906 Q64.9272 744.38 61.8716 747.627 Q58.7843 750.841 53.6281 750.841 Q47.6125 750.841 44.5569 746.831 Q41.5014 742.789 41.5014 734.8 L41.5014 726.588 L40.9285 726.588 Q36.8862 726.588 34.6901 729.262 Q32.4621 731.903 32.4621 736.71 Q32.4621 739.765 33.1941 742.661 Q33.9262 745.558 35.3903 748.231 L29.9795 748.231 Q28.7381 745.017 28.1334 741.993 Q27.4968 738.969 27.4968 736.105 Q27.4968 728.37 31.5072 724.551 Q35.5176 720.732 43.6657 720.732 Z" fill="#000000" fill-rule="nonzero" fill-opacity="1" /><path clip-path="url(#clip590)" d="M18.2347 702.876 L28.3562 702.876 L28.3562 690.813 L32.9077 690.813 L32.9077 702.876 L52.2594 702.876 Q56.6199 702.876 57.8613 701.698 Q59.1026 700.489 59.1026 696.828 L59.1026 690.813 L64.0042 690.813 L64.0042 696.828 Q64.0042 703.608 61.4897 706.186 Q58.9434 708.764 52.2594 708.764 L32.9077 708.764 L32.9077 713.061 L28.3562 713.061 L28.3562 708.764 L18.2347 708.764 L18.2347 702.876 Z" fill="#000000" fill-rule="nonzero" fill-opacity="1" /><path clip-path="url(#clip590)" d="M28.3562 683.11 L28.3562 677.254 L64.0042 677.254 L64.0042 683.11 L28.3562 683.11 M14.479 683.11 L14.479 677.254 L21.895 677.254 L21.895 683.11 L14.479 683.11 Z" fill="#000000" fill-rule="nonzero" fill-opacity="1" /><path clip-path="url(#clip590)" d="M32.4621 651.186 Q32.4621 655.897 36.1542 658.634 Q39.8145 661.371 46.212 661.371 Q52.6095 661.371 56.3017 658.666 Q59.9619 655.929 59.9619 651.186 Q59.9619 646.507 56.2698 643.77 Q52.5777 641.033 46.212 641.033 Q39.8781 641.033 36.186 643.77 Q32.4621 646.507 32.4621 651.186 M27.4968 651.186 Q27.4968 643.547 32.4621 639.187 Q37.4273 634.826 46.212 634.826 Q54.9649 634.826 59.9619 639.187 Q64.9272 643.547 64.9272 651.186 Q64.9272 658.857 59.9619 663.217 Q54.9649 667.546 46.212 667.546 Q37.4273 667.546 32.4621 663.217 Q27.4968 658.857 27.4968 651.186 Z" fill="#000000" fill-rule="nonzero" fill-opacity="1" /><path clip-path="url(#clip590)" d="M42.4881 595.486 L64.0042 595.486 L64.0042 601.343 L42.679 601.343 Q37.6183 601.343 35.1038 603.316 Q32.5894 605.29 32.5894 609.236 Q32.5894 613.979 35.6131 616.716 Q38.6368 619.453 43.8567 619.453 L64.0042 619.453 L64.0042 625.342 L28.3562 625.342 L28.3562 619.453 L33.8944 619.453 Q30.6797 617.353 29.0883 614.52 Q27.4968 611.655 27.4968 607.931 Q27.4968 601.788 31.3163 598.637 Q35.1038 595.486 42.4881 595.486 Z" fill="#000000" fill-rule="nonzero" fill-opacity="1" /><path clip-path="url(#clip590)" d="M14.5426 549.017 Q21.8632 553.282 29.0246 555.351 Q36.186 557.419 43.5384 557.419 Q50.8908 557.419 58.1159 555.351 Q65.3091 553.25 72.5979 549.017 L72.5979 554.109 Q65.1182 558.884 57.8931 561.271 Q50.668 563.626 43.5384 563.626 Q36.4406 563.626 29.2474 561.271 Q22.0542 558.915 14.5426 554.109 L14.5426 549.017 Z" fill="#000000" fill-rule="nonzero" fill-opacity="1" /><path clip-path="url(#clip590)" d="M43.0928 496.404 Q43.0928 499.173 45.4481 500.765 Q47.8034 502.324 52.0048 502.324 Q56.1425 502.324 58.5296 500.765 Q60.885 499.173 60.885 496.404 Q60.885 493.699 58.5296 492.139 Q56.1425 490.548 52.0048 490.548 Q47.8353 490.548 45.48 492.139 Q43.0928 493.699 43.0928 496.404 M39.0506 496.404 Q39.0506 491.375 42.5517 488.415 Q46.0529 485.455 52.0048 485.455 Q57.9567 485.455 61.4579 488.447 Q64.9272 491.407 64.9272 496.404 Q64.9272 501.497 61.4579 504.457 Q57.9567 507.417 52.0048 507.417 Q46.021 507.417 42.5517 504.457 Q39.0506 501.465 39.0506 496.404 M19.667 529.251 Q19.667 531.988 22.0542 533.58 Q24.4095 535.139 28.5472 535.139 Q32.7485 535.139 35.1038 533.58 Q37.4592 532.02 37.4592 529.251 Q37.4592 526.482 35.1038 524.922 Q32.7485 523.331 28.5472 523.331 Q24.4413 523.331 22.0542 524.922 Q19.667 526.514 19.667 529.251 M15.6248 500.51 L15.6248 495.417 L64.9272 525.145 L64.9272 530.238 L15.6248 500.51 M15.6248 529.251 Q15.6248 524.222 19.1259 521.23 Q22.5952 518.238 28.5472 518.238 Q34.5628 518.238 38.0321 521.23 Q41.5014 524.19 41.5014 529.251 Q41.5014 534.312 38.0321 537.272 Q34.5309 540.2 28.5472 540.2 Q22.6271 540.2 19.1259 537.24 Q15.6248 534.28 15.6248 529.251 Z" fill="#000000" fill-rule="nonzero" fill-opacity="1" /><path clip-path="url(#clip590)" d="M14.5426 476.639 L14.5426 471.546 Q22.0542 466.772 29.2474 464.416 Q36.4406 462.029 43.5384 462.029 Q50.668 462.029 57.8931 464.416 Q65.1182 466.772 72.5979 471.546 L72.5979 476.639 Q65.3091 472.405 58.1159 470.337 Q50.8908 468.236 43.5384 468.236 Q36.186 468.236 29.0246 470.337 Q21.8632 472.405 14.5426 476.639 Z" fill="#000000" fill-rule="nonzero" fill-opacity="1" /><path clip-path="url(#clip590)" d="M793.102 53.5995 Q787.107 53.5995 783.623 58.2986 Q780.139 62.9571 780.139 71.0994 Q780.139 79.2418 783.582 83.9408 Q787.066 88.5994 793.102 88.5994 Q799.057 88.5994 802.541 83.9003 Q806.024 79.2013 806.024 71.0994 Q806.024 63.0381 802.541 58.3391 Q799.057 53.5995 793.102 53.5995 M793.102 47.2801 Q802.824 47.2801 808.374 53.5995 Q813.924 59.9189 813.924 71.0994 Q813.924 82.2394 808.374 88.5994 Q802.824 94.9188 793.102 94.9188 Q783.339 94.9188 777.79 88.5994 Q772.28 82.2394 772.28 71.0994 Q772.28 59.9189 777.79 53.5995 Q783.339 47.2801 793.102 47.2801 Z" fill="#000000" fill-rule="nonzero" fill-opacity="1" /><path clip-path="url(#clip590)" d="M833.489 86.9385 L833.489 111.001 L825.995 111.001 L825.995 48.3739 L833.489 48.3739 L833.489 55.2604 Q835.839 51.2095 839.404 49.2651 Q843.009 47.2801 847.992 47.2801 Q856.256 47.2801 861.4 53.8426 Q866.585 60.4051 866.585 71.0994 Q866.585 81.7938 861.4 88.3563 Q856.256 94.9188 847.992 94.9188 Q843.009 94.9188 839.404 92.9743 Q835.839 90.9894 833.489 86.9385 M858.848 71.0994 Q858.848 62.8761 855.445 58.2176 Q852.083 53.5185 846.169 53.5185 Q840.254 53.5185 836.852 58.2176 Q833.489 62.8761 833.489 71.0994 Q833.489 79.3228 836.852 84.0218 Q840.254 88.6804 846.169 88.6804 Q852.083 88.6804 855.445 84.0218 Q858.848 79.3228 858.848 71.0994 Z" fill="#000000" fill-rule="nonzero" fill-opacity="1" /><path clip-path="url(#clip590)" d="M886.313 35.492 L886.313 48.3739 L901.666 48.3739 L901.666 54.1667 L886.313 54.1667 L886.313 78.7962 Q886.313 84.3459 887.812 85.9258 Q889.351 87.5056 894.01 87.5056 L901.666 87.5056 L901.666 93.744 L894.01 93.744 Q885.382 93.744 882.1 90.5438 Q878.819 87.3031 878.819 78.7962 L878.819 54.1667 L873.35 54.1667 L873.35 48.3739 L878.819 48.3739 L878.819 35.492 L886.313 35.492 Z" fill="#000000" fill-rule="nonzero" fill-opacity="1" /><path clip-path="url(#clip590)" d="M911.469 48.3739 L918.923 48.3739 L918.923 93.744 L911.469 93.744 L911.469 48.3739 M911.469 30.7119 L918.923 30.7119 L918.923 40.1505 L911.469 40.1505 L911.469 30.7119 Z" fill="#000000" fill-rule="nonzero" fill-opacity="1" /><path clip-path="url(#clip590)" d="M969.843 57.0833 Q972.638 52.0602 976.527 49.6702 Q980.416 47.2801 985.682 47.2801 Q992.771 47.2801 996.619 52.2627 Q1000.47 57.2048 1000.47 66.3599 L1000.47 93.744 L992.974 93.744 L992.974 66.6029 Q992.974 60.081 990.665 56.9213 Q988.356 53.7616 983.616 53.7616 Q977.823 53.7616 974.461 57.6099 Q971.099 61.4583 971.099 68.1018 L971.099 93.744 L963.604 93.744 L963.604 66.6029 Q963.604 60.0405 961.295 56.9213 Q958.986 53.7616 954.166 53.7616 Q948.454 53.7616 945.092 57.6504 Q941.73 61.4988 941.73 68.1018 L941.73 93.744 L934.235 93.744 L934.235 48.3739 L941.73 48.3739 L941.73 55.4224 Q944.282 51.25 947.846 49.2651 Q951.411 47.2801 956.313 47.2801 Q961.255 47.2801 964.698 49.7917 Q968.182 52.3032 969.843 57.0833 Z" fill="#000000" fill-rule="nonzero" fill-opacity="1" /><path clip-path="url(#clip590)" d="M1035.95 70.9374 Q1026.92 70.9374 1023.44 73.0034 Q1019.95 75.0693 1019.95 80.0519 Q1019.95 84.0218 1022.55 86.3714 Q1025.18 88.6804 1029.67 88.6804 Q1035.87 88.6804 1039.6 84.3054 Q1043.37 79.8899 1043.37 72.5983 L1043.37 70.9374 L1035.95 70.9374 M1050.82 67.8587 L1050.82 93.744 L1043.37 93.744 L1043.37 86.8575 Q1040.81 90.9894 1037.01 92.9743 Q1033.2 94.9188 1027.69 94.9188 Q1020.72 94.9188 1016.59 91.0299 Q1012.5 87.1005 1012.5 80.5381 Q1012.5 72.8818 1017.6 68.993 Q1022.75 65.1041 1032.92 65.1041 L1043.37 65.1041 L1043.37 64.3749 Q1043.37 59.2303 1039.96 56.4352 Q1036.6 53.5995 1030.48 53.5995 Q1026.6 53.5995 1022.91 54.5312 Q1019.22 55.463 1015.82 57.3264 L1015.82 50.4398 Q1019.91 48.86 1023.76 48.0903 Q1027.61 47.2801 1031.25 47.2801 Q1041.1 47.2801 1045.96 52.3843 Q1050.82 57.4884 1050.82 67.8587 Z" fill="#000000" fill-rule="nonzero" fill-opacity="1" /><path clip-path="url(#clip590)" d="M1066.17 30.7119 L1073.63 30.7119 L1073.63 93.744 L1066.17 93.744 L1066.17 30.7119 Z" fill="#000000" fill-rule="nonzero" fill-opacity="1" /><path clip-path="url(#clip590)" d="M1136.21 70.9374 Q1127.18 70.9374 1123.7 73.0034 Q1120.21 75.0693 1120.21 80.0519 Q1120.21 84.0218 1122.81 86.3714 Q1125.44 88.6804 1129.93 88.6804 Q1136.13 88.6804 1139.86 84.3054 Q1143.63 79.8899 1143.63 72.5983 L1143.63 70.9374 L1136.21 70.9374 M1151.08 67.8587 L1151.08 93.744 L1143.63 93.744 L1143.63 86.8575 Q1141.07 90.9894 1137.27 92.9743 Q1133.46 94.9188 1127.95 94.9188 Q1120.98 94.9188 1116.85 91.0299 Q1112.76 87.1005 1112.76 80.5381 Q1112.76 72.8818 1117.86 68.993 Q1123.01 65.1041 1133.18 65.1041 L1143.63 65.1041 L1143.63 64.3749 Q1143.63 59.2303 1140.22 56.4352 Q1136.86 53.5995 1130.74 53.5995 Q1126.86 53.5995 1123.17 54.5312 Q1119.48 55.463 1116.08 57.3264 L1116.08 50.4398 Q1120.17 48.86 1124.02 48.0903 Q1127.87 47.2801 1131.51 47.2801 Q1141.36 47.2801 1146.22 52.3843 Q1151.08 57.4884 1151.08 67.8587 Z" fill="#000000" fill-rule="nonzero" fill-opacity="1" /><path clip-path="url(#clip590)" d="M1195.36 49.7107 L1195.36 56.7592 Q1192.2 55.1389 1188.79 54.3287 Q1185.39 53.5185 1181.75 53.5185 Q1176.2 53.5185 1173.4 55.2199 Q1170.65 56.9213 1170.65 60.324 Q1170.65 62.9166 1172.63 64.4155 Q1174.62 65.8738 1180.61 67.2106 L1183.16 67.7777 Q1191.1 69.4791 1194.43 72.5983 Q1197.79 75.677 1197.79 81.2267 Q1197.79 87.5461 1192.76 91.2324 Q1187.78 94.9188 1179.03 94.9188 Q1175.39 94.9188 1171.42 94.1896 Q1167.49 93.5009 1163.11 92.0831 L1163.11 84.3864 Q1167.24 86.5334 1171.25 87.6271 Q1175.26 88.6804 1179.19 88.6804 Q1184.46 88.6804 1187.3 86.898 Q1190.13 85.0751 1190.13 81.7938 Q1190.13 78.7557 1188.07 77.1353 Q1186.04 75.5149 1179.11 74.0161 L1176.52 73.4085 Q1169.59 71.9501 1166.51 68.9525 Q1163.44 65.9143 1163.44 60.6481 Q1163.44 54.2477 1167.97 50.7639 Q1172.51 47.2801 1180.85 47.2801 Q1184.99 47.2801 1188.63 47.8878 Q1192.28 48.4954 1195.36 49.7107 Z" fill="#000000" fill-rule="nonzero" fill-opacity="1" /><path clip-path="url(#clip590)" d="M1238.58 49.7107 L1238.58 56.7592 Q1235.42 55.1389 1232.02 54.3287 Q1228.61 53.5185 1224.97 53.5185 Q1219.42 53.5185 1216.62 55.2199 Q1213.87 56.9213 1213.87 60.324 Q1213.87 62.9166 1215.85 64.4155 Q1217.84 65.8738 1223.83 67.2106 L1226.39 67.7777 Q1234.33 69.4791 1237.65 72.5983 Q1241.01 75.677 1241.01 81.2267 Q1241.01 87.5461 1235.99 91.2324 Q1231 94.9188 1222.25 94.9188 Q1218.61 94.9188 1214.64 94.1896 Q1210.71 93.5009 1206.33 92.0831 L1206.33 84.3864 Q1210.47 86.5334 1214.48 87.6271 Q1218.49 88.6804 1222.42 88.6804 Q1227.68 88.6804 1230.52 86.898 Q1233.35 85.0751 1233.35 81.7938 Q1233.35 78.7557 1231.29 77.1353 Q1229.26 75.5149 1222.34 74.0161 L1219.74 73.4085 Q1212.82 71.9501 1209.74 68.9525 Q1206.66 65.9143 1206.66 60.6481 Q1206.66 54.2477 1211.2 50.7639 Q1215.73 47.2801 1224.08 47.2801 Q1228.21 47.2801 1231.86 47.8878 Q1235.5 48.4954 1238.58 49.7107 Z" fill="#000000" fill-rule="nonzero" fill-opacity="1" /><path clip-path="url(#clip590)" d="M1291.69 69.1955 L1291.69 72.8413 L1257.42 72.8413 Q1257.9 80.5381 1262.03 84.589 Q1266.21 88.5994 1273.62 88.5994 Q1277.91 88.5994 1281.92 87.5461 Q1285.98 86.4929 1289.95 84.3864 L1289.95 91.435 Q1285.93 93.1364 1281.72 94.0276 Q1277.51 94.9188 1273.17 94.9188 Q1262.32 94.9188 1255.96 88.5994 Q1249.64 82.2799 1249.64 71.5045 Q1249.64 60.3645 1255.63 53.8426 Q1261.67 47.2801 1271.88 47.2801 Q1281.03 47.2801 1286.34 53.1944 Q1291.69 59.0683 1291.69 69.1955 M1284.23 67.008 Q1284.15 60.8912 1280.79 57.2454 Q1277.47 53.5995 1271.96 53.5995 Q1265.72 53.5995 1261.95 57.1238 Q1258.23 60.6481 1257.66 67.0485 L1284.23 67.008 Z" fill="#000000" fill-rule="nonzero" fill-opacity="1" /><path clip-path="url(#clip590)" d="M1311.29 35.492 L1311.29 48.3739 L1326.65 48.3739 L1326.65 54.1667 L1311.29 54.1667 L1311.29 78.7962 Q1311.29 84.3459 1312.79 85.9258 Q1314.33 87.5056 1318.99 87.5056 L1326.65 87.5056 L1326.65 93.744 L1318.99 93.744 Q1310.36 93.744 1307.08 90.5438 Q1303.8 87.3031 1303.8 78.7962 L1303.8 54.1667 L1298.33 54.1667 L1298.33 48.3739 L1303.8 48.3739 L1303.8 35.492 L1311.29 35.492 Z" fill="#000000" fill-rule="nonzero" fill-opacity="1" /><path clip-path="url(#clip590)" d="M1383.44 70.9374 Q1374.41 70.9374 1370.92 73.0034 Q1367.44 75.0693 1367.44 80.0519 Q1367.44 84.0218 1370.03 86.3714 Q1372.66 88.6804 1377.16 88.6804 Q1383.36 88.6804 1387.09 84.3054 Q1390.85 79.8899 1390.85 72.5983 L1390.85 70.9374 L1383.44 70.9374 M1398.31 67.8587 L1398.31 93.744 L1390.85 93.744 L1390.85 86.8575 Q1388.3 90.9894 1384.49 92.9743 Q1380.69 94.9188 1375.18 94.9188 Q1368.21 94.9188 1364.08 91.0299 Q1359.99 87.1005 1359.99 80.5381 Q1359.99 72.8818 1365.09 68.993 Q1370.23 65.1041 1380.4 65.1041 L1390.85 65.1041 L1390.85 64.3749 Q1390.85 59.2303 1387.45 56.4352 Q1384.09 53.5995 1377.97 53.5995 Q1374.08 53.5995 1370.4 54.5312 Q1366.71 55.463 1363.31 57.3264 L1363.31 50.4398 Q1367.4 48.86 1371.25 48.0903 Q1375.1 47.2801 1378.74 47.2801 Q1388.58 47.2801 1393.45 52.3843 Q1398.31 57.4884 1398.31 67.8587 Z" fill="#000000" fill-rule="nonzero" fill-opacity="1" /><path clip-path="url(#clip590)" d="M1413.66 30.7119 L1421.11 30.7119 L1421.11 93.744 L1413.66 93.744 L1413.66 30.7119 Z" fill="#000000" fill-rule="nonzero" fill-opacity="1" /><path clip-path="url(#clip590)" d="M1436.71 30.7119 L1444.16 30.7119 L1444.16 93.744 L1436.71 93.744 L1436.71 30.7119 Z" fill="#000000" fill-rule="nonzero" fill-opacity="1" /><path clip-path="url(#clip590)" d="M1477.34 53.5995 Q1471.34 53.5995 1467.86 58.2986 Q1464.38 62.9571 1464.38 71.0994 Q1464.38 79.2418 1467.82 83.9408 Q1471.3 88.5994 1477.34 88.5994 Q1483.29 88.5994 1486.78 83.9003 Q1490.26 79.2013 1490.26 71.0994 Q1490.26 63.0381 1486.78 58.3391 Q1483.29 53.5995 1477.34 53.5995 M1477.34 47.2801 Q1487.06 47.2801 1492.61 53.5995 Q1498.16 59.9189 1498.16 71.0994 Q1498.16 82.2394 1492.61 88.5994 Q1487.06 94.9188 1477.34 94.9188 Q1467.58 94.9188 1462.03 88.5994 Q1456.52 82.2394 1456.52 71.0994 Q1456.52 59.9189 1462.03 53.5995 Q1467.58 47.2801 1477.34 47.2801 Z" fill="#000000" fill-rule="nonzero" fill-opacity="1" /><path clip-path="url(#clip590)" d="M1543.17 50.1158 L1543.17 57.0833 Q1540.01 55.3414 1536.81 54.4907 Q1533.65 53.5995 1530.41 53.5995 Q1523.16 53.5995 1519.15 58.2176 Q1515.14 62.7951 1515.14 71.0994 Q1515.14 79.4038 1519.15 84.0218 Q1523.16 88.5994 1530.41 88.5994 Q1533.65 88.5994 1536.81 87.7487 Q1540.01 86.8575 1543.17 85.1156 L1543.17 92.0021 Q1540.05 93.4604 1536.69 94.1896 Q1533.36 94.9188 1529.6 94.9188 Q1519.35 94.9188 1513.31 88.4778 Q1507.28 82.0369 1507.28 71.0994 Q1507.28 60 1513.35 53.64 Q1519.47 47.2801 1530.08 47.2801 Q1533.53 47.2801 1536.81 48.0093 Q1540.09 48.6979 1543.17 50.1158 Z" fill="#000000" fill-rule="nonzero" fill-opacity="1" /><path clip-path="url(#clip590)" d="M1576.75 70.9374 Q1567.72 70.9374 1564.23 73.0034 Q1560.75 75.0693 1560.75 80.0519 Q1560.75 84.0218 1563.34 86.3714 Q1565.97 88.6804 1570.47 88.6804 Q1576.67 88.6804 1580.4 84.3054 Q1584.16 79.8899 1584.16 72.5983 L1584.16 70.9374 L1576.75 70.9374 M1591.62 67.8587 L1591.62 93.744 L1584.16 93.744 L1584.16 86.8575 Q1581.61 90.9894 1577.8 92.9743 Q1573.99 94.9188 1568.49 94.9188 Q1561.52 94.9188 1557.39 91.0299 Q1553.29 87.1005 1553.29 80.5381 Q1553.29 72.8818 1558.4 68.993 Q1563.54 65.1041 1573.71 65.1041 L1584.16 65.1041 L1584.16 64.3749 Q1584.16 59.2303 1580.76 56.4352 Q1577.4 53.5995 1571.28 53.5995 Q1567.39 53.5995 1563.71 54.5312 Q1560.02 55.463 1556.62 57.3264 L1556.62 50.4398 Q1560.71 48.86 1564.56 48.0903 Q1568.4 47.2801 1572.05 47.2801 Q1581.89 47.2801 1586.76 52.3843 Q1591.62 57.4884 1591.62 67.8587 Z" fill="#000000" fill-rule="nonzero" fill-opacity="1" /><path clip-path="url(#clip590)" d="M1614.34 35.492 L1614.34 48.3739 L1629.69 48.3739 L1629.69 54.1667 L1614.34 54.1667 L1614.34 78.7962 Q1614.34 84.3459 1615.84 85.9258 Q1617.38 87.5056 1622.04 87.5056 L1629.69 87.5056 L1629.69 93.744 L1622.04 93.744 Q1613.41 93.744 1610.13 90.5438 Q1606.85 87.3031 1606.85 78.7962 L1606.85 54.1667 L1601.38 54.1667 L1601.38 48.3739 L1606.85 48.3739 L1606.85 35.492 L1614.34 35.492 Z" fill="#000000" fill-rule="nonzero" fill-opacity="1" /><path clip-path="url(#clip590)" d="M1639.5 48.3739 L1646.95 48.3739 L1646.95 93.744 L1639.5 93.744 L1639.5 48.3739 M1639.5 30.7119 L1646.95 30.7119 L1646.95 40.1505 L1639.5 40.1505 L1639.5 30.7119 Z" fill="#000000" fill-rule="nonzero" fill-opacity="1" /><path clip-path="url(#clip590)" d="M1680.13 53.5995 Q1674.13 53.5995 1670.65 58.2986 Q1667.17 62.9571 1667.17 71.0994 Q1667.17 79.2418 1670.61 83.9408 Q1674.09 88.5994 1680.13 88.5994 Q1686.08 88.5994 1689.57 83.9003 Q1693.05 79.2013 1693.05 71.0994 Q1693.05 63.0381 1689.57 58.3391 Q1686.08 53.5995 1680.13 53.5995 M1680.13 47.2801 Q1689.85 47.2801 1695.4 53.5995 Q1700.95 59.9189 1700.95 71.0994 Q1700.95 82.2394 1695.4 88.5994 Q1689.85 94.9188 1680.13 94.9188 Q1670.37 94.9188 1664.82 88.5994 Q1659.31 82.2394 1659.31 71.0994 Q1659.31 59.9189 1664.82 53.5995 Q1670.37 47.2801 1680.13 47.2801 Z" fill="#000000" fill-rule="nonzero" fill-opacity="1" /><path clip-path="url(#clip590)" d="M1751.02 66.3599 L1751.02 93.744 L1743.57 93.744 L1743.57 66.6029 Q1743.57 60.162 1741.05 56.9618 Q1738.54 53.7616 1733.52 53.7616 Q1727.48 53.7616 1724 57.6099 Q1720.52 61.4583 1720.52 68.1018 L1720.52 93.744 L1713.02 93.744 L1713.02 48.3739 L1720.52 48.3739 L1720.52 55.4224 Q1723.19 51.331 1726.79 49.3056 Q1730.44 47.2801 1735.18 47.2801 Q1743 47.2801 1747.01 52.1412 Q1751.02 56.9618 1751.02 66.3599 Z" fill="#000000" fill-rule="nonzero" fill-opacity="1" /><path clip-path="url(#clip590)" d="M1019.45 121.432 L1026.9 121.432 L1026.9 184.464 L1019.45 184.464 L1019.45 121.432 Z" fill="#000000" fill-rule="nonzero" fill-opacity="1" /><path clip-path="url(#clip590)" d="M1063.11 161.657 Q1054.08 161.657 1050.6 163.723 Q1047.11 165.789 1047.11 170.772 Q1047.11 174.742 1049.71 177.091 Q1052.34 179.4 1056.84 179.4 Q1063.03 179.4 1066.76 175.025 Q1070.53 170.61 1070.53 163.318 L1070.53 161.657 L1063.11 161.657 M1077.98 158.579 L1077.98 184.464 L1070.53 184.464 L1070.53 177.577 Q1067.98 181.709 1064.17 183.694 Q1060.36 185.639 1054.85 185.639 Q1047.88 185.639 1043.75 181.75 Q1039.66 177.821 1039.66 171.258 Q1039.66 163.602 1044.76 159.713 Q1049.91 155.824 1060.08 155.824 L1070.53 155.824 L1070.53 155.095 Q1070.53 149.95 1067.13 147.155 Q1063.76 144.32 1057.65 144.32 Q1053.76 144.32 1050.07 145.251 Q1046.38 146.183 1042.98 148.046 L1042.98 141.16 Q1047.07 139.58 1050.92 138.81 Q1054.77 138 1058.42 138 Q1068.26 138 1073.12 143.104 Q1077.98 148.208 1077.98 158.579 Z" fill="#000000" fill-rule="nonzero" fill-opacity="1" /><path clip-path="url(#clip590)" d="M1128.66 147.803 Q1131.45 142.78 1135.34 140.39 Q1139.23 138 1144.5 138 Q1151.59 138 1155.44 142.983 Q1159.28 147.925 1159.28 157.08 L1159.28 184.464 L1151.79 184.464 L1151.79 157.323 Q1151.79 150.801 1149.48 147.641 Q1147.17 144.482 1142.43 144.482 Q1136.64 144.482 1133.28 148.33 Q1129.91 152.178 1129.91 158.822 L1129.91 184.464 L1122.42 184.464 L1122.42 157.323 Q1122.42 150.76 1120.11 147.641 Q1117.8 144.482 1112.98 144.482 Q1107.27 144.482 1103.91 148.37 Q1100.55 152.219 1100.55 158.822 L1100.55 184.464 L1093.05 184.464 L1093.05 139.094 L1100.55 139.094 L1100.55 146.142 Q1103.1 141.97 1106.66 139.985 Q1110.23 138 1115.13 138 Q1120.07 138 1123.51 140.512 Q1127 143.023 1128.66 147.803 Z" fill="#000000" fill-rule="nonzero" fill-opacity="1" /><path clip-path="url(#clip590)" d="M1206.72 161.819 Q1206.72 153.596 1203.32 148.938 Q1199.95 144.239 1194.04 144.239 Q1188.13 144.239 1184.72 148.938 Q1181.36 153.596 1181.36 161.819 Q1181.36 170.043 1184.72 174.742 Q1188.13 179.4 1194.04 179.4 Q1199.95 179.4 1203.32 174.742 Q1206.72 170.043 1206.72 161.819 M1181.36 145.98 Q1183.71 141.93 1187.28 139.985 Q1190.88 138 1195.86 138 Q1204.13 138 1209.27 144.563 Q1214.46 151.125 1214.46 161.819 Q1214.46 172.514 1209.27 179.076 Q1204.13 185.639 1195.86 185.639 Q1190.88 185.639 1187.28 183.694 Q1183.71 181.709 1181.36 177.658 L1181.36 184.464 L1173.87 184.464 L1173.87 121.432 L1181.36 121.432 L1181.36 145.98 Z" fill="#000000" fill-rule="nonzero" fill-opacity="1" /><path clip-path="url(#clip590)" d="M1256.67 145.98 L1256.67 121.432 L1264.12 121.432 L1264.12 184.464 L1256.67 184.464 L1256.67 177.658 Q1254.32 181.709 1250.71 183.694 Q1247.15 185.639 1242.12 185.639 Q1233.9 185.639 1228.72 179.076 Q1223.57 172.514 1223.57 161.819 Q1223.57 151.125 1228.72 144.563 Q1233.9 138 1242.12 138 Q1247.15 138 1250.71 139.985 Q1254.32 141.93 1256.67 145.98 M1231.27 161.819 Q1231.27 170.043 1234.63 174.742 Q1238.03 179.4 1243.95 179.4 Q1249.86 179.4 1253.26 174.742 Q1256.67 170.043 1256.67 161.819 Q1256.67 153.596 1253.26 148.938 Q1249.86 144.239 1243.95 144.239 Q1238.03 144.239 1234.63 148.938 Q1231.27 153.596 1231.27 161.819 Z" fill="#000000" fill-rule="nonzero" fill-opacity="1" /><path clip-path="url(#clip590)" d="M1300.09 161.657 Q1291.06 161.657 1287.58 163.723 Q1284.09 165.789 1284.09 170.772 Q1284.09 174.742 1286.68 177.091 Q1289.32 179.4 1293.81 179.4 Q1300.01 179.4 1303.74 175.025 Q1307.51 170.61 1307.51 163.318 L1307.51 161.657 L1300.09 161.657 M1314.96 158.579 L1314.96 184.464 L1307.51 184.464 L1307.51 177.577 Q1304.95 181.709 1301.15 183.694 Q1297.34 185.639 1291.83 185.639 Q1284.86 185.639 1280.73 181.75 Q1276.64 177.821 1276.64 171.258 Q1276.64 163.602 1281.74 159.713 Q1286.89 155.824 1297.05 155.824 L1307.51 155.824 L1307.51 155.095 Q1307.51 149.95 1304.1 147.155 Q1300.74 144.32 1294.62 144.32 Q1290.74 144.32 1287.05 145.251 Q1283.36 146.183 1279.96 148.046 L1279.96 141.16 Q1284.05 139.58 1287.9 138.81 Q1291.75 138 1295.39 138 Q1305.24 138 1310.1 143.104 Q1314.96 148.208 1314.96 158.579 Z" fill="#000000" fill-rule="nonzero" fill-opacity="1" /><path clip-path="url(#clip590)" d="M1357.66 146.791 L1409.59 146.791 L1409.59 153.596 L1357.66 153.596 L1357.66 146.791 M1357.66 163.318 L1409.59 163.318 L1409.59 170.205 L1357.66 170.205 L1357.66 163.318 Z" fill="#000000" fill-rule="nonzero" fill-opacity="1" /><path clip-path="url(#clip590)" d="M1471.12 129.372 Q1464.8 129.372 1461.6 135.61 Q1458.44 141.808 1458.44 154.285 Q1458.44 166.721 1461.6 172.959 Q1464.8 179.157 1471.12 179.157 Q1477.48 179.157 1480.64 172.959 Q1483.84 166.721 1483.84 154.285 Q1483.84 141.808 1480.64 135.61 Q1477.48 129.372 1471.12 129.372 M1471.12 122.89 Q1481.29 122.89 1486.64 130.952 Q1492.02 138.972 1492.02 154.285 Q1492.02 169.557 1486.64 177.618 Q1481.29 185.639 1471.12 185.639 Q1460.95 185.639 1455.57 177.618 Q1450.22 169.557 1450.22 154.285 Q1450.22 138.972 1455.57 130.952 Q1460.95 122.89 1471.12 122.89 Z" fill="#000000" fill-rule="nonzero" fill-opacity="1" /><path clip-path="url(#clip590)" d="M1506.41 174.175 L1514.95 174.175 L1514.95 184.464 L1506.41 184.464 L1506.41 174.175 Z" fill="#000000" fill-rule="nonzero" fill-opacity="1" /><path clip-path="url(#clip590)" d="M1551.29 150.963 Q1545.78 150.963 1542.54 154.73 Q1539.34 158.498 1539.34 165.06 Q1539.34 171.582 1542.54 175.39 Q1545.78 179.157 1551.29 179.157 Q1556.8 179.157 1560 175.39 Q1563.24 171.582 1563.24 165.06 Q1563.24 158.498 1560 154.73 Q1556.8 150.963 1551.29 150.963 M1567.53 125.321 L1567.53 132.774 Q1564.45 131.316 1561.3 130.546 Q1558.18 129.777 1555.1 129.777 Q1547 129.777 1542.7 135.246 Q1538.45 140.714 1537.84 151.773 Q1540.23 148.249 1543.84 146.386 Q1547.44 144.482 1551.78 144.482 Q1560.89 144.482 1566.16 150.031 Q1571.46 155.541 1571.46 165.06 Q1571.46 174.377 1565.95 180.008 Q1560.44 185.639 1551.29 185.639 Q1540.8 185.639 1535.25 177.618 Q1529.7 169.557 1529.7 154.285 Q1529.7 139.945 1536.5 131.438 Q1543.31 122.89 1554.77 122.89 Q1557.85 122.89 1560.97 123.498 Q1564.13 124.106 1567.53 125.321 Z" fill="#000000" fill-rule="nonzero" fill-opacity="1" /><path clip-path="url(#clip592)" d="M322.151 753.045 L322.151 1375.05 L518.296 1375.05 L518.296 753.045 L322.151 753.045 L322.151 753.045  Z" fill="#009af9" fill-rule="evenodd" fill-opacity="1"/>
<polyline clip-path="url(#clip592)" style="stroke:#000000; stroke-linecap:round; stroke-linejoin:round; stroke-width:4; stroke-opacity:1; fill:none" points="322.151,753.045 322.151,1375.05 518.296,1375.05 518.296,753.045 322.151,753.045 "/>
<path clip-path="url(#clip592)" d="M567.333 183.952 L567.333 1375.05 L763.478 1375.05 L763.478 183.952 L567.333 183.952 L567.333 183.952  Z" fill="#009af9" fill-rule="evenodd" fill-opacity="1"/>
<polyline clip-path="url(#clip592)" style="stroke:#000000; stroke-linecap:round; stroke-linejoin:round; stroke-width:4; stroke-opacity:1; fill:none" points="567.333,183.952 567.333,1375.05 763.478,1375.05 763.478,183.952 567.333,183.952 "/>
<path clip-path="url(#clip592)" d="M812.514 1294.67 L812.514 1375.05 L1008.66 1375.05 L1008.66 1294.67 L812.514 1294.67 L812.514 1294.67  Z" fill="#009af9" fill-rule="evenodd" fill-opacity="1"/>
<polyline clip-path="url(#clip592)" style="stroke:#000000; stroke-linecap:round; stroke-linejoin:round; stroke-width:4; stroke-opacity:1; fill:none" points="812.514,1294.67 812.514,1375.05 1008.66,1375.05 1008.66,1294.67 812.514,1294.67 "/>
<path clip-path="url(#clip592)" d="M1057.7 939.411 L1057.7 1375.05 L1253.84 1375.05 L1253.84 939.411 L1057.7 939.411 L1057.7 939.411  Z" fill="#009af9" fill-rule="evenodd" fill-opacity="1"/>
<polyline clip-path="url(#clip592)" style="stroke:#000000; stroke-linecap:round; stroke-linejoin:round; stroke-width:4; stroke-opacity:1; fill:none" points="1057.7,939.411 1057.7,1375.05 1253.84,1375.05 1253.84,939.411 1057.7,939.411 "/>
<path clip-path="url(#clip592)" d="M1302.88 403.591 L1302.88 1375.05 L1499.02 1375.05 L1499.02 403.591 L1302.88 403.591 L1302.88 403.591  Z" fill="#009af9" fill-rule="evenodd" fill-opacity="1"/>
<polyline clip-path="url(#clip592)" style="stroke:#000000; stroke-linecap:round; stroke-linejoin:round; stroke-width:4; stroke-opacity:1; fill:none" points="1302.88,403.591 1302.88,1375.05 1499.02,1375.05 1499.02,403.591 1302.88,403.591 "/>
<path clip-path="url(#clip592)" d="M1548.06 1000.75 L1548.06 1375.05 L1744.21 1375.05 L1744.21 1000.75 L1548.06 1000.75 L1548.06 1000.75  Z" fill="#009af9" fill-rule="evenodd" fill-opacity="1"/>
<polyline clip-path="url(#clip592)" style="stroke:#000000; stroke-linecap:round; stroke-linejoin:round; stroke-width:4; stroke-opacity:1; fill:none" points="1548.06,1000.75 1548.06,1375.05 1744.21,1375.05 1744.21,1000.75 1548.06,1000.75 "/>
<path clip-path="url(#clip592)" d="M1793.24 1117.8 L1793.24 1375.05 L1989.39 1375.05 L1989.39 1117.8 L1793.24 1117.8 L1793.24 1117.8  Z" fill="#009af9" fill-rule="evenodd" fill-opacity="1"/>
<polyline clip-path="url(#clip592)" style="stroke:#000000; stroke-linecap:round; stroke-linejoin:round; stroke-width:4; stroke-opacity:1; fill:none" points="1793.24,1117.8 1793.24,1375.05 1989.39,1375.05 1989.39,1117.8 1793.24,1117.8 "/>
<path clip-path="url(#clip592)" d="M2038.42 1339.35 L2038.42 1375.05 L2234.57 1375.05 L2234.57 1339.35 L2038.42 1339.35 L2038.42 1339.35  Z" fill="#009af9" fill-rule="evenodd" fill-opacity="1"/>
<polyline clip-path="url(#clip592)" style="stroke:#000000; stroke-linecap:round; stroke-linejoin:round; stroke-width:4; stroke-opacity:1; fill:none" points="2038.42,1339.35 2038.42,1375.05 2234.57,1375.05 2234.57,1339.35 2038.42,1339.35 "/>
<circle clip-path="url(#clip592)" style="fill:#009af9; stroke:none; fill-opacity:0" cx="420.224" cy="753.045" r="2"/>
<circle clip-path="url(#clip592)" style="fill:#009af9; stroke:none; fill-opacity:0" cx="665.405" cy="183.952" r="2"/>
<circle clip-path="url(#clip592)" style="fill:#009af9; stroke:none; fill-opacity:0" cx="910.587" cy="1294.67" r="2"/>
<circle clip-path="url(#clip592)" style="fill:#009af9; stroke:none; fill-opacity:0" cx="1155.77" cy="939.411" r="2"/>
<circle clip-path="url(#clip592)" style="fill:#009af9; stroke:none; fill-opacity:0" cx="1400.95" cy="403.591" r="2"/>
<circle clip-path="url(#clip592)" style="fill:#009af9; stroke:none; fill-opacity:0" cx="1646.13" cy="1000.75" r="2"/>
<circle clip-path="url(#clip592)" style="fill:#009af9; stroke:none; fill-opacity:0" cx="1891.31" cy="1117.8" r="2"/>
<circle clip-path="url(#clip592)" style="fill:#009af9; stroke:none; fill-opacity:0" cx="2136.5" cy="1339.35" r="2"/>
</svg>
