<?xml version="1.0" encoding="utf-8"?>
<svg xmlns="http://www.w3.org/2000/svg" xmlns:xlink="http://www.w3.org/1999/xlink" width="600" height="400" viewBox="0 0 2400 1600">
<defs>
  <clipPath id="clip080">
    <rect x="0" y="0" width="2400" height="1600"/>
  </clipPath>
</defs>
<path clip-path="url(#clip080)" d="M0 1600 L2400 1600 L2400 0 L0 0  Z" fill="#ffffff" fill-rule="evenodd" fill-opacity="1"/>
<defs>
  <clipPath id="clip081">
    <rect x="480" y="0" width="1681" height="1600"/>
  </clipPath>
</defs>
<path clip-path="url(#clip080)" d="M203.964 1358.74 L2352.76 1358.74 L2352.76 183.952 L203.964 183.952  Z" fill="#ffffff" fill-rule="evenodd" fill-opacity="1"/>
<defs>
  <clipPath id="clip082">
    <rect x="203" y="183" width="2150" height="1176"/>
  </clipPath>
</defs>
<polyline clip-path="url(#clip082)" style="stroke:#000000; stroke-linecap:round; stroke-linejoin:round; stroke-width:2; stroke-opacity:0.1; fill:none" points="362.841,1358.74 362.841,183.952 "/>
<polyline clip-path="url(#clip082)" style="stroke:#000000; stroke-linecap:round; stroke-linejoin:round; stroke-width:2; stroke-opacity:0.1; fill:none" points="464.565,1358.74 464.565,183.952 "/>
<polyline clip-path="url(#clip082)" style="stroke:#000000; stroke-linecap:round; stroke-linejoin:round; stroke-width:2; stroke-opacity:0.1; fill:none" points="566.289,1358.74 566.289,183.952 "/>
<polyline clip-path="url(#clip082)" style="stroke:#000000; stroke-linecap:round; stroke-linejoin:round; stroke-width:2; stroke-opacity:0.1; fill:none" points="668.014,1358.74 668.014,183.952 "/>
<polyline clip-path="url(#clip082)" style="stroke:#000000; stroke-linecap:round; stroke-linejoin:round; stroke-width:2; stroke-opacity:0.1; fill:none" points="769.738,1358.74 769.738,183.952 "/>
<polyline clip-path="url(#clip082)" style="stroke:#000000; stroke-linecap:round; stroke-linejoin:round; stroke-width:2; stroke-opacity:0.1; fill:none" points="871.462,1358.74 871.462,183.952 "/>
<polyline clip-path="url(#clip082)" style="stroke:#000000; stroke-linecap:round; stroke-linejoin:round; stroke-width:2; stroke-opacity:0.1; fill:none" points="973.187,1358.74 973.187,183.952 "/>
<polyline clip-path="url(#clip082)" style="stroke:#000000; stroke-linecap:round; stroke-linejoin:round; stroke-width:2; stroke-opacity:0.1; fill:none" points="1074.91,1358.74 1074.91,183.952 "/>
<polyline clip-path="url(#clip082)" style="stroke:#000000; stroke-linecap:round; stroke-linejoin:round; stroke-width:2; stroke-opacity:0.1; fill:none" points="1176.64,1358.74 1176.64,183.952 "/>
<polyline clip-path="url(#clip082)" style="stroke:#000000; stroke-linecap:round; stroke-linejoin:round; stroke-width:2; stroke-opacity:0.1; fill:none" points="1278.36,1358.74 1278.36,183.952 "/>
<polyline clip-path="url(#clip082)" style="stroke:#000000; stroke-linecap:round; stroke-linejoin:round; stroke-width:2; stroke-opacity:0.1; fill:none" points="1380.08,1358.74 1380.08,183.952 "/>
<polyline clip-path="url(#clip082)" style="stroke:#000000; stroke-linecap:round; stroke-linejoin:round; stroke-width:2; stroke-opacity:0.1; fill:none" points="1481.81,1358.74 1481.81,183.952 "/>
<polyline clip-path="url(#clip082)" style="stroke:#000000; stroke-linecap:round; stroke-linejoin:round; stroke-width:2; stroke-opacity:0.1; fill:none" points="1583.53,1358.74 1583.53,183.952 "/>
<polyline clip-path="url(#clip082)" style="stroke:#000000; stroke-linecap:round; stroke-linejoin:round; stroke-width:2; stroke-opacity:0.1; fill:none" points="1685.26,1358.74 1685.26,183.952 "/>
<polyline clip-path="url(#clip082)" style="stroke:#000000; stroke-linecap:round; stroke-linejoin:round; stroke-width:2; stroke-opacity:0.1; fill:none" points="1786.98,1358.74 1786.98,183.952 "/>
<polyline clip-path="url(#clip082)" style="stroke:#000000; stroke-linecap:round; stroke-linejoin:round; stroke-width:2; stroke-opacity:0.1; fill:none" points="1888.71,1358.74 1888.71,183.952 "/>
<polyline clip-path="url(#clip082)" style="stroke:#000000; stroke-linecap:round; stroke-linejoin:round; stroke-width:2; stroke-opacity:0.1; fill:none" points="1990.43,1358.74 1990.43,183.952 "/>
<polyline clip-path="url(#clip082)" style="stroke:#000000; stroke-linecap:round; stroke-linejoin:round; stroke-width:2; stroke-opacity:0.1; fill:none" points="2092.15,1358.74 2092.15,183.952 "/>
<polyline clip-path="url(#clip082)" style="stroke:#000000; stroke-linecap:round; stroke-linejoin:round; stroke-width:2; stroke-opacity:0.1; fill:none" points="2193.88,1358.74 2193.88,183.952 "/>
<polyline clip-path="url(#clip080)" style="stroke:#000000; stroke-linecap:round; stroke-linejoin:round; stroke-width:4; stroke-opacity:1; fill:none" points="203.964,1358.74 2352.76,1358.74 "/>
<polyline clip-path="url(#clip080)" style="stroke:#000000; stroke-linecap:round; stroke-linejoin:round; stroke-width:4; stroke-opacity:1; fill:none" points="362.841,1358.74 362.841,1339.84 "/>
<polyline clip-path="url(#clip080)" style="stroke:#000000; stroke-linecap:round; stroke-linejoin:round; stroke-width:4; stroke-opacity:1; fill:none" points="464.565,1358.74 464.565,1339.84 "/>
<polyline clip-path="url(#clip080)" style="stroke:#000000; stroke-linecap:round; stroke-linejoin:round; stroke-width:4; stroke-opacity:1; fill:none" points="566.289,1358.74 566.289,1339.84 "/>
<polyline clip-path="url(#clip080)" style="stroke:#000000; stroke-linecap:round; stroke-linejoin:round; stroke-width:4; stroke-opacity:1; fill:none" points="668.014,1358.74 668.014,1339.84 "/>
<polyline clip-path="url(#clip080)" style="stroke:#000000; stroke-linecap:round; stroke-linejoin:round; stroke-width:4; stroke-opacity:1; fill:none" points="769.738,1358.74 769.738,1339.84 "/>
<polyline clip-path="url(#clip080)" style="stroke:#000000; stroke-linecap:round; stroke-linejoin:round; stroke-width:4; stroke-opacity:1; fill:none" points="871.462,1358.74 871.462,1339.84 "/>
<polyline clip-path="url(#clip080)" style="stroke:#000000; stroke-linecap:round; stroke-linejoin:round; stroke-width:4; stroke-opacity:1; fill:none" points="973.187,1358.74 973.187,1339.84 "/>
<polyline clip-path="url(#clip080)" style="stroke:#000000; stroke-linecap:round; stroke-linejoin:round; stroke-width:4; stroke-opacity:1; fill:none" points="1074.91,1358.74 1074.91,1339.84 "/>
<polyline clip-path="url(#clip080)" style="stroke:#000000; stroke-linecap:round; stroke-linejoin:round; stroke-width:4; stroke-opacity:1; fill:none" points="1176.64,1358.74 1176.64,1339.84 "/>
<polyline clip-path="url(#clip080)" style="stroke:#000000; stroke-linecap:round; stroke-linejoin:round; stroke-width:4; stroke-opacity:1; fill:none" points="1278.36,1358.74 1278.36,1339.84 "/>
<polyline clip-path="url(#clip080)" style="stroke:#000000; stroke-linecap:round; stroke-linejoin:round; stroke-width:4; stroke-opacity:1; fill:none" points="1380.08,1358.74 1380.08,1339.84 "/>
<polyline clip-path="url(#clip080)" style="stroke:#000000; stroke-linecap:round; stroke-linejoin:round; stroke-width:4; stroke-opacity:1; fill:none" points="1481.81,1358.74 1481.81,1339.84 "/>
<polyline clip-path="url(#clip080)" style="stroke:#000000; stroke-linecap:round; stroke-linejoin:round; stroke-width:4; stroke-opacity:1; fill:none" points="1583.53,1358.74 1583.53,1339.84 "/>
<polyline clip-path="url(#clip080)" style="stroke:#000000; stroke-linecap:round; stroke-linejoin:round; stroke-width:4; stroke-opacity:1; fill:none" points="1685.26,1358.74 1685.26,1339.84 "/>
<polyline clip-path="url(#clip080)" style="stroke:#000000; stroke-linecap:round; stroke-linejoin:round; stroke-width:4; stroke-opacity:1; fill:none" points="1786.98,1358.74 1786.98,1339.84 "/>
<polyline clip-path="url(#clip080)" style="stroke:#000000; stroke-linecap:round; stroke-linejoin:round; stroke-width:4; stroke-opacity:1; fill:none" points="1888.71,1358.74 1888.71,1339.84 "/>
<polyline clip-path="url(#clip080)" style="stroke:#000000; stroke-linecap:round; stroke-linejoin:round; stroke-width:4; stroke-opacity:1; fill:none" points="1990.43,1358.74 1990.43,1339.84 "/>
<polyline clip-path="url(#clip080)" style="stroke:#000000; stroke-linecap:round; stroke-linejoin:round; stroke-width:4; stroke-opacity:1; fill:none" points="2092.15,1358.74 2092.15,1339.84 "/>
<polyline clip-path="url(#clip080)" style="stroke:#000000; stroke-linecap:round; stroke-linejoin:round; stroke-width:4; stroke-opacity:1; fill:none" points="2193.88,1358.74 2193.88,1339.84 "/>
<path clip-path="url(#clip080)" d="M315.538 1497.52 L307.5 1492.88 L303.68 1499.5 L300.352 1497.58 L306.487 1486.95 L319.337 1494.37 Q319.646 1497.68 318.876 1501 Q318.086 1504.32 316.235 1507.52 Q312.184 1514.54 305.802 1516.15 Q299.413 1517.72 292.096 1513.5 Q284.759 1509.26 282.949 1502.95 Q281.131 1496.61 285.182 1489.59 Q286.872 1486.67 289.11 1484.46 Q291.359 1482.23 294.047 1480.81 L298.357 1483.3 Q295.157 1484.45 292.736 1486.42 Q290.315 1488.39 288.707 1491.17 Q285.535 1496.67 287.005 1501.21 Q288.487 1505.72 294.561 1509.23 Q300.615 1512.72 305.268 1511.75 Q309.932 1510.75 313.104 1505.26 Q314.342 1503.12 314.953 1501.22 Q315.545 1499.32 315.538 1497.52 Z" fill="#000000" fill-rule="nonzero" fill-opacity="1" /><path clip-path="url(#clip080)" d="M306.224 1460.74 Q303.678 1465.15 305.461 1469.66 Q307.256 1474.14 312.929 1477.42 Q318.582 1480.68 323.363 1479.99 Q328.155 1479.28 330.701 1474.87 Q333.248 1470.46 331.441 1466 Q329.647 1461.51 323.994 1458.25 Q318.32 1454.97 313.54 1455.66 Q308.771 1456.33 306.224 1460.74 M302.937 1458.84 Q306.571 1452.55 312.977 1451.22 Q319.362 1449.88 326.459 1453.98 Q333.535 1458.07 335.589 1464.28 Q337.623 1470.48 333.989 1476.77 Q330.343 1483.09 323.946 1484.44 Q317.56 1485.78 310.464 1481.68 Q303.367 1477.59 301.333 1471.39 Q299.291 1465.16 302.937 1458.84 Z" fill="#000000" fill-rule="nonzero" fill-opacity="1" /><path clip-path="url(#clip080)" d="M324.882 1428.43 Q322.335 1432.84 324.118 1437.34 Q325.913 1441.82 331.586 1445.1 Q337.239 1448.36 342.02 1447.68 Q346.812 1446.97 349.359 1442.56 Q351.905 1438.15 350.099 1433.68 Q348.304 1429.2 342.651 1425.93 Q336.978 1422.66 332.197 1423.35 Q327.428 1424.02 324.882 1428.43 M321.594 1426.53 Q325.228 1420.23 331.634 1418.91 Q338.02 1417.57 345.116 1421.66 Q352.193 1425.75 354.247 1431.96 Q356.281 1438.16 352.646 1444.46 Q349.001 1450.77 342.603 1452.13 Q336.218 1453.47 329.121 1449.37 Q322.024 1445.27 319.99 1439.07 Q317.948 1432.84 321.594 1426.53 Z" fill="#000000" fill-rule="nonzero" fill-opacity="1" /><path clip-path="url(#clip080)" d="M371.221 1401.08 L363.182 1396.44 L359.363 1403.05 L356.035 1401.13 L362.169 1390.51 L375.019 1397.93 Q375.329 1401.23 374.559 1404.56 Q373.769 1407.87 371.917 1411.08 Q367.866 1418.09 361.485 1419.7 Q355.095 1421.28 347.778 1417.05 Q340.441 1412.82 338.632 1406.51 Q336.814 1400.17 340.865 1393.15 Q342.554 1390.22 344.792 1388.01 Q347.042 1385.78 349.73 1384.37 L354.04 1386.86 Q350.839 1388 348.419 1389.97 Q345.998 1391.94 344.389 1394.73 Q341.218 1400.22 342.688 1404.76 Q344.169 1409.28 350.244 1412.78 Q356.298 1416.28 360.95 1415.3 Q365.615 1414.31 368.786 1408.82 Q370.025 1406.67 370.636 1404.78 Q371.227 1402.87 371.221 1401.08 Z" fill="#000000" fill-rule="nonzero" fill-opacity="1" /><path clip-path="url(#clip080)" d="M392.687 1490.05 L404.41 1504.14 L410.765 1493.13 L392.687 1490.05 M387.378 1490.03 L390.029 1485.44 L426.544 1491.31 L424.114 1495.52 L414.862 1493.81 L407.072 1507.3 L413.176 1514.46 L410.711 1518.73 L387.378 1490.03 Z" fill="#000000" fill-rule="nonzero" fill-opacity="1" /><path clip-path="url(#clip080)" d="M399.137 1469.66 L402.621 1463.63 L427.398 1467.75 L411.464 1448.31 L414.948 1442.28 L444.877 1459.56 L442.597 1463.51 L416.316 1448.33 L432.388 1467.9 L430.038 1471.97 L405.054 1467.84 L431.336 1483.01 L429.067 1486.94 L399.137 1469.66 Z" fill="#000000" fill-rule="nonzero" fill-opacity="1" /><path clip-path="url(#clip080)" d="M434.834 1413.16 L439.104 1415.62 Q436.019 1416.57 433.734 1418.35 Q431.461 1420.11 429.956 1422.72 Q426.993 1427.85 428.567 1432.39 Q430.12 1436.92 436.054 1440.35 Q441.967 1443.76 446.689 1442.85 Q451.39 1441.93 454.353 1436.8 Q455.858 1434.19 456.247 1431.35 Q456.647 1428.48 455.923 1425.33 L460.153 1427.77 Q460.369 1430.73 459.714 1433.53 Q459.07 1436.32 457.542 1438.96 Q453.618 1445.76 447.212 1447.27 Q440.785 1448.77 433.588 1444.62 Q426.371 1440.45 424.479 1434.15 Q422.566 1427.83 426.49 1421.03 Q428.04 1418.35 430.128 1416.4 Q432.207 1414.42 434.834 1413.16 Z" fill="#000000" fill-rule="nonzero" fill-opacity="1" /><path clip-path="url(#clip080)" d="M460.231 1400.56 Q461.424 1399.51 463.574 1399.12 Q465.735 1398.71 468.978 1398.92 L479.53 1399.54 L477.018 1403.89 L467.13 1403.28 Q463.266 1403.03 461.474 1403.87 Q459.693 1404.68 458.304 1407.09 L455.758 1411.5 L468.407 1418.8 L466.069 1422.85 L436.14 1405.57 L441.417 1396.43 Q444.38 1391.3 447.984 1390.01 Q451.587 1388.72 455.917 1391.22 Q458.744 1392.85 459.844 1395.25 Q460.956 1397.63 460.231 1400.56 M441.805 1403.44 L452.43 1409.58 L455.37 1404.48 Q457.06 1401.56 456.573 1399.3 Q456.078 1397.01 453.452 1395.49 Q450.826 1393.98 448.634 1394.72 Q446.435 1395.42 444.745 1398.35 L441.805 1403.44 Z" fill="#000000" fill-rule="nonzero" fill-opacity="1" /><path clip-path="url(#clip080)" d="M492.976 1492.53 L504.7 1506.62 L511.054 1495.62 L492.976 1492.53 M487.667 1492.51 L490.318 1487.92 L526.833 1493.8 L524.403 1498.01 L515.151 1496.3 L507.361 1509.79 L513.465 1516.95 L511 1521.22 L487.667 1492.51 Z" fill="#000000" fill-rule="nonzero" fill-opacity="1" /><path clip-path="url(#clip080)" d="M499.427 1472.15 L502.91 1466.11 L527.688 1470.23 L511.753 1450.8 L515.237 1444.76 L545.167 1462.04 L542.886 1465.99 L516.605 1450.82 L532.677 1470.39 L530.328 1474.46 L505.344 1470.32 L531.625 1485.5 L529.356 1489.43 L499.427 1472.15 Z" fill="#000000" fill-rule="nonzero" fill-opacity="1" /><path clip-path="url(#clip080)" d="M557.32 1431.13 L549.281 1426.49 L545.462 1433.1 L542.134 1431.18 L548.268 1420.56 L561.118 1427.98 Q561.428 1431.28 560.658 1434.61 Q559.868 1437.92 558.016 1441.13 Q553.965 1448.14 547.584 1449.75 Q541.195 1451.33 533.877 1447.1 Q526.54 1442.87 524.731 1436.56 Q522.913 1430.22 526.964 1423.2 Q528.654 1420.27 530.892 1418.06 Q533.141 1415.83 535.829 1414.42 L540.139 1416.91 Q536.938 1418.05 534.518 1420.02 Q532.097 1421.99 530.488 1424.78 Q527.317 1430.27 528.787 1434.81 Q530.269 1439.33 536.343 1442.83 Q542.397 1446.33 547.05 1445.35 Q551.714 1444.36 554.885 1438.87 Q556.124 1436.72 556.735 1434.83 Q557.326 1432.92 557.32 1431.13 Z" fill="#000000" fill-rule="nonzero" fill-opacity="1" /><path clip-path="url(#clip080)" d="M538.246 1404.91 L541.394 1399.46 L574.094 1400.64 L549.056 1386.18 L551.324 1382.26 L581.254 1399.54 L578.106 1404.99 L545.406 1403.8 L570.444 1418.26 L568.176 1422.19 L538.246 1404.91 Z" fill="#000000" fill-rule="nonzero" fill-opacity="1" /><path clip-path="url(#clip080)" d="M625.511 1439.17 L637.234 1453.26 L643.588 1442.25 L625.511 1439.17 M620.202 1439.15 L622.852 1434.56 L659.368 1440.43 L656.937 1444.64 L647.685 1442.93 L639.896 1456.43 L646 1463.59 L643.534 1467.86 L620.202 1439.15 Z" fill="#000000" fill-rule="nonzero" fill-opacity="1" /><path clip-path="url(#clip080)" d="M631.961 1418.78 L634.299 1414.73 L662.144 1430.81 Q667.557 1433.93 668.81 1437.41 Q670.075 1440.87 667.448 1445.42 L666.557 1446.96 L663.149 1444.99 L663.878 1443.73 Q665.429 1441.04 664.562 1439.07 Q663.695 1437.1 659.806 1434.86 L631.961 1418.78 Z" fill="#000000" fill-rule="nonzero" fill-opacity="1" /><path clip-path="url(#clip080)" d="M676.394 1401.08 L668.355 1396.44 L664.536 1403.05 L661.208 1401.13 L667.342 1390.51 L680.192 1397.93 Q680.502 1401.23 679.732 1404.56 Q678.942 1407.87 677.09 1411.08 Q673.039 1418.09 666.658 1419.7 Q660.268 1421.28 652.951 1417.05 Q645.614 1412.82 643.805 1406.51 Q641.987 1400.17 646.038 1393.15 Q647.727 1390.22 649.965 1388.01 Q652.215 1385.78 654.903 1384.37 L659.213 1386.86 Q656.012 1388 653.592 1389.97 Q651.171 1391.94 649.562 1394.73 Q646.391 1400.22 647.861 1404.76 Q649.342 1409.28 655.417 1412.78 Q661.471 1416.28 666.123 1415.3 Q670.788 1414.31 673.959 1408.82 Q675.198 1406.67 675.809 1404.78 Q676.4 1402.87 676.394 1401.08 Z" fill="#000000" fill-rule="nonzero" fill-opacity="1" /><path clip-path="url(#clip080)" d="M700.256 1485.9 L711.979 1499.99 L718.333 1488.98 L700.256 1485.9 M694.947 1485.88 L697.598 1481.29 L734.113 1487.16 L731.682 1491.37 L722.43 1489.66 L714.641 1503.16 L720.745 1510.31 L718.28 1514.58 L694.947 1485.88 Z" fill="#000000" fill-rule="nonzero" fill-opacity="1" /><path clip-path="url(#clip080)" d="M739.576 1477.7 L703.049 1471.84 L705.491 1467.61 L736.164 1472.68 L716.452 1448.63 L718.882 1444.42 L742.226 1473.11 L739.576 1477.7 Z" fill="#000000" fill-rule="nonzero" fill-opacity="1" /><path clip-path="url(#clip080)" d="M758.847 1434.46 L750.809 1429.82 L746.989 1436.43 L743.662 1434.51 L749.796 1423.89 L762.646 1431.3 Q762.955 1434.61 762.186 1437.94 Q761.396 1441.25 759.544 1444.46 Q755.493 1451.47 749.112 1453.08 Q742.722 1454.66 735.405 1450.43 Q728.068 1446.2 726.258 1439.89 Q724.44 1433.54 728.491 1426.53 Q730.181 1423.6 732.419 1421.39 Q734.668 1419.16 737.356 1417.75 L741.666 1420.23 Q738.466 1421.38 736.045 1423.35 Q733.625 1425.32 732.016 1428.11 Q728.845 1433.6 730.314 1438.14 Q731.796 1442.66 737.87 1446.16 Q743.924 1449.66 748.577 1448.68 Q753.241 1447.69 756.413 1442.19 Q757.651 1440.05 758.263 1438.16 Q758.854 1436.25 758.847 1434.46 Z" fill="#000000" fill-rule="nonzero" fill-opacity="1" /><path clip-path="url(#clip080)" d="M749.533 1397.67 Q746.987 1402.08 748.77 1406.59 Q750.565 1411.07 756.238 1414.35 Q761.891 1417.61 766.672 1416.92 Q771.464 1416.22 774.011 1411.81 Q776.557 1407.4 774.751 1402.93 Q772.956 1398.45 767.303 1395.18 Q761.63 1391.91 756.849 1392.6 Q752.08 1393.26 749.533 1397.67 M746.246 1395.78 Q749.88 1389.48 756.286 1388.15 Q762.672 1386.82 769.768 1390.91 Q776.845 1395 778.899 1401.21 Q780.933 1407.41 777.298 1413.7 Q773.652 1420.02 767.255 1421.38 Q760.869 1422.72 753.773 1418.62 Q746.676 1414.52 744.642 1408.32 Q742.6 1402.09 746.246 1395.78 Z" fill="#000000" fill-rule="nonzero" fill-opacity="1" /><path clip-path="url(#clip080)" d="M844.53 1439.1 L855.496 1445.43 L859.246 1438.93 Q861.132 1435.66 860.692 1433.32 Q860.243 1430.95 857.456 1429.34 Q854.65 1427.72 852.412 1428.54 Q850.166 1429.33 848.28 1432.6 L844.53 1439.1 M832.221 1431.99 L841.242 1437.2 L844.703 1431.2 Q846.416 1428.24 846.147 1426.16 Q845.869 1424.04 843.584 1422.73 Q841.318 1421.42 839.351 1422.23 Q837.395 1423.03 835.682 1425.99 L832.221 1431.99 M826.556 1434.12 L832.528 1423.77 Q835.201 1419.14 838.573 1417.75 Q841.944 1416.35 845.492 1418.4 Q848.238 1419.99 849.122 1422.21 Q850.005 1424.43 848.97 1427.14 Q851.336 1424.53 854.33 1424.07 Q857.316 1423.57 860.363 1425.33 Q864.372 1427.64 864.983 1431.63 Q865.594 1435.62 862.689 1440.65 L856.485 1451.4 L826.556 1434.12 Z" fill="#000000" fill-rule="nonzero" fill-opacity="1" /><path clip-path="url(#clip080)" d="M879.843 1401.08 L871.804 1396.44 L867.984 1403.05 L864.657 1401.13 L870.791 1390.51 L883.641 1397.93 Q883.951 1401.23 883.181 1404.56 Q882.391 1407.87 880.539 1411.08 Q876.488 1418.09 870.107 1419.7 Q863.717 1421.28 856.4 1417.05 Q849.063 1412.82 847.253 1406.51 Q845.435 1400.17 849.486 1393.15 Q851.176 1390.22 853.414 1388.01 Q855.663 1385.78 858.351 1384.37 L862.662 1386.86 Q859.461 1388 857.04 1389.97 Q854.62 1391.94 853.011 1394.73 Q849.84 1400.22 851.31 1404.76 Q852.791 1409.28 858.865 1412.78 Q864.919 1416.28 869.572 1415.3 Q874.237 1414.31 877.408 1408.82 Q878.646 1406.67 879.258 1404.78 Q879.849 1402.87 879.843 1401.08 Z" fill="#000000" fill-rule="nonzero" fill-opacity="1" /><path clip-path="url(#clip080)" d="M930.365 1435.83 L934.635 1438.29 Q931.55 1439.24 929.266 1441.02 Q926.992 1442.78 925.488 1445.39 Q922.525 1450.52 924.098 1455.06 Q925.651 1459.6 931.585 1463.02 Q937.499 1466.44 942.22 1465.53 Q946.922 1464.61 949.885 1459.47 Q951.389 1456.87 951.778 1454.02 Q952.178 1451.15 951.455 1448 L955.684 1450.45 Q955.901 1453.4 955.245 1456.21 Q954.601 1458.99 953.073 1461.64 Q949.15 1468.43 942.743 1469.94 Q936.317 1471.45 929.12 1467.29 Q921.903 1463.12 920.01 1456.82 Q918.097 1450.5 922.021 1443.71 Q923.572 1441.02 925.659 1439.07 Q927.738 1437.09 930.365 1435.83 Z" fill="#000000" fill-rule="nonzero" fill-opacity="1" /><path clip-path="url(#clip080)" d="M937.337 1426.11 L948.583 1432.61 L951.523 1427.52 Q953.155 1424.69 952.583 1422.3 Q952.01 1419.91 949.304 1418.35 Q946.618 1416.8 944.263 1417.5 Q941.908 1418.2 940.277 1421.02 L937.337 1426.11 M931.671 1428.24 L936.949 1419.1 Q939.854 1414.07 943.621 1412.82 Q947.379 1411.55 951.769 1414.08 Q956.2 1416.64 956.972 1420.53 Q957.756 1424.41 954.851 1429.44 L951.911 1434.53 L963.939 1441.47 L961.601 1445.52 L931.671 1428.24 Z" fill="#000000" fill-rule="nonzero" fill-opacity="1" /><path clip-path="url(#clip080)" d="M963.939 1408.46 L974.905 1414.79 L978.655 1408.3 Q980.541 1405.03 980.101 1402.69 Q979.652 1400.32 976.866 1398.71 Q974.059 1397.09 971.822 1397.91 Q969.576 1398.7 967.689 1401.97 L963.939 1408.46 M951.631 1401.36 L960.652 1406.57 L964.112 1400.57 Q965.825 1397.6 965.556 1395.52 Q965.278 1393.41 962.993 1392.09 Q960.728 1390.79 958.76 1391.6 Q956.804 1392.4 955.091 1395.36 L951.631 1401.36 M945.965 1403.49 L951.937 1393.14 Q954.611 1388.51 957.982 1387.12 Q961.353 1385.72 964.901 1387.77 Q967.648 1389.36 968.531 1391.58 Q969.414 1393.8 968.38 1396.51 Q970.746 1393.9 973.74 1393.43 Q976.725 1392.94 979.772 1394.7 Q983.781 1397.01 984.392 1401 Q985.004 1404.99 982.098 1410.02 L975.895 1420.77 L945.965 1403.49 Z" fill="#000000" fill-rule="nonzero" fill-opacity="1" /><path clip-path="url(#clip080)" d="M1013 1468.89 L1017.27 1471.35 Q1014.19 1472.3 1011.9 1474.08 Q1009.63 1475.84 1008.13 1478.45 Q1005.16 1483.58 1006.74 1488.12 Q1008.29 1492.65 1014.22 1496.08 Q1020.14 1499.49 1024.86 1498.58 Q1029.56 1497.66 1032.52 1492.53 Q1034.03 1489.92 1034.42 1487.08 Q1034.82 1484.21 1034.09 1481.06 L1038.32 1483.5 Q1038.54 1486.46 1037.88 1489.26 Q1037.24 1492.05 1035.71 1494.69 Q1031.79 1501.49 1025.38 1503 Q1018.96 1504.5 1011.76 1500.35 Q1004.54 1496.18 1002.65 1489.88 Q1000.74 1483.56 1004.66 1476.76 Q1006.21 1474.08 1008.3 1472.13 Q1010.38 1470.15 1013 1468.89 Z" fill="#000000" fill-rule="nonzero" fill-opacity="1" /><path clip-path="url(#clip080)" d="M1032.28 1466.28 L1043.25 1472.61 L1047 1466.11 Q1048.89 1462.85 1048.45 1460.51 Q1048 1458.14 1045.21 1456.53 Q1042.4 1454.91 1040.17 1455.73 Q1037.92 1456.52 1036.03 1459.78 L1032.28 1466.28 M1019.98 1459.17 L1029 1464.38 L1032.46 1458.39 Q1034.17 1455.42 1033.9 1453.34 Q1033.62 1451.23 1031.34 1449.91 Q1029.07 1448.6 1027.11 1449.42 Q1025.15 1450.21 1023.44 1453.18 L1019.98 1459.17 M1014.31 1461.3 L1020.28 1450.96 Q1022.96 1446.33 1026.33 1444.93 Q1029.7 1443.54 1033.25 1445.58 Q1035.99 1447.17 1036.88 1449.39 Q1037.76 1451.61 1036.72 1454.33 Q1039.09 1451.71 1042.08 1451.25 Q1045.07 1450.75 1048.12 1452.51 Q1052.13 1454.83 1052.74 1458.82 Q1053.35 1462.8 1050.44 1467.84 L1044.24 1478.58 L1014.31 1461.3 Z" fill="#000000" fill-rule="nonzero" fill-opacity="1" /><path clip-path="url(#clip080)" d="M1039.91 1423.29 Q1037.37 1427.7 1039.15 1432.21 Q1040.95 1436.69 1046.62 1439.97 Q1052.27 1443.23 1057.05 1442.54 Q1061.85 1441.84 1064.39 1437.43 Q1066.94 1433.02 1065.13 1428.55 Q1063.34 1424.07 1057.68 1420.8 Q1052.01 1417.53 1047.23 1418.22 Q1042.46 1418.88 1039.91 1423.29 M1036.63 1421.4 Q1040.26 1415.1 1046.67 1413.77 Q1053.05 1412.44 1060.15 1416.53 Q1067.23 1420.62 1069.28 1426.83 Q1071.31 1433.03 1067.68 1439.32 Q1064.03 1445.64 1057.64 1447 Q1051.25 1448.33 1044.15 1444.24 Q1037.06 1440.14 1035.02 1433.94 Q1032.98 1427.71 1036.63 1421.4 Z" fill="#000000" fill-rule="nonzero" fill-opacity="1" /><path clip-path="url(#clip080)" d="M1048.81 1401.54 L1059.74 1382.62 L1063.15 1384.58 L1054.56 1399.46 L1063.42 1404.57 L1071.65 1390.32 L1075.06 1392.29 L1066.83 1406.54 L1077.67 1412.8 L1086.47 1397.57 L1089.88 1399.54 L1078.74 1418.82 L1048.81 1401.54 Z" fill="#000000" fill-rule="nonzero" fill-opacity="1" /><path clip-path="url(#clip080)" d="M1117.8 1465.93 L1141.07 1479.37 L1143.9 1474.47 Q1147.47 1468.28 1146.32 1463.79 Q1145.18 1459.29 1139.13 1455.79 Q1133.11 1452.32 1128.66 1453.6 Q1124.2 1454.84 1120.62 1461.04 L1117.8 1465.93 M1112.13 1468.06 L1116.94 1459.74 Q1121.96 1451.04 1127.94 1449.06 Q1133.9 1447.08 1141.59 1451.52 Q1149.33 1455.99 1150.6 1462.17 Q1151.87 1468.36 1146.87 1477.02 L1142.06 1485.34 L1112.13 1468.06 Z" fill="#000000" fill-rule="nonzero" fill-opacity="1" /><path clip-path="url(#clip080)" d="M1130.39 1436.44 L1132.72 1432.39 L1144.99 1439.48 L1153.49 1424.76 L1141.22 1417.68 L1143.56 1413.63 L1173.49 1430.91 L1171.15 1434.96 L1156.9 1426.73 L1148.4 1441.44 L1162.65 1449.67 L1160.32 1453.72 L1130.39 1436.44 Z" fill="#000000" fill-rule="nonzero" fill-opacity="1" /><path clip-path="url(#clip080)" d="M1172.3 1400.56 Q1173.49 1399.51 1175.64 1399.12 Q1177.81 1398.71 1181.05 1398.92 L1191.6 1399.54 L1189.09 1403.89 L1179.2 1403.28 Q1175.34 1403.03 1173.54 1403.87 Q1171.76 1404.68 1170.37 1407.09 L1167.83 1411.5 L1180.48 1418.8 L1178.14 1422.85 L1148.21 1405.57 L1153.49 1396.43 Q1156.45 1391.3 1160.05 1390.01 Q1163.66 1388.72 1167.99 1391.22 Q1170.81 1392.85 1171.91 1395.25 Q1173.03 1397.63 1172.3 1400.56 M1153.88 1403.44 L1164.5 1409.58 L1167.44 1404.48 Q1169.13 1401.56 1168.64 1399.3 Q1168.15 1397.01 1165.52 1395.49 Q1162.9 1393.98 1160.7 1394.72 Q1158.51 1395.42 1156.82 1398.35 L1153.88 1403.44 Z" fill="#000000" fill-rule="nonzero" fill-opacity="1" /><path clip-path="url(#clip080)" d="M1239.67 1431.03 L1262.95 1444.46 L1265.77 1439.57 Q1269.35 1433.38 1268.2 1428.89 Q1267.06 1424.38 1261 1420.89 Q1254.99 1417.42 1250.54 1418.69 Q1246.07 1419.94 1242.5 1426.14 L1239.67 1431.03 M1234.01 1433.15 L1238.81 1424.84 Q1243.83 1416.13 1249.81 1414.16 Q1255.77 1412.17 1263.47 1416.62 Q1271.21 1421.09 1272.47 1427.27 Q1273.74 1433.45 1268.74 1442.12 L1263.94 1450.43 L1234.01 1433.15 Z" fill="#000000" fill-rule="nonzero" fill-opacity="1" /><path clip-path="url(#clip080)" d="M1252.26 1401.54 L1263.19 1382.62 L1266.59 1384.58 L1258.01 1399.46 L1266.87 1404.57 L1275.1 1390.32 L1278.5 1392.29 L1270.28 1406.54 L1281.12 1412.8 L1289.92 1397.57 L1293.32 1399.54 L1282.19 1418.82 L1252.26 1401.54 Z" fill="#000000" fill-rule="nonzero" fill-opacity="1" /><path clip-path="url(#clip080)" d="M1338.44 1436.16 L1361.71 1449.6 L1364.53 1444.7 Q1368.11 1438.51 1366.96 1434.02 Q1365.82 1429.52 1359.76 1426.02 Q1353.75 1422.55 1349.3 1423.83 Q1344.84 1425.07 1341.26 1431.27 L1338.44 1436.16 M1332.77 1438.29 L1337.57 1429.97 Q1342.6 1421.27 1348.57 1419.29 Q1354.53 1417.31 1362.23 1421.75 Q1369.97 1426.22 1371.24 1432.4 Q1372.5 1438.59 1367.5 1447.25 L1362.7 1455.57 L1332.77 1438.29 Z" fill="#000000" fill-rule="nonzero" fill-opacity="1" /><path clip-path="url(#clip080)" d="M1388.46 1401.08 L1380.43 1396.44 L1376.61 1403.05 L1373.28 1401.13 L1379.41 1390.51 L1392.26 1397.93 Q1392.57 1401.23 1391.8 1404.56 Q1391.01 1407.87 1389.16 1411.08 Q1385.11 1418.09 1378.73 1419.7 Q1372.34 1421.28 1365.02 1417.05 Q1357.68 1412.82 1355.88 1406.51 Q1354.06 1400.17 1358.11 1393.15 Q1359.8 1390.22 1362.04 1388.01 Q1364.29 1385.78 1366.97 1384.37 L1371.28 1386.86 Q1368.08 1388 1365.66 1389.97 Q1363.24 1391.94 1361.63 1394.73 Q1358.46 1400.22 1359.93 1404.76 Q1361.41 1409.28 1367.49 1412.78 Q1373.54 1416.28 1378.19 1415.3 Q1382.86 1414.31 1386.03 1408.82 Q1387.27 1406.67 1387.88 1404.78 Q1388.47 1402.87 1388.46 1401.08 Z" fill="#000000" fill-rule="nonzero" fill-opacity="1" /><path clip-path="url(#clip080)" d="M1405.08 1489.23 L1416.01 1470.3 L1419.42 1472.27 L1410.83 1487.14 L1419.69 1492.26 L1427.92 1478.01 L1431.33 1479.97 L1423.1 1494.23 L1433.94 1500.49 L1442.74 1485.25 L1446.15 1487.22 L1435.01 1506.51 L1405.08 1489.23 Z" fill="#000000" fill-rule="nonzero" fill-opacity="1" /><path clip-path="url(#clip080)" d="M1454.45 1472.85 L1417.92 1466.99 L1420.36 1462.76 L1451.04 1467.83 L1431.32 1443.78 L1433.75 1439.57 L1457.1 1468.26 L1454.45 1472.85 Z" fill="#000000" fill-rule="nonzero" fill-opacity="1" /><path clip-path="url(#clip080)" d="M1460.37 1430.18 Q1461.56 1429.14 1463.71 1428.75 Q1465.87 1428.34 1469.12 1428.55 L1479.67 1429.16 L1477.16 1433.52 L1467.27 1432.91 Q1463.4 1432.66 1461.61 1433.49 Q1459.83 1434.31 1458.44 1436.72 L1455.89 1441.13 L1468.54 1448.43 L1466.21 1452.48 L1436.28 1435.2 L1441.55 1426.06 Q1444.52 1420.93 1448.12 1419.64 Q1451.72 1418.35 1456.05 1420.85 Q1458.88 1422.48 1459.98 1424.88 Q1461.09 1427.26 1460.37 1430.18 M1441.94 1433.07 L1452.57 1439.21 L1455.51 1434.11 Q1457.2 1431.19 1456.71 1428.93 Q1456.21 1426.64 1453.59 1425.12 Q1450.96 1423.6 1448.77 1424.34 Q1446.57 1425.05 1444.88 1427.98 L1441.94 1433.07 Z" fill="#000000" fill-rule="nonzero" fill-opacity="1" /><path clip-path="url(#clip080)" d="M1490.19 1401.08 L1482.15 1396.44 L1478.33 1403.05 L1475 1401.13 L1481.14 1390.51 L1493.99 1397.93 Q1494.3 1401.23 1493.53 1404.56 Q1492.74 1407.87 1490.88 1411.08 Q1486.83 1418.09 1480.45 1419.7 Q1474.06 1421.28 1466.75 1417.05 Q1459.41 1412.82 1457.6 1406.51 Q1455.78 1400.17 1459.83 1393.15 Q1461.52 1390.22 1463.76 1388.01 Q1466.01 1385.78 1468.7 1384.37 L1473.01 1386.86 Q1469.81 1388 1467.39 1389.97 Q1464.97 1391.94 1463.36 1394.73 Q1460.19 1400.22 1461.66 1404.76 Q1463.14 1409.28 1469.21 1412.78 Q1475.27 1416.28 1479.92 1415.3 Q1484.58 1414.31 1487.75 1408.82 Q1488.99 1406.67 1489.6 1404.78 Q1490.19 1402.87 1490.19 1401.08 Z" fill="#000000" fill-rule="nonzero" fill-opacity="1" /><path clip-path="url(#clip080)" d="M1508.53 1486.24 L1519.46 1467.31 L1522.87 1469.28 L1514.28 1484.16 L1523.14 1489.27 L1531.37 1475.02 L1534.78 1476.99 L1526.55 1491.24 L1537.39 1497.5 L1546.19 1482.27 L1549.6 1484.23 L1538.46 1503.52 L1508.53 1486.24 Z" fill="#000000" fill-rule="nonzero" fill-opacity="1" /><path clip-path="url(#clip080)" d="M1522.68 1461.74 L1525.19 1457.39 L1540.61 1456.38 L1533.8 1442.48 L1536.31 1438.13 L1545.13 1456.05 L1566.61 1454.76 L1564.1 1459.11 L1546.51 1460.18 L1554.34 1476.01 L1551.82 1480.38 L1542.01 1460.48 L1522.68 1461.74 Z" fill="#000000" fill-rule="nonzero" fill-opacity="1" /><path clip-path="url(#clip080)" d="M1545.41 1430.04 L1556.66 1436.54 L1559.6 1431.45 Q1561.23 1428.62 1560.66 1426.23 Q1560.09 1423.84 1557.38 1422.28 Q1554.7 1420.73 1552.34 1421.43 Q1549.99 1422.13 1548.35 1424.95 L1545.41 1430.04 M1539.75 1432.17 L1545.03 1423.03 Q1547.93 1418 1551.7 1416.75 Q1555.46 1415.47 1559.85 1418.01 Q1564.28 1420.57 1565.05 1424.46 Q1565.83 1428.33 1562.93 1433.37 L1559.99 1438.46 L1572.02 1445.4 L1569.68 1449.45 L1539.75 1432.17 Z" fill="#000000" fill-rule="nonzero" fill-opacity="1" /><path clip-path="url(#clip080)" d="M1559.71 1405.29 L1582.98 1418.72 L1585.81 1413.83 Q1589.38 1407.64 1588.23 1403.15 Q1587.09 1398.64 1581.04 1395.15 Q1575.02 1391.68 1570.57 1392.95 Q1566.11 1394.2 1562.53 1400.39 L1559.71 1405.29 M1554.04 1407.41 L1558.85 1399.1 Q1563.87 1390.39 1569.85 1388.42 Q1575.8 1386.43 1583.5 1390.88 Q1591.24 1395.35 1592.51 1401.53 Q1593.78 1407.71 1588.78 1416.38 L1583.97 1424.69 L1554.04 1407.41 Z" fill="#000000" fill-rule="nonzero" fill-opacity="1" /><path clip-path="url(#clip080)" d="M1625.62 1459.64 L1636.54 1440.71 L1639.95 1442.68 L1631.36 1457.55 L1640.22 1462.67 L1648.45 1448.42 L1651.86 1450.38 L1643.63 1464.64 L1654.48 1470.9 L1663.27 1455.66 L1666.68 1457.63 L1655.55 1476.92 L1625.62 1459.64 Z" fill="#000000" fill-rule="nonzero" fill-opacity="1" /><path clip-path="url(#clip080)" d="M1639.76 1435.14 L1642.27 1430.79 L1657.69 1429.78 L1650.88 1415.87 L1653.39 1411.52 L1662.21 1429.45 L1683.69 1428.16 L1681.18 1432.51 L1663.59 1433.58 L1671.43 1449.41 L1668.9 1453.78 L1659.09 1433.87 L1639.76 1435.14 Z" fill="#000000" fill-rule="nonzero" fill-opacity="1" /><path clip-path="url(#clip080)" d="M1680.92 1400.56 Q1682.12 1399.51 1684.27 1399.12 Q1686.43 1398.71 1689.67 1398.92 L1700.22 1399.54 L1697.71 1403.89 L1687.82 1403.28 Q1683.96 1403.03 1682.17 1403.87 Q1680.39 1404.68 1679 1407.09 L1676.45 1411.5 L1689.1 1418.8 L1686.76 1422.85 L1656.83 1405.57 L1662.11 1396.43 Q1665.07 1391.3 1668.68 1390.01 Q1672.28 1388.72 1676.61 1391.22 Q1679.44 1392.85 1680.54 1395.25 Q1681.65 1397.63 1680.92 1400.56 M1662.5 1403.44 L1673.12 1409.58 L1676.06 1404.48 Q1677.75 1401.56 1677.27 1399.3 Q1676.77 1397.01 1674.14 1395.49 Q1671.52 1393.98 1669.33 1394.72 Q1667.13 1395.42 1665.44 1398.35 L1662.5 1403.44 Z" fill="#000000" fill-rule="nonzero" fill-opacity="1" /><path clip-path="url(#clip080)" d="M1723.76 1465.83 L1726.1 1461.78 L1738.75 1469.08 L1733.86 1448.35 L1736.87 1443.14 L1742.24 1466.05 L1767.41 1459.36 L1764.33 1464.69 L1741.62 1470.74 L1756.03 1479.06 L1753.69 1483.11 L1723.76 1465.83 Z" fill="#000000" fill-rule="nonzero" fill-opacity="1" /><path clip-path="url(#clip080)" d="M1739.31 1438.91 L1742.79 1432.87 L1767.57 1437 L1751.63 1417.56 L1755.12 1411.52 L1785.05 1428.8 L1782.77 1432.75 L1756.49 1417.58 L1772.56 1437.15 L1770.21 1441.22 L1745.23 1437.09 L1771.51 1452.26 L1769.24 1456.19 L1739.31 1438.91 Z" fill="#000000" fill-rule="nonzero" fill-opacity="1" /><path clip-path="url(#clip080)" d="M1777.73 1408.46 L1788.7 1414.79 L1792.45 1408.3 Q1794.34 1405.03 1793.9 1402.69 Q1793.45 1400.32 1790.66 1398.71 Q1787.85 1397.09 1785.62 1397.91 Q1783.37 1398.7 1781.48 1401.97 L1777.73 1408.46 M1765.43 1401.36 L1774.45 1406.57 L1777.91 1400.57 Q1779.62 1397.6 1779.35 1395.52 Q1779.07 1393.41 1776.79 1392.09 Q1774.52 1390.79 1772.55 1391.6 Q1770.6 1392.4 1768.89 1395.36 L1765.43 1401.36 M1759.76 1403.49 L1765.73 1393.14 Q1768.41 1388.51 1771.78 1387.12 Q1775.15 1385.72 1778.7 1387.77 Q1781.44 1389.36 1782.33 1391.58 Q1783.21 1393.8 1782.17 1396.51 Q1784.54 1393.9 1787.53 1393.43 Q1790.52 1392.94 1793.57 1394.7 Q1797.58 1397.01 1798.19 1401 Q1798.8 1404.99 1795.89 1410.02 L1789.69 1420.77 L1759.76 1403.49 Z" fill="#000000" fill-rule="nonzero" fill-opacity="1" /><path clip-path="url(#clip080)" d="M1819.38 1476.42 L1821.72 1472.37 L1848.24 1487.68 L1856.65 1473.1 L1860.06 1475.07 L1849.31 1493.7 L1819.38 1476.42 Z" fill="#000000" fill-rule="nonzero" fill-opacity="1" /><path clip-path="url(#clip080)" d="M1831.14 1456.05 L1833.49 1451.98 L1851.67 1462.48 Q1856.48 1465.25 1859.61 1464.74 Q1862.72 1464.21 1864.98 1460.3 Q1867.23 1456.41 1866.13 1453.45 Q1865.01 1450.48 1860.2 1447.7 L1842.02 1437.2 L1844.37 1433.13 L1863.05 1443.92 Q1868.9 1447.3 1870.21 1451.93 Q1871.53 1456.54 1868.27 1462.2 Q1864.99 1467.87 1860.33 1469.05 Q1855.67 1470.21 1849.82 1466.83 L1831.14 1456.05 Z" fill="#000000" fill-rule="nonzero" fill-opacity="1" /><path clip-path="url(#clip080)" d="M1848.75 1425.54 L1851.09 1421.49 L1877.61 1436.8 L1886.03 1422.23 L1889.43 1424.19 L1878.68 1442.82 L1848.75 1425.54 Z" fill="#000000" fill-rule="nonzero" fill-opacity="1" /><path clip-path="url(#clip080)" d="M1860.51 1405.17 L1862.86 1401.1 L1881.04 1411.6 Q1885.85 1414.38 1888.99 1413.86 Q1892.1 1413.33 1894.36 1409.42 Q1896.6 1405.53 1895.5 1402.57 Q1894.38 1399.6 1889.57 1396.82 L1871.39 1386.33 L1873.74 1382.26 L1892.42 1393.04 Q1898.28 1396.42 1899.59 1401.05 Q1900.91 1405.66 1897.64 1411.32 Q1894.37 1416.99 1889.7 1418.17 Q1885.05 1419.34 1879.2 1415.96 L1860.51 1405.17 Z" fill="#000000" fill-rule="nonzero" fill-opacity="1" /><path clip-path="url(#clip080)" d="M1924.83 1469.96 L1928.31 1463.93 L1953.09 1468.05 L1937.16 1448.61 L1940.64 1442.58 L1970.57 1459.86 L1968.29 1463.81 L1942.01 1448.63 L1958.08 1468.2 L1955.73 1472.27 L1930.75 1468.14 L1957.03 1483.31 L1954.76 1487.24 L1924.83 1469.96 Z" fill="#000000" fill-rule="nonzero" fill-opacity="1" /><path clip-path="url(#clip080)" d="M1969.37 1429.52 Q1970.56 1428.47 1972.71 1428.08 Q1974.88 1427.68 1978.12 1427.89 L1988.67 1428.5 L1986.16 1432.85 L1976.27 1432.25 Q1972.41 1432 1970.61 1432.83 Q1968.83 1433.65 1967.44 1436.05 L1964.9 1440.47 L1977.55 1447.77 L1975.21 1451.82 L1945.28 1434.54 L1950.56 1425.4 Q1953.52 1420.26 1957.12 1418.98 Q1960.73 1417.69 1965.06 1420.19 Q1967.88 1421.82 1968.98 1424.22 Q1970.1 1426.6 1969.37 1429.52 M1950.95 1432.41 L1961.57 1438.54 L1964.51 1433.45 Q1966.2 1430.53 1965.71 1428.27 Q1965.22 1425.98 1962.59 1424.46 Q1959.97 1422.94 1957.78 1423.68 Q1955.58 1424.39 1953.89 1427.32 L1950.95 1432.41 Z" fill="#000000" fill-rule="nonzero" fill-opacity="1" /><path clip-path="url(#clip080)" d="M1961.75 1406.01 L1964.09 1401.96 L1976.74 1409.26 L1971.84 1388.53 L1974.85 1383.32 L1980.23 1406.23 L2005.4 1399.54 L2002.32 1404.87 L1979.6 1410.92 L1994.02 1419.24 L1991.68 1423.29 L1961.75 1406.01 Z" fill="#000000" fill-rule="nonzero" fill-opacity="1" /><path clip-path="url(#clip080)" d="M2029.78 1464.37 L2032.93 1458.91 L2065.63 1460.1 L2040.59 1445.64 L2042.86 1441.71 L2072.79 1458.99 L2069.64 1464.45 L2036.94 1463.26 L2061.98 1477.72 L2059.71 1481.65 L2029.78 1464.37 Z" fill="#000000" fill-rule="nonzero" fill-opacity="1" /><path clip-path="url(#clip080)" d="M2081.9 1443.22 L2045.37 1437.36 L2047.81 1433.13 L2078.49 1438.2 L2058.78 1414.15 L2061.21 1409.94 L2084.55 1438.63 L2081.9 1443.22 Z" fill="#000000" fill-rule="nonzero" fill-opacity="1" /><path clip-path="url(#clip080)" d="M2087.82 1400.56 Q2089.01 1399.51 2091.16 1399.12 Q2093.32 1398.71 2096.57 1398.92 L2107.12 1399.54 L2104.61 1403.89 L2094.72 1403.28 Q2090.86 1403.03 2089.06 1403.87 Q2087.28 1404.68 2085.89 1407.09 L2083.35 1411.5 L2096 1418.8 L2093.66 1422.85 L2063.73 1405.57 L2069.01 1396.43 Q2071.97 1391.3 2075.57 1390.01 Q2079.18 1388.72 2083.51 1391.22 Q2086.33 1392.85 2087.43 1395.25 Q2088.55 1397.63 2087.82 1400.56 M2069.39 1403.44 L2080.02 1409.58 L2082.96 1404.48 Q2084.65 1401.56 2084.16 1399.3 Q2083.67 1397.01 2081.04 1395.49 Q2078.42 1393.98 2076.22 1394.72 Q2074.02 1395.42 2072.33 1398.35 L2069.39 1403.44 Z" fill="#000000" fill-rule="nonzero" fill-opacity="1" /><path clip-path="url(#clip080)" d="M2138.13 1452.9 L2140.49 1448.81 L2169.42 1457.12 L2147.75 1436.24 L2150.37 1431.69 L2179.31 1440 L2157.63 1419.12 L2160 1415.01 L2185.59 1439.81 L2182.65 1444.9 L2153.03 1436.22 L2175.33 1457.59 L2172.39 1462.68 L2138.13 1452.9 Z" fill="#000000" fill-rule="nonzero" fill-opacity="1" /><path clip-path="url(#clip080)" d="M2163.1 1409.64 L2166.59 1403.61 L2191.36 1407.73 L2175.43 1388.29 L2178.91 1382.26 L2208.84 1399.54 L2206.56 1403.49 L2180.28 1388.31 L2196.35 1407.88 L2194 1411.95 L2169.02 1407.82 L2195.3 1422.99 L2193.03 1426.92 L2163.1 1409.64 Z" fill="#000000" fill-rule="nonzero" fill-opacity="1" /><path clip-path="url(#clip080)" d="M973.124 1554.31 L973.124 1560.58 Q969.464 1558.83 966.217 1557.97 Q962.971 1557.11 959.947 1557.11 Q954.695 1557.11 951.831 1559.14 Q948.998 1561.18 948.998 1564.94 Q948.998 1568.09 950.876 1569.71 Q952.786 1571.3 958.069 1572.29 L961.952 1573.08 Q969.146 1574.45 972.551 1577.92 Q975.989 1581.36 975.989 1587.15 Q975.989 1594.06 971.342 1597.62 Q966.727 1601.19 957.783 1601.19 Q954.409 1601.19 950.59 1600.42 Q946.802 1599.66 942.728 1598.17 L942.728 1591.54 Q946.643 1593.74 950.399 1594.86 Q954.154 1595.97 957.783 1595.97 Q963.289 1595.97 966.281 1593.8 Q969.273 1591.64 969.273 1587.63 Q969.273 1584.13 967.109 1582.16 Q964.976 1580.18 960.074 1579.2 L956.159 1578.43 Q948.966 1577 945.752 1573.94 Q942.537 1570.89 942.537 1565.45 Q942.537 1559.14 946.961 1555.51 Q951.417 1551.89 959.215 1551.89 Q962.557 1551.89 966.026 1552.49 Q969.496 1553.1 973.124 1554.31 Z" fill="#000000" fill-rule="nonzero" fill-opacity="1" /><path clip-path="url(#clip080)" d="M995.468 1574.71 Q992.571 1577.29 991.203 1579.86 Q989.866 1582.41 989.866 1585.21 Q989.866 1589.86 993.24 1592.95 Q996.614 1596.03 1001.71 1596.03 Q1004.73 1596.03 1007.37 1595.05 Q1010.01 1594.03 1012.34 1591.99 L995.468 1574.71 M999.956 1571.14 L1016.12 1587.69 Q1018 1584.86 1019.05 1581.65 Q1020.1 1578.4 1020.29 1574.77 L1026.21 1574.77 Q1025.83 1578.97 1024.18 1583.08 Q1022.52 1587.18 1019.56 1591.19 L1028.44 1600.27 L1020.42 1600.27 L1015.87 1595.59 Q1012.56 1598.42 1008.93 1599.82 Q1005.3 1601.19 1001.13 1601.19 Q993.463 1601.19 988.593 1596.83 Q983.723 1592.44 983.723 1585.59 Q983.723 1581.52 985.856 1577.95 Q987.988 1574.36 992.253 1571.21 Q990.725 1569.2 989.93 1567.23 Q989.134 1565.22 989.134 1563.31 Q989.134 1558.16 992.667 1555.04 Q996.2 1551.89 1002.06 1551.89 Q1004.7 1551.89 1007.31 1552.46 Q1009.95 1553.03 1012.66 1554.18 L1012.66 1559.97 Q1009.89 1558.47 1007.37 1557.71 Q1004.86 1556.92 1002.69 1556.92 Q999.351 1556.92 997.25 1558.7 Q995.181 1560.45 995.181 1563.25 Q995.181 1564.87 996.104 1566.53 Q997.059 1568.15 999.956 1571.14 Z" fill="#000000" fill-rule="nonzero" fill-opacity="1" /><path clip-path="url(#clip080)" d="M1043.27 1558.03 L1043.27 1575.89 L1051.36 1575.89 Q1055.85 1575.89 1058.3 1573.56 Q1060.75 1571.24 1060.75 1566.94 Q1060.75 1562.68 1058.3 1560.35 Q1055.85 1558.03 1051.36 1558.03 L1043.27 1558.03 M1036.84 1552.75 L1051.36 1552.75 Q1059.35 1552.75 1063.42 1556.37 Q1067.53 1559.97 1067.53 1566.94 Q1067.53 1573.98 1063.42 1577.57 Q1059.35 1581.17 1051.36 1581.17 L1043.27 1581.17 L1043.27 1600.27 L1036.84 1600.27 L1036.84 1552.75 Z" fill="#000000" fill-rule="nonzero" fill-opacity="1" /><path clip-path="url(#clip080)" d="M1076.79 1552.75 L1102.03 1552.75 L1102.03 1558.16 L1082.68 1558.16 L1082.68 1569.81 Q1084.08 1569.33 1085.48 1569.11 Q1086.88 1568.85 1088.28 1568.85 Q1096.24 1568.85 1100.88 1573.21 Q1105.53 1577.57 1105.53 1585.02 Q1105.53 1592.69 1100.76 1596.96 Q1095.98 1601.19 1087.29 1601.19 Q1084.3 1601.19 1081.18 1600.68 Q1078.09 1600.17 1074.78 1599.15 L1074.78 1592.69 Q1077.65 1594.25 1080.7 1595.01 Q1083.76 1595.78 1087.17 1595.78 Q1092.67 1595.78 1095.89 1592.88 Q1099.1 1589.99 1099.1 1585.02 Q1099.1 1580.05 1095.89 1577.16 Q1092.67 1574.26 1087.17 1574.26 Q1084.59 1574.26 1082.01 1574.83 Q1079.46 1575.41 1076.79 1576.62 L1076.79 1552.75 Z" fill="#000000" fill-rule="nonzero" fill-opacity="1" /><path clip-path="url(#clip080)" d="M1131.95 1556.98 Q1126.98 1556.98 1124.47 1561.88 Q1121.99 1566.75 1121.99 1576.55 Q1121.99 1586.32 1124.47 1591.23 Q1126.98 1596.1 1131.95 1596.1 Q1136.95 1596.1 1139.43 1591.23 Q1141.94 1586.32 1141.94 1576.55 Q1141.94 1566.75 1139.43 1561.88 Q1136.95 1556.98 1131.95 1556.98 M1131.95 1551.89 Q1139.94 1551.89 1144.14 1558.22 Q1148.37 1564.52 1148.37 1576.55 Q1148.37 1588.55 1144.14 1594.89 Q1139.94 1601.19 1131.95 1601.19 Q1123.96 1601.19 1119.73 1594.89 Q1115.52 1588.55 1115.52 1576.55 Q1115.52 1564.52 1119.73 1558.22 Q1123.96 1551.89 1131.95 1551.89 Z" fill="#000000" fill-rule="nonzero" fill-opacity="1" /><path clip-path="url(#clip080)" d="M1173.42 1556.98 Q1168.46 1556.98 1165.94 1561.88 Q1163.46 1566.75 1163.46 1576.55 Q1163.46 1586.32 1165.94 1591.23 Q1168.46 1596.1 1173.42 1596.1 Q1178.42 1596.1 1180.9 1591.23 Q1183.42 1586.32 1183.42 1576.55 Q1183.42 1566.75 1180.9 1561.88 Q1178.42 1556.98 1173.42 1556.98 M1173.42 1551.89 Q1181.41 1551.89 1185.61 1558.22 Q1189.84 1564.52 1189.84 1576.55 Q1189.84 1588.55 1185.61 1594.89 Q1181.41 1601.19 1173.42 1601.19 Q1165.43 1601.19 1161.2 1594.89 Q1157 1588.55 1157 1576.55 Q1157 1564.52 1161.2 1558.22 Q1165.43 1551.89 1173.42 1551.89 Z" fill="#000000" fill-rule="nonzero" fill-opacity="1" /><path clip-path="url(#clip080)" d="M1246.69 1565.99 L1246.69 1571.46 Q1244.21 1570.09 1241.69 1569.42 Q1239.21 1568.72 1236.66 1568.72 Q1230.97 1568.72 1227.82 1572.35 Q1224.67 1575.95 1224.67 1582.47 Q1224.67 1589 1227.82 1592.63 Q1230.97 1596.22 1236.66 1596.22 Q1239.21 1596.22 1241.69 1595.56 Q1244.21 1594.86 1246.69 1593.49 L1246.69 1598.9 Q1244.24 1600.04 1241.6 1600.62 Q1238.99 1601.19 1236.03 1601.19 Q1227.98 1601.19 1223.23 1596.13 Q1218.49 1591.07 1218.49 1582.47 Q1218.49 1573.75 1223.26 1568.76 Q1228.07 1563.76 1236.41 1563.76 Q1239.12 1563.76 1241.69 1564.33 Q1244.27 1564.87 1246.69 1565.99 Z" fill="#000000" fill-rule="nonzero" fill-opacity="1" /><path clip-path="url(#clip080)" d="M1270.69 1568.72 Q1265.98 1568.72 1263.24 1572.42 Q1260.5 1576.08 1260.5 1582.47 Q1260.5 1588.87 1263.21 1592.56 Q1265.95 1596.22 1270.69 1596.22 Q1275.37 1596.22 1278.11 1592.53 Q1280.84 1588.84 1280.84 1582.47 Q1280.84 1576.14 1278.11 1572.45 Q1275.37 1568.72 1270.69 1568.72 M1270.69 1563.76 Q1278.33 1563.76 1282.69 1568.72 Q1287.05 1573.69 1287.05 1582.47 Q1287.05 1591.23 1282.69 1596.22 Q1278.33 1601.19 1270.69 1601.19 Q1263.02 1601.19 1258.66 1596.22 Q1254.33 1591.23 1254.33 1582.47 Q1254.33 1573.69 1258.66 1568.72 Q1263.02 1563.76 1270.69 1563.76 Z" fill="#000000" fill-rule="nonzero" fill-opacity="1" /><path clip-path="url(#clip080)" d="M1326.39 1578.75 L1326.39 1600.27 L1320.53 1600.27 L1320.53 1578.94 Q1320.53 1573.88 1318.56 1571.37 Q1316.59 1568.85 1312.64 1568.85 Q1307.9 1568.85 1305.16 1571.87 Q1302.42 1574.9 1302.42 1580.12 L1302.42 1600.27 L1296.53 1600.27 L1296.53 1564.62 L1302.42 1564.62 L1302.42 1570.16 Q1304.52 1566.94 1307.36 1565.35 Q1310.22 1563.76 1313.94 1563.76 Q1320.09 1563.76 1323.24 1567.58 Q1326.39 1571.37 1326.39 1578.75 Z" fill="#000000" fill-rule="nonzero" fill-opacity="1" /><path clip-path="url(#clip080)" d="M1360.8 1565.67 L1360.8 1571.21 Q1358.31 1569.93 1355.64 1569.3 Q1352.97 1568.66 1350.1 1568.66 Q1345.74 1568.66 1343.54 1570 Q1341.38 1571.33 1341.38 1574.01 Q1341.38 1576.04 1342.94 1577.22 Q1344.5 1578.37 1349.21 1579.42 L1351.22 1579.86 Q1357.45 1581.2 1360.06 1583.65 Q1362.71 1586.07 1362.71 1590.43 Q1362.71 1595.4 1358.76 1598.29 Q1354.84 1601.19 1347.97 1601.19 Q1345.1 1601.19 1341.98 1600.62 Q1338.9 1600.07 1335.46 1598.96 L1335.46 1592.91 Q1338.71 1594.6 1341.86 1595.46 Q1345.01 1596.29 1348.1 1596.29 Q1352.23 1596.29 1354.46 1594.89 Q1356.69 1593.45 1356.69 1590.88 Q1356.69 1588.49 1355.07 1587.22 Q1353.48 1585.94 1348.03 1584.77 L1346 1584.29 Q1340.55 1583.14 1338.13 1580.79 Q1335.71 1578.4 1335.71 1574.26 Q1335.71 1569.23 1339.28 1566.5 Q1342.84 1563.76 1349.4 1563.76 Q1352.65 1563.76 1355.51 1564.24 Q1358.38 1564.71 1360.8 1565.67 Z" fill="#000000" fill-rule="nonzero" fill-opacity="1" /><path clip-path="url(#clip080)" d="M1377.82 1554.5 L1377.82 1564.62 L1389.89 1564.62 L1389.89 1569.17 L1377.82 1569.17 L1377.82 1588.52 Q1377.82 1592.88 1379 1594.12 Q1380.21 1595.36 1383.87 1595.36 L1389.89 1595.36 L1389.89 1600.27 L1383.87 1600.27 Q1377.09 1600.27 1374.51 1597.75 Q1371.94 1595.21 1371.94 1588.52 L1371.94 1569.17 L1367.64 1569.17 L1367.64 1564.62 L1371.94 1564.62 L1371.94 1554.5 L1377.82 1554.5 Z" fill="#000000" fill-rule="nonzero" fill-opacity="1" /><path clip-path="url(#clip080)" d="M1397.59 1564.62 L1403.45 1564.62 L1403.45 1600.27 L1397.59 1600.27 L1397.59 1564.62 M1397.59 1550.74 L1403.45 1550.74 L1403.45 1558.16 L1397.59 1558.16 L1397.59 1550.74 Z" fill="#000000" fill-rule="nonzero" fill-opacity="1" /><path clip-path="url(#clip080)" d="M1421.49 1554.5 L1421.49 1564.62 L1433.56 1564.62 L1433.56 1569.17 L1421.49 1569.17 L1421.49 1588.52 Q1421.49 1592.88 1422.67 1594.12 Q1423.88 1595.36 1427.54 1595.36 L1433.56 1595.36 L1433.56 1600.27 L1427.54 1600.27 Q1420.76 1600.27 1418.18 1597.75 Q1415.6 1595.21 1415.6 1588.52 L1415.6 1569.17 L1411.31 1569.17 L1411.31 1564.62 L1415.6 1564.62 L1415.6 1554.5 L1421.49 1554.5 Z" fill="#000000" fill-rule="nonzero" fill-opacity="1" /><path clip-path="url(#clip080)" d="M1440.65 1586.2 L1440.65 1564.62 L1446.51 1564.62 L1446.51 1585.97 Q1446.51 1591.04 1448.48 1593.58 Q1450.46 1596.1 1454.4 1596.1 Q1459.15 1596.1 1461.88 1593.07 Q1464.65 1590.05 1464.65 1584.83 L1464.65 1564.62 L1470.51 1564.62 L1470.51 1600.27 L1464.65 1600.27 L1464.65 1594.79 Q1462.52 1598.04 1459.69 1599.63 Q1456.89 1601.19 1453.16 1601.19 Q1447.02 1601.19 1443.84 1597.37 Q1440.65 1593.55 1440.65 1586.2 M1455.39 1563.76 L1455.39 1563.76 Z" fill="#000000" fill-rule="nonzero" fill-opacity="1" /><path clip-path="url(#clip080)" d="M1513.06 1580.98 L1513.06 1583.84 L1486.14 1583.84 Q1486.52 1589.89 1489.76 1593.07 Q1493.04 1596.22 1498.87 1596.22 Q1502.24 1596.22 1505.39 1595.4 Q1508.58 1594.57 1511.69 1592.91 L1511.69 1598.45 Q1508.54 1599.79 1505.23 1600.49 Q1501.92 1601.19 1498.52 1601.19 Q1489.99 1601.19 1484.99 1596.22 Q1480.03 1591.26 1480.03 1582.79 Q1480.03 1574.04 1484.74 1568.91 Q1489.48 1563.76 1497.5 1563.76 Q1504.69 1563.76 1508.86 1568.41 Q1513.06 1573.02 1513.06 1580.98 M1507.21 1579.26 Q1507.14 1574.45 1504.5 1571.59 Q1501.89 1568.72 1497.56 1568.72 Q1492.66 1568.72 1489.7 1571.49 Q1486.77 1574.26 1486.33 1579.29 L1507.21 1579.26 Z" fill="#000000" fill-rule="nonzero" fill-opacity="1" /><path clip-path="url(#clip080)" d="M1552.31 1578.75 L1552.31 1600.27 L1546.45 1600.27 L1546.45 1578.94 Q1546.45 1573.88 1544.48 1571.37 Q1542.5 1568.85 1538.56 1568.85 Q1533.82 1568.85 1531.08 1571.87 Q1528.34 1574.9 1528.34 1580.12 L1528.34 1600.27 L1522.45 1600.27 L1522.45 1564.62 L1528.34 1564.62 L1528.34 1570.16 Q1530.44 1566.94 1533.27 1565.35 Q1536.14 1563.76 1539.86 1563.76 Q1546.01 1563.76 1549.16 1567.58 Q1552.31 1571.37 1552.31 1578.75 Z" fill="#000000" fill-rule="nonzero" fill-opacity="1" /><path clip-path="url(#clip080)" d="M1569.78 1554.5 L1569.78 1564.62 L1581.84 1564.62 L1581.84 1569.17 L1569.78 1569.17 L1569.78 1588.52 Q1569.78 1592.88 1570.96 1594.12 Q1572.17 1595.36 1575.83 1595.36 L1581.84 1595.36 L1581.84 1600.27 L1575.83 1600.27 Q1569.05 1600.27 1566.47 1597.75 Q1563.89 1595.21 1563.89 1588.52 L1563.89 1569.17 L1559.6 1569.17 L1559.6 1564.62 L1563.89 1564.62 L1563.89 1554.5 L1569.78 1554.5 Z" fill="#000000" fill-rule="nonzero" fill-opacity="1" /><path clip-path="url(#clip080)" d="M1612.27 1565.67 L1612.27 1571.21 Q1609.79 1569.93 1607.12 1569.3 Q1604.44 1568.66 1601.58 1568.66 Q1597.22 1568.66 1595.02 1570 Q1592.86 1571.33 1592.86 1574.01 Q1592.86 1576.04 1594.42 1577.22 Q1595.98 1578.37 1600.69 1579.42 L1602.69 1579.86 Q1608.93 1581.2 1611.54 1583.65 Q1614.18 1586.07 1614.18 1590.43 Q1614.18 1595.4 1610.24 1598.29 Q1606.32 1601.19 1599.45 1601.19 Q1596.58 1601.19 1593.46 1600.62 Q1590.37 1600.07 1586.94 1598.96 L1586.94 1592.91 Q1590.18 1594.6 1593.33 1595.46 Q1596.49 1596.29 1599.57 1596.29 Q1603.71 1596.29 1605.94 1594.89 Q1608.17 1593.45 1608.17 1590.88 Q1608.17 1588.49 1606.54 1587.22 Q1604.95 1585.94 1599.51 1584.77 L1597.47 1584.29 Q1592.03 1583.14 1589.61 1580.79 Q1587.19 1578.4 1587.19 1574.26 Q1587.19 1569.23 1590.76 1566.5 Q1594.32 1563.76 1600.88 1563.76 Q1604.12 1563.76 1606.99 1564.24 Q1609.85 1564.71 1612.27 1565.67 Z" fill="#000000" fill-rule="nonzero" fill-opacity="1" /><polyline clip-path="url(#clip082)" style="stroke:#000000; stroke-linecap:round; stroke-linejoin:round; stroke-width:2; stroke-opacity:0.1; fill:none" points="203.964,1358.74 2352.76,1358.74 "/>
<polyline clip-path="url(#clip082)" style="stroke:#000000; stroke-linecap:round; stroke-linejoin:round; stroke-width:2; stroke-opacity:0.1; fill:none" points="203.964,1078.71 2352.76,1078.71 "/>
<polyline clip-path="url(#clip082)" style="stroke:#000000; stroke-linecap:round; stroke-linejoin:round; stroke-width:2; stroke-opacity:0.1; fill:none" points="203.964,798.694 2352.76,798.694 "/>
<polyline clip-path="url(#clip082)" style="stroke:#000000; stroke-linecap:round; stroke-linejoin:round; stroke-width:2; stroke-opacity:0.1; fill:none" points="203.964,518.673 2352.76,518.673 "/>
<polyline clip-path="url(#clip082)" style="stroke:#000000; stroke-linecap:round; stroke-linejoin:round; stroke-width:2; stroke-opacity:0.1; fill:none" points="203.964,238.652 2352.76,238.652 "/>
<polyline clip-path="url(#clip080)" style="stroke:#000000; stroke-linecap:round; stroke-linejoin:round; stroke-width:4; stroke-opacity:1; fill:none" points="203.964,1358.74 203.964,183.952 "/>
<polyline clip-path="url(#clip080)" style="stroke:#000000; stroke-linecap:round; stroke-linejoin:round; stroke-width:4; stroke-opacity:1; fill:none" points="203.964,1358.74 222.861,1358.74 "/>
<polyline clip-path="url(#clip080)" style="stroke:#000000; stroke-linecap:round; stroke-linejoin:round; stroke-width:4; stroke-opacity:1; fill:none" points="203.964,1078.71 222.861,1078.71 "/>
<polyline clip-path="url(#clip080)" style="stroke:#000000; stroke-linecap:round; stroke-linejoin:round; stroke-width:4; stroke-opacity:1; fill:none" points="203.964,798.694 222.861,798.694 "/>
<polyline clip-path="url(#clip080)" style="stroke:#000000; stroke-linecap:round; stroke-linejoin:round; stroke-width:4; stroke-opacity:1; fill:none" points="203.964,518.673 222.861,518.673 "/>
<polyline clip-path="url(#clip080)" style="stroke:#000000; stroke-linecap:round; stroke-linejoin:round; stroke-width:4; stroke-opacity:1; fill:none" points="203.964,238.652 222.861,238.652 "/>
<path clip-path="url(#clip080)" d="M156.019 1344.53 Q152.408 1344.53 150.579 1348.1 Q148.774 1351.64 148.774 1358.77 Q148.774 1365.88 150.579 1369.44 Q152.408 1372.98 156.019 1372.98 Q159.653 1372.98 161.459 1369.44 Q163.288 1365.88 163.288 1358.77 Q163.288 1351.64 161.459 1348.1 Q159.653 1344.53 156.019 1344.53 M156.019 1340.83 Q161.829 1340.83 164.885 1345.44 Q167.964 1350.02 167.964 1358.77 Q167.964 1367.5 164.885 1372.1 Q161.829 1376.69 156.019 1376.69 Q150.209 1376.69 147.13 1372.1 Q144.075 1367.5 144.075 1358.77 Q144.075 1350.02 147.13 1345.44 Q150.209 1340.83 156.019 1340.83 Z" fill="#000000" fill-rule="nonzero" fill-opacity="1" /><path clip-path="url(#clip080)" d="M147.061 1061.43 L165.417 1061.43 L165.417 1065.37 L151.343 1065.37 L151.343 1073.84 Q152.362 1073.5 153.38 1073.33 Q154.399 1073.15 155.417 1073.15 Q161.204 1073.15 164.584 1076.32 Q167.964 1079.49 167.964 1084.91 Q167.964 1090.49 164.491 1093.59 Q161.019 1096.67 154.7 1096.67 Q152.524 1096.67 150.255 1096.3 Q148.01 1095.93 145.603 1095.18 L145.603 1090.49 Q147.686 1091.62 149.908 1092.18 Q152.13 1092.73 154.607 1092.73 Q158.612 1092.73 160.95 1090.62 Q163.288 1088.52 163.288 1084.91 Q163.288 1081.3 160.95 1079.19 Q158.612 1077.08 154.607 1077.08 Q152.732 1077.08 150.857 1077.5 Q149.005 1077.92 147.061 1078.8 L147.061 1061.43 Z" fill="#000000" fill-rule="nonzero" fill-opacity="1" /><path clip-path="url(#clip080)" d="M116.668 812.039 L124.306 812.039 L124.306 785.673 L115.996 787.34 L115.996 783.081 L124.26 781.414 L128.936 781.414 L128.936 812.039 L136.575 812.039 L136.575 815.974 L116.668 815.974 L116.668 812.039 Z" fill="#000000" fill-rule="nonzero" fill-opacity="1" /><path clip-path="url(#clip080)" d="M156.019 784.493 Q152.408 784.493 150.579 788.057 Q148.774 791.599 148.774 798.729 Q148.774 805.835 150.579 809.4 Q152.408 812.942 156.019 812.942 Q159.653 812.942 161.459 809.4 Q163.288 805.835 163.288 798.729 Q163.288 791.599 161.459 788.057 Q159.653 784.493 156.019 784.493 M156.019 780.789 Q161.829 780.789 164.885 785.395 Q167.964 789.979 167.964 798.729 Q167.964 807.456 164.885 812.062 Q161.829 816.645 156.019 816.645 Q150.209 816.645 147.13 812.062 Q144.075 807.456 144.075 798.729 Q144.075 789.979 147.13 785.395 Q150.209 780.789 156.019 780.789 Z" fill="#000000" fill-rule="nonzero" fill-opacity="1" /><path clip-path="url(#clip080)" d="M117.663 532.018 L125.302 532.018 L125.302 505.652 L116.992 507.319 L116.992 503.06 L125.255 501.393 L129.931 501.393 L129.931 532.018 L137.57 532.018 L137.57 535.953 L117.663 535.953 L117.663 532.018 Z" fill="#000000" fill-rule="nonzero" fill-opacity="1" /><path clip-path="url(#clip080)" d="M147.061 501.393 L165.417 501.393 L165.417 505.328 L151.343 505.328 L151.343 513.8 Q152.362 513.453 153.38 513.291 Q154.399 513.106 155.417 513.106 Q161.204 513.106 164.584 516.277 Q167.964 519.449 167.964 524.865 Q167.964 530.444 164.491 533.546 Q161.019 536.624 154.7 536.624 Q152.524 536.624 150.255 536.254 Q148.01 535.884 145.603 535.143 L145.603 530.444 Q147.686 531.578 149.908 532.134 Q152.13 532.689 154.607 532.689 Q158.612 532.689 160.95 530.583 Q163.288 528.476 163.288 524.865 Q163.288 521.254 160.95 519.148 Q158.612 517.041 154.607 517.041 Q152.732 517.041 150.857 517.458 Q149.005 517.875 147.061 518.754 L147.061 501.393 Z" fill="#000000" fill-rule="nonzero" fill-opacity="1" /><path clip-path="url(#clip080)" d="M119.885 251.997 L136.204 251.997 L136.204 255.932 L114.26 255.932 L114.26 251.997 Q116.922 249.242 121.505 244.613 Q126.112 239.96 127.292 238.617 Q129.538 236.094 130.417 234.358 Q131.32 232.599 131.32 230.909 Q131.32 228.155 129.376 226.418 Q127.455 224.682 124.353 224.682 Q122.154 224.682 119.7 225.446 Q117.269 226.21 114.492 227.761 L114.492 223.039 Q117.316 221.905 119.769 221.326 Q122.223 220.747 124.26 220.747 Q129.63 220.747 132.825 223.432 Q136.019 226.118 136.019 230.608 Q136.019 232.738 135.209 234.659 Q134.422 236.557 132.316 239.15 Q131.737 239.821 128.635 243.039 Q125.533 246.233 119.885 251.997 Z" fill="#000000" fill-rule="nonzero" fill-opacity="1" /><path clip-path="url(#clip080)" d="M156.019 224.451 Q152.408 224.451 150.579 228.016 Q148.774 231.557 148.774 238.687 Q148.774 245.793 150.579 249.358 Q152.408 252.9 156.019 252.9 Q159.653 252.9 161.459 249.358 Q163.288 245.793 163.288 238.687 Q163.288 231.557 161.459 228.016 Q159.653 224.451 156.019 224.451 M156.019 220.747 Q161.829 220.747 164.885 225.354 Q167.964 229.937 167.964 238.687 Q167.964 247.414 164.885 252.02 Q161.829 256.603 156.019 256.603 Q150.209 256.603 147.13 252.02 Q144.075 247.414 144.075 238.687 Q144.075 229.937 147.13 225.354 Q150.209 220.747 156.019 220.747 Z" fill="#000000" fill-rule="nonzero" fill-opacity="1" /><path clip-path="url(#clip080)" d="M46.0847 1070.39 Q46.0847 1077.49 47.7079 1080.22 Q49.3312 1082.96 53.2461 1082.96 Q56.3653 1082.96 58.2114 1080.92 Q60.0256 1078.86 60.0256 1075.32 Q60.0256 1070.45 56.5881 1067.52 Q53.1188 1064.56 47.3897 1064.56 L46.0847 1064.56 L46.0847 1070.39 M43.6657 1058.71 L64.0042 1058.71 L64.0042 1064.56 L58.5933 1064.56 Q61.8398 1066.57 63.3994 1069.56 Q64.9272 1072.55 64.9272 1076.88 Q64.9272 1082.36 61.8716 1085.6 Q58.7843 1088.82 53.6281 1088.82 Q47.6125 1088.82 44.5569 1084.81 Q41.5014 1080.77 41.5014 1072.78 L41.5014 1064.56 L40.9285 1064.56 Q36.8862 1064.56 34.6901 1067.24 Q32.4621 1069.88 32.4621 1074.69 Q32.4621 1077.74 33.1941 1080.64 Q33.9262 1083.53 35.3903 1086.21 L29.9795 1086.21 Q28.7381 1082.99 28.1334 1079.97 Q27.4968 1076.95 27.4968 1074.08 Q27.4968 1066.35 31.5072 1062.53 Q35.5176 1058.71 43.6657 1058.71 Z" fill="#000000" fill-rule="nonzero" fill-opacity="1" /><path clip-path="url(#clip080)" d="M29.4065 1023.92 L34.9447 1023.92 Q33.6716 1026.4 33.035 1029.08 Q32.3984 1031.75 32.3984 1034.61 Q32.3984 1038.97 33.7352 1041.17 Q35.072 1043.33 37.7456 1043.33 Q39.7826 1043.33 40.9603 1041.78 Q42.1061 1040.22 43.1565 1035.5 L43.6021 1033.5 Q44.9389 1027.26 47.3897 1024.65 Q49.8086 1022.01 54.1691 1022.01 Q59.1344 1022.01 62.0308 1025.96 Q64.9272 1029.87 64.9272 1036.75 Q64.9272 1039.61 64.3543 1042.73 Q63.8132 1045.82 62.6992 1049.25 L56.6518 1049.25 Q58.3387 1046.01 59.198 1042.86 Q60.0256 1039.71 60.0256 1036.62 Q60.0256 1032.48 58.6251 1030.25 Q57.1929 1028.03 54.6147 1028.03 Q52.2276 1028.03 50.9545 1029.65 Q49.6813 1031.24 48.5037 1036.68 L48.0262 1038.72 Q46.8804 1044.16 44.5251 1046.58 Q42.138 1049 38.0002 1049 Q32.9713 1049 30.2341 1045.44 Q27.4968 1041.87 27.4968 1035.31 Q27.4968 1032.07 27.9743 1029.2 Q28.4517 1026.34 29.4065 1023.92 Z" fill="#000000" fill-rule="nonzero" fill-opacity="1" /><path clip-path="url(#clip080)" d="M29.4065 989.958 L34.9447 989.958 Q33.6716 992.441 33.035 995.114 Q32.3984 997.788 32.3984 1000.65 Q32.3984 1005.01 33.7352 1007.21 Q35.072 1009.37 37.7456 1009.37 Q39.7826 1009.37 40.9603 1007.81 Q42.1061 1006.25 43.1565 1001.54 L43.6021 999.539 Q44.9389 993.3 47.3897 990.69 Q49.8086 988.049 54.1691 988.049 Q59.1344 988.049 62.0308 991.995 Q64.9272 995.91 64.9272 1002.79 Q64.9272 1005.65 64.3543 1008.77 Q63.8132 1011.86 62.6992 1015.29 L56.6518 1015.29 Q58.3387 1012.05 59.198 1008.9 Q60.0256 1005.75 60.0256 1002.66 Q60.0256 998.52 58.6251 996.292 Q57.1929 994.064 54.6147 994.064 Q52.2276 994.064 50.9545 995.687 Q49.6813 997.279 48.5037 1002.72 L48.0262 1004.76 Q46.8804 1010.2 44.5251 1012.62 Q42.138 1015.04 38.0002 1015.04 Q32.9713 1015.04 30.2341 1011.47 Q27.4968 1007.91 27.4968 1001.35 Q27.4968 998.106 27.9743 995.242 Q28.4517 992.377 29.4065 989.958 Z" fill="#000000" fill-rule="nonzero" fill-opacity="1" /><path clip-path="url(#clip080)" d="M44.7161 948.231 L47.5806 948.231 L47.5806 975.158 Q53.6281 974.776 56.8109 971.53 Q59.9619 968.251 59.9619 962.427 Q59.9619 959.053 59.1344 955.902 Q58.3069 952.719 56.6518 949.6 L62.1899 949.6 Q63.5267 952.751 64.227 956.061 Q64.9272 959.371 64.9272 962.777 Q64.9272 971.307 59.9619 976.304 Q54.9967 981.269 46.5303 981.269 Q37.7774 981.269 32.6531 976.558 Q27.4968 971.816 27.4968 963.795 Q27.4968 956.602 32.1438 952.432 Q36.7589 948.231 44.7161 948.231 M42.9973 954.087 Q38.1912 954.151 35.3266 956.793 Q32.4621 959.403 32.4621 963.732 Q32.4621 968.633 35.2312 971.593 Q38.0002 974.521 43.0292 974.967 L42.9973 954.087 Z" fill="#000000" fill-rule="nonzero" fill-opacity="1" /><path clip-path="url(#clip080)" d="M18.2347 932.826 L28.3562 932.826 L28.3562 920.763 L32.9077 920.763 L32.9077 932.826 L52.2594 932.826 Q56.6199 932.826 57.8613 931.648 Q59.1026 930.439 59.1026 926.779 L59.1026 920.763 L64.0042 920.763 L64.0042 926.779 Q64.0042 933.558 61.4897 936.136 Q58.9434 938.714 52.2594 938.714 L32.9077 938.714 L32.9077 943.011 L28.3562 943.011 L28.3562 938.714 L18.2347 938.714 L18.2347 932.826 Z" fill="#000000" fill-rule="nonzero" fill-opacity="1" /><path clip-path="url(#clip080)" d="M46.0847 876.139 Q46.0847 883.237 47.7079 885.974 Q49.3312 888.712 53.2461 888.712 Q56.3653 888.712 58.2114 886.675 Q60.0256 884.606 60.0256 881.073 Q60.0256 876.203 56.5881 873.275 Q53.1188 870.315 47.3897 870.315 L46.0847 870.315 L46.0847 876.139 M43.6657 864.458 L64.0042 864.458 L64.0042 870.315 L58.5933 870.315 Q61.8398 872.32 63.3994 875.312 Q64.9272 878.304 64.9272 882.632 Q64.9272 888.107 61.8716 891.353 Q58.7843 894.568 53.6281 894.568 Q47.6125 894.568 44.5569 890.558 Q41.5014 886.516 41.5014 878.527 L41.5014 870.315 L40.9285 870.315 Q36.8862 870.315 34.6901 872.988 Q32.4621 875.63 32.4621 880.436 Q32.4621 883.492 33.1941 886.388 Q33.9262 889.285 35.3903 891.958 L29.9795 891.958 Q28.7381 888.744 28.1334 885.72 Q27.4968 882.696 27.4968 879.832 Q27.4968 872.097 31.5072 868.278 Q35.5176 864.458 43.6657 864.458 Z" fill="#000000" fill-rule="nonzero" fill-opacity="1" /><path clip-path="url(#clip080)" d="M14.479 852.395 L14.479 846.539 L64.0042 846.539 L64.0042 852.395 L14.479 852.395 Z" fill="#000000" fill-rule="nonzero" fill-opacity="1" /><path clip-path="url(#clip080)" d="M14.479 834.285 L14.479 828.428 L64.0042 828.428 L64.0042 834.285 L14.479 834.285 Z" fill="#000000" fill-rule="nonzero" fill-opacity="1" /><path clip-path="url(#clip080)" d="M32.4621 802.361 Q32.4621 807.071 36.1542 809.809 Q39.8145 812.546 46.212 812.546 Q52.6095 812.546 56.3017 809.841 Q59.9619 807.103 59.9619 802.361 Q59.9619 797.682 56.2698 794.945 Q52.5777 792.208 46.212 792.208 Q39.8781 792.208 36.186 794.945 Q32.4621 797.682 32.4621 802.361 M27.4968 802.361 Q27.4968 794.722 32.4621 790.362 Q37.4273 786.001 46.212 786.001 Q54.9649 786.001 59.9619 790.362 Q64.9272 794.722 64.9272 802.361 Q64.9272 810.032 59.9619 814.392 Q54.9649 818.721 46.212 818.721 Q37.4273 818.721 32.4621 814.392 Q27.4968 810.032 27.4968 802.361 Z" fill="#000000" fill-rule="nonzero" fill-opacity="1" /><path clip-path="url(#clip080)" d="M29.7248 750.64 L35.1993 750.64 Q33.8307 753.122 33.1623 755.637 Q32.4621 758.119 32.4621 760.665 Q32.4621 766.363 36.0905 769.514 Q39.6872 772.665 46.212 772.665 Q52.7369 772.665 56.3653 769.514 Q59.9619 766.363 59.9619 760.665 Q59.9619 758.119 59.2935 755.637 Q58.5933 753.122 57.2247 750.64 L62.6355 750.64 Q63.7814 753.09 64.3543 755.732 Q64.9272 758.342 64.9272 761.302 Q64.9272 769.355 59.8664 774.097 Q54.8057 778.84 46.212 778.84 Q37.491 778.84 32.4939 774.065 Q27.4968 769.259 27.4968 760.92 Q27.4968 758.215 28.0697 755.637 Q28.6108 753.058 29.7248 750.64 Z" fill="#000000" fill-rule="nonzero" fill-opacity="1" /><path clip-path="url(#clip080)" d="M46.0847 724.254 Q46.0847 731.351 47.7079 734.089 Q49.3312 736.826 53.2461 736.826 Q56.3653 736.826 58.2114 734.789 Q60.0256 732.72 60.0256 729.187 Q60.0256 724.317 56.5881 721.389 Q53.1188 718.429 47.3897 718.429 L46.0847 718.429 L46.0847 724.254 M43.6657 712.573 L64.0042 712.573 L64.0042 718.429 L58.5933 718.429 Q61.8398 720.434 63.3994 723.426 Q64.9272 726.418 64.9272 730.747 Q64.9272 736.221 61.8716 739.468 Q58.7843 742.682 53.6281 742.682 Q47.6125 742.682 44.5569 738.672 Q41.5014 734.63 41.5014 726.641 L41.5014 718.429 L40.9285 718.429 Q36.8862 718.429 34.6901 721.103 Q32.4621 723.744 32.4621 728.551 Q32.4621 731.606 33.1941 734.502 Q33.9262 737.399 35.3903 740.072 L29.9795 740.072 Q28.7381 736.858 28.1334 733.834 Q27.4968 730.81 27.4968 727.946 Q27.4968 720.211 31.5072 716.392 Q35.5176 712.573 43.6657 712.573 Z" fill="#000000" fill-rule="nonzero" fill-opacity="1" /><path clip-path="url(#clip080)" d="M18.2347 694.717 L28.3562 694.717 L28.3562 682.654 L32.9077 682.654 L32.9077 694.717 L52.2594 694.717 Q56.6199 694.717 57.8613 693.539 Q59.1026 692.33 59.1026 688.669 L59.1026 682.654 L64.0042 682.654 L64.0042 688.669 Q64.0042 695.449 61.4897 698.027 Q58.9434 700.605 52.2594 700.605 L32.9077 700.605 L32.9077 704.902 L28.3562 704.902 L28.3562 700.605 L18.2347 700.605 L18.2347 694.717 Z" fill="#000000" fill-rule="nonzero" fill-opacity="1" /><path clip-path="url(#clip080)" d="M28.3562 674.951 L28.3562 669.095 L64.0042 669.095 L64.0042 674.951 L28.3562 674.951 M14.479 674.951 L14.479 669.095 L21.895 669.095 L21.895 674.951 L14.479 674.951 Z" fill="#000000" fill-rule="nonzero" fill-opacity="1" /><path clip-path="url(#clip080)" d="M32.4621 643.027 Q32.4621 647.738 36.1542 650.475 Q39.8145 653.212 46.212 653.212 Q52.6095 653.212 56.3017 650.507 Q59.9619 647.77 59.9619 643.027 Q59.9619 638.348 56.2698 635.611 Q52.5777 632.874 46.212 632.874 Q39.8781 632.874 36.186 635.611 Q32.4621 638.348 32.4621 643.027 M27.4968 643.027 Q27.4968 635.388 32.4621 631.028 Q37.4273 626.667 46.212 626.667 Q54.9649 626.667 59.9619 631.028 Q64.9272 635.388 64.9272 643.027 Q64.9272 650.698 59.9619 655.058 Q54.9649 659.387 46.212 659.387 Q37.4273 659.387 32.4621 655.058 Q27.4968 650.698 27.4968 643.027 Z" fill="#000000" fill-rule="nonzero" fill-opacity="1" /><path clip-path="url(#clip080)" d="M42.4881 587.327 L64.0042 587.327 L64.0042 593.184 L42.679 593.184 Q37.6183 593.184 35.1038 595.157 Q32.5894 597.13 32.5894 601.077 Q32.5894 605.82 35.6131 608.557 Q38.6368 611.294 43.8567 611.294 L64.0042 611.294 L64.0042 617.182 L28.3562 617.182 L28.3562 611.294 L33.8944 611.294 Q30.6797 609.194 29.0883 606.361 Q27.4968 603.496 27.4968 599.772 Q27.4968 593.629 31.3163 590.478 Q35.1038 587.327 42.4881 587.327 Z" fill="#000000" fill-rule="nonzero" fill-opacity="1" /><path clip-path="url(#clip080)" d="M14.5426 540.858 Q21.8632 545.123 29.0246 547.192 Q36.186 549.26 43.5384 549.26 Q50.8908 549.26 58.1159 547.192 Q65.3091 545.091 72.5979 540.858 L72.5979 545.95 Q65.1182 550.724 57.8931 553.112 Q50.668 555.467 43.5384 555.467 Q36.4406 555.467 29.2474 553.112 Q22.0542 550.756 14.5426 545.95 L14.5426 540.858 Z" fill="#000000" fill-rule="nonzero" fill-opacity="1" /><path clip-path="url(#clip080)" d="M43.0928 488.245 Q43.0928 491.014 45.4481 492.606 Q47.8034 494.165 52.0048 494.165 Q56.1425 494.165 58.5296 492.606 Q60.885 491.014 60.885 488.245 Q60.885 485.54 58.5296 483.98 Q56.1425 482.389 52.0048 482.389 Q47.8353 482.389 45.48 483.98 Q43.0928 485.54 43.0928 488.245 M39.0506 488.245 Q39.0506 483.216 42.5517 480.256 Q46.0529 477.296 52.0048 477.296 Q57.9567 477.296 61.4579 480.288 Q64.9272 483.248 64.9272 488.245 Q64.9272 493.338 61.4579 496.298 Q57.9567 499.258 52.0048 499.258 Q46.021 499.258 42.5517 496.298 Q39.0506 493.306 39.0506 488.245 M19.667 521.092 Q19.667 523.829 22.0542 525.421 Q24.4095 526.98 28.5472 526.98 Q32.7485 526.98 35.1038 525.421 Q37.4592 523.861 37.4592 521.092 Q37.4592 518.323 35.1038 516.763 Q32.7485 515.172 28.5472 515.172 Q24.4413 515.172 22.0542 516.763 Q19.667 518.355 19.667 521.092 M15.6248 492.351 L15.6248 487.258 L64.9272 516.986 L64.9272 522.079 L15.6248 492.351 M15.6248 521.092 Q15.6248 516.063 19.1259 513.071 Q22.5952 510.079 28.5472 510.079 Q34.5628 510.079 38.0321 513.071 Q41.5014 516.031 41.5014 521.092 Q41.5014 526.153 38.0321 529.113 Q34.5309 532.041 28.5472 532.041 Q22.6271 532.041 19.1259 529.081 Q15.6248 526.121 15.6248 521.092 Z" fill="#000000" fill-rule="nonzero" fill-opacity="1" /><path clip-path="url(#clip080)" d="M14.5426 468.48 L14.5426 463.387 Q22.0542 458.613 29.2474 456.257 Q36.4406 453.87 43.5384 453.87 Q50.668 453.87 57.8931 456.257 Q65.1182 458.613 72.5979 463.387 L72.5979 468.48 Q65.3091 464.246 58.1159 462.178 Q50.8908 460.077 43.5384 460.077 Q36.186 460.077 29.0246 462.178 Q21.8632 464.246 14.5426 468.48 Z" fill="#000000" fill-rule="nonzero" fill-opacity="1" /><path clip-path="url(#clip080)" d="M793.102 53.5995 Q787.107 53.5995 783.623 58.2986 Q780.139 62.9571 780.139 71.0994 Q780.139 79.2418 783.582 83.9408 Q787.066 88.5994 793.102 88.5994 Q799.057 88.5994 802.541 83.9003 Q806.024 79.2013 806.024 71.0994 Q806.024 63.0381 802.541 58.3391 Q799.057 53.5995 793.102 53.5995 M793.102 47.2801 Q802.824 47.2801 808.374 53.5995 Q813.924 59.9189 813.924 71.0994 Q813.924 82.2394 808.374 88.5994 Q802.824 94.9188 793.102 94.9188 Q783.339 94.9188 777.79 88.5994 Q772.28 82.2394 772.28 71.0994 Q772.28 59.9189 777.79 53.5995 Q783.339 47.2801 793.102 47.2801 Z" fill="#000000" fill-rule="nonzero" fill-opacity="1" /><path clip-path="url(#clip080)" d="M833.489 86.9385 L833.489 111.001 L825.995 111.001 L825.995 48.3739 L833.489 48.3739 L833.489 55.2604 Q835.839 51.2095 839.404 49.2651 Q843.009 47.2801 847.992 47.2801 Q856.256 47.2801 861.4 53.8426 Q866.585 60.4051 866.585 71.0994 Q866.585 81.7938 861.4 88.3563 Q856.256 94.9188 847.992 94.9188 Q843.009 94.9188 839.404 92.9743 Q835.839 90.9894 833.489 86.9385 M858.848 71.0994 Q858.848 62.8761 855.445 58.2176 Q852.083 53.5185 846.169 53.5185 Q840.254 53.5185 836.852 58.2176 Q833.489 62.8761 833.489 71.0994 Q833.489 79.3228 836.852 84.0218 Q840.254 88.6804 846.169 88.6804 Q852.083 88.6804 855.445 84.0218 Q858.848 79.3228 858.848 71.0994 Z" fill="#000000" fill-rule="nonzero" fill-opacity="1" /><path clip-path="url(#clip080)" d="M886.313 35.492 L886.313 48.3739 L901.666 48.3739 L901.666 54.1667 L886.313 54.1667 L886.313 78.7962 Q886.313 84.3459 887.812 85.9258 Q889.351 87.5056 894.01 87.5056 L901.666 87.5056 L901.666 93.744 L894.01 93.744 Q885.382 93.744 882.1 90.5438 Q878.819 87.3031 878.819 78.7962 L878.819 54.1667 L873.35 54.1667 L873.35 48.3739 L878.819 48.3739 L878.819 35.492 L886.313 35.492 Z" fill="#000000" fill-rule="nonzero" fill-opacity="1" /><path clip-path="url(#clip080)" d="M911.469 48.3739 L918.923 48.3739 L918.923 93.744 L911.469 93.744 L911.469 48.3739 M911.469 30.7119 L918.923 30.7119 L918.923 40.1505 L911.469 40.1505 L911.469 30.7119 Z" fill="#000000" fill-rule="nonzero" fill-opacity="1" /><path clip-path="url(#clip080)" d="M969.843 57.0833 Q972.638 52.0602 976.527 49.6702 Q980.416 47.2801 985.682 47.2801 Q992.771 47.2801 996.619 52.2627 Q1000.47 57.2048 1000.47 66.3599 L1000.47 93.744 L992.974 93.744 L992.974 66.6029 Q992.974 60.081 990.665 56.9213 Q988.356 53.7616 983.616 53.7616 Q977.823 53.7616 974.461 57.6099 Q971.099 61.4583 971.099 68.1018 L971.099 93.744 L963.604 93.744 L963.604 66.6029 Q963.604 60.0405 961.295 56.9213 Q958.986 53.7616 954.166 53.7616 Q948.454 53.7616 945.092 57.6504 Q941.73 61.4988 941.73 68.1018 L941.73 93.744 L934.235 93.744 L934.235 48.3739 L941.73 48.3739 L941.73 55.4224 Q944.282 51.25 947.846 49.2651 Q951.411 47.2801 956.313 47.2801 Q961.255 47.2801 964.698 49.7917 Q968.182 52.3032 969.843 57.0833 Z" fill="#000000" fill-rule="nonzero" fill-opacity="1" /><path clip-path="url(#clip080)" d="M1035.95 70.9374 Q1026.92 70.9374 1023.44 73.0034 Q1019.95 75.0693 1019.95 80.0519 Q1019.95 84.0218 1022.55 86.3714 Q1025.18 88.6804 1029.67 88.6804 Q1035.87 88.6804 1039.6 84.3054 Q1043.37 79.8899 1043.37 72.5983 L1043.37 70.9374 L1035.95 70.9374 M1050.82 67.8587 L1050.82 93.744 L1043.37 93.744 L1043.37 86.8575 Q1040.81 90.9894 1037.01 92.9743 Q1033.2 94.9188 1027.69 94.9188 Q1020.72 94.9188 1016.59 91.0299 Q1012.5 87.1005 1012.5 80.5381 Q1012.5 72.8818 1017.6 68.993 Q1022.75 65.1041 1032.92 65.1041 L1043.37 65.1041 L1043.37 64.3749 Q1043.37 59.2303 1039.96 56.4352 Q1036.6 53.5995 1030.48 53.5995 Q1026.6 53.5995 1022.91 54.5312 Q1019.22 55.463 1015.82 57.3264 L1015.82 50.4398 Q1019.91 48.86 1023.76 48.0903 Q1027.61 47.2801 1031.25 47.2801 Q1041.1 47.2801 1045.96 52.3843 Q1050.82 57.4884 1050.82 67.8587 Z" fill="#000000" fill-rule="nonzero" fill-opacity="1" /><path clip-path="url(#clip080)" d="M1066.17 30.7119 L1073.63 30.7119 L1073.63 93.744 L1066.17 93.744 L1066.17 30.7119 Z" fill="#000000" fill-rule="nonzero" fill-opacity="1" /><path clip-path="url(#clip080)" d="M1136.21 70.9374 Q1127.18 70.9374 1123.7 73.0034 Q1120.21 75.0693 1120.21 80.0519 Q1120.21 84.0218 1122.81 86.3714 Q1125.44 88.6804 1129.93 88.6804 Q1136.13 88.6804 1139.86 84.3054 Q1143.63 79.8899 1143.63 72.5983 L1143.63 70.9374 L1136.21 70.9374 M1151.08 67.8587 L1151.08 93.744 L1143.63 93.744 L1143.63 86.8575 Q1141.07 90.9894 1137.27 92.9743 Q1133.46 94.9188 1127.95 94.9188 Q1120.98 94.9188 1116.85 91.0299 Q1112.76 87.1005 1112.76 80.5381 Q1112.76 72.8818 1117.86 68.993 Q1123.01 65.1041 1133.18 65.1041 L1143.63 65.1041 L1143.63 64.3749 Q1143.63 59.2303 1140.22 56.4352 Q1136.86 53.5995 1130.74 53.5995 Q1126.86 53.5995 1123.17 54.5312 Q1119.48 55.463 1116.08 57.3264 L1116.08 50.4398 Q1120.17 48.86 1124.02 48.0903 Q1127.87 47.2801 1131.51 47.2801 Q1141.36 47.2801 1146.22 52.3843 Q1151.08 57.4884 1151.08 67.8587 Z" fill="#000000" fill-rule="nonzero" fill-opacity="1" /><path clip-path="url(#clip080)" d="M1195.36 49.7107 L1195.36 56.7592 Q1192.2 55.1389 1188.79 54.3287 Q1185.39 53.5185 1181.75 53.5185 Q1176.2 53.5185 1173.4 55.2199 Q1170.65 56.9213 1170.65 60.324 Q1170.65 62.9166 1172.63 64.4155 Q1174.62 65.8738 1180.61 67.2106 L1183.16 67.7777 Q1191.1 69.4791 1194.43 72.5983 Q1197.79 75.677 1197.79 81.2267 Q1197.79 87.5461 1192.76 91.2324 Q1187.78 94.9188 1179.03 94.9188 Q1175.39 94.9188 1171.42 94.1896 Q1167.49 93.5009 1163.11 92.0831 L1163.11 84.3864 Q1167.24 86.5334 1171.25 87.6271 Q1175.26 88.6804 1179.19 88.6804 Q1184.46 88.6804 1187.3 86.898 Q1190.13 85.0751 1190.13 81.7938 Q1190.13 78.7557 1188.07 77.1353 Q1186.04 75.5149 1179.11 74.0161 L1176.52 73.4085 Q1169.59 71.9501 1166.51 68.9525 Q1163.44 65.9143 1163.44 60.6481 Q1163.44 54.2477 1167.97 50.7639 Q1172.51 47.2801 1180.85 47.2801 Q1184.99 47.2801 1188.63 47.8878 Q1192.28 48.4954 1195.36 49.7107 Z" fill="#000000" fill-rule="nonzero" fill-opacity="1" /><path clip-path="url(#clip080)" d="M1238.58 49.7107 L1238.58 56.7592 Q1235.42 55.1389 1232.02 54.3287 Q1228.61 53.5185 1224.97 53.5185 Q1219.42 53.5185 1216.62 55.2199 Q1213.87 56.9213 1213.87 60.324 Q1213.87 62.9166 1215.85 64.4155 Q1217.84 65.8738 1223.83 67.2106 L1226.39 67.7777 Q1234.33 69.4791 1237.65 72.5983 Q1241.01 75.677 1241.01 81.2267 Q1241.01 87.5461 1235.99 91.2324 Q1231 94.9188 1222.25 94.9188 Q1218.61 94.9188 1214.64 94.1896 Q1210.71 93.5009 1206.33 92.0831 L1206.33 84.3864 Q1210.47 86.5334 1214.48 87.6271 Q1218.49 88.6804 1222.42 88.6804 Q1227.68 88.6804 1230.52 86.898 Q1233.35 85.0751 1233.35 81.7938 Q1233.35 78.7557 1231.29 77.1353 Q1229.26 75.5149 1222.34 74.0161 L1219.74 73.4085 Q1212.82 71.9501 1209.74 68.9525 Q1206.66 65.9143 1206.66 60.6481 Q1206.66 54.2477 1211.2 50.7639 Q1215.73 47.2801 1224.08 47.2801 Q1228.21 47.2801 1231.86 47.8878 Q1235.5 48.4954 1238.58 49.7107 Z" fill="#000000" fill-rule="nonzero" fill-opacity="1" /><path clip-path="url(#clip080)" d="M1291.69 69.1955 L1291.69 72.8413 L1257.42 72.8413 Q1257.9 80.5381 1262.03 84.589 Q1266.21 88.5994 1273.62 88.5994 Q1277.91 88.5994 1281.92 87.5461 Q1285.98 86.4929 1289.95 84.3864 L1289.95 91.435 Q1285.93 93.1364 1281.72 94.0276 Q1277.51 94.9188 1273.17 94.9188 Q1262.32 94.9188 1255.96 88.5994 Q1249.64 82.2799 1249.64 71.5045 Q1249.64 60.3645 1255.63 53.8426 Q1261.67 47.2801 1271.88 47.2801 Q1281.03 47.2801 1286.34 53.1944 Q1291.69 59.0683 1291.69 69.1955 M1284.23 67.008 Q1284.15 60.8912 1280.79 57.2454 Q1277.47 53.5995 1271.96 53.5995 Q1265.72 53.5995 1261.95 57.1238 Q1258.23 60.6481 1257.66 67.0485 L1284.23 67.008 Z" fill="#000000" fill-rule="nonzero" fill-opacity="1" /><path clip-path="url(#clip080)" d="M1311.29 35.492 L1311.29 48.3739 L1326.65 48.3739 L1326.65 54.1667 L1311.29 54.1667 L1311.29 78.7962 Q1311.29 84.3459 1312.79 85.9258 Q1314.33 87.5056 1318.99 87.5056 L1326.65 87.5056 L1326.65 93.744 L1318.99 93.744 Q1310.36 93.744 1307.08 90.5438 Q1303.8 87.3031 1303.8 78.7962 L1303.8 54.1667 L1298.33 54.1667 L1298.33 48.3739 L1303.8 48.3739 L1303.8 35.492 L1311.29 35.492 Z" fill="#000000" fill-rule="nonzero" fill-opacity="1" /><path clip-path="url(#clip080)" d="M1383.44 70.9374 Q1374.41 70.9374 1370.92 73.0034 Q1367.44 75.0693 1367.44 80.0519 Q1367.44 84.0218 1370.03 86.3714 Q1372.66 88.6804 1377.16 88.6804 Q1383.36 88.6804 1387.09 84.3054 Q1390.85 79.8899 1390.85 72.5983 L1390.85 70.9374 L1383.44 70.9374 M1398.31 67.8587 L1398.31 93.744 L1390.85 93.744 L1390.85 86.8575 Q1388.3 90.9894 1384.49 92.9743 Q1380.69 94.9188 1375.18 94.9188 Q1368.21 94.9188 1364.08 91.0299 Q1359.99 87.1005 1359.99 80.5381 Q1359.99 72.8818 1365.09 68.993 Q1370.23 65.1041 1380.4 65.1041 L1390.85 65.1041 L1390.85 64.3749 Q1390.85 59.2303 1387.45 56.4352 Q1384.09 53.5995 1377.97 53.5995 Q1374.08 53.5995 1370.4 54.5312 Q1366.71 55.463 1363.31 57.3264 L1363.31 50.4398 Q1367.4 48.86 1371.25 48.0903 Q1375.1 47.2801 1378.74 47.2801 Q1388.58 47.2801 1393.45 52.3843 Q1398.31 57.4884 1398.31 67.8587 Z" fill="#000000" fill-rule="nonzero" fill-opacity="1" /><path clip-path="url(#clip080)" d="M1413.66 30.7119 L1421.11 30.7119 L1421.11 93.744 L1413.66 93.744 L1413.66 30.7119 Z" fill="#000000" fill-rule="nonzero" fill-opacity="1" /><path clip-path="url(#clip080)" d="M1436.71 30.7119 L1444.16 30.7119 L1444.16 93.744 L1436.71 93.744 L1436.71 30.7119 Z" fill="#000000" fill-rule="nonzero" fill-opacity="1" /><path clip-path="url(#clip080)" d="M1477.34 53.5995 Q1471.34 53.5995 1467.86 58.2986 Q1464.38 62.9571 1464.38 71.0994 Q1464.38 79.2418 1467.82 83.9408 Q1471.3 88.5994 1477.34 88.5994 Q1483.29 88.5994 1486.78 83.9003 Q1490.26 79.2013 1490.26 71.0994 Q1490.26 63.0381 1486.78 58.3391 Q1483.29 53.5995 1477.34 53.5995 M1477.34 47.2801 Q1487.06 47.2801 1492.61 53.5995 Q1498.16 59.9189 1498.16 71.0994 Q1498.16 82.2394 1492.61 88.5994 Q1487.06 94.9188 1477.34 94.9188 Q1467.58 94.9188 1462.03 88.5994 Q1456.52 82.2394 1456.52 71.0994 Q1456.52 59.9189 1462.03 53.5995 Q1467.58 47.2801 1477.34 47.2801 Z" fill="#000000" fill-rule="nonzero" fill-opacity="1" /><path clip-path="url(#clip080)" d="M1543.17 50.1158 L1543.17 57.0833 Q1540.01 55.3414 1536.81 54.4907 Q1533.65 53.5995 1530.41 53.5995 Q1523.16 53.5995 1519.15 58.2176 Q1515.14 62.7951 1515.14 71.0994 Q1515.14 79.4038 1519.15 84.0218 Q1523.16 88.5994 1530.41 88.5994 Q1533.65 88.5994 1536.81 87.7487 Q1540.01 86.8575 1543.17 85.1156 L1543.17 92.0021 Q1540.05 93.4604 1536.69 94.1896 Q1533.36 94.9188 1529.6 94.9188 Q1519.35 94.9188 1513.31 88.4778 Q1507.28 82.0369 1507.28 71.0994 Q1507.28 60 1513.35 53.64 Q1519.47 47.2801 1530.08 47.2801 Q1533.53 47.2801 1536.81 48.0093 Q1540.09 48.6979 1543.17 50.1158 Z" fill="#000000" fill-rule="nonzero" fill-opacity="1" /><path clip-path="url(#clip080)" d="M1576.75 70.9374 Q1567.72 70.9374 1564.23 73.0034 Q1560.75 75.0693 1560.75 80.0519 Q1560.75 84.0218 1563.34 86.3714 Q1565.97 88.6804 1570.47 88.6804 Q1576.67 88.6804 1580.4 84.3054 Q1584.16 79.8899 1584.16 72.5983 L1584.16 70.9374 L1576.75 70.9374 M1591.62 67.8587 L1591.62 93.744 L1584.16 93.744 L1584.16 86.8575 Q1581.61 90.9894 1577.8 92.9743 Q1573.99 94.9188 1568.49 94.9188 Q1561.52 94.9188 1557.39 91.0299 Q1553.29 87.1005 1553.29 80.5381 Q1553.29 72.8818 1558.4 68.993 Q1563.54 65.1041 1573.71 65.1041 L1584.16 65.1041 L1584.16 64.3749 Q1584.16 59.2303 1580.76 56.4352 Q1577.4 53.5995 1571.28 53.5995 Q1567.39 53.5995 1563.71 54.5312 Q1560.02 55.463 1556.62 57.3264 L1556.62 50.4398 Q1560.71 48.86 1564.56 48.0903 Q1568.4 47.2801 1572.05 47.2801 Q1581.89 47.2801 1586.76 52.3843 Q1591.62 57.4884 1591.62 67.8587 Z" fill="#000000" fill-rule="nonzero" fill-opacity="1" /><path clip-path="url(#clip080)" d="M1614.34 35.492 L1614.34 48.3739 L1629.69 48.3739 L1629.69 54.1667 L1614.34 54.1667 L1614.34 78.7962 Q1614.34 84.3459 1615.84 85.9258 Q1617.38 87.5056 1622.04 87.5056 L1629.69 87.5056 L1629.69 93.744 L1622.04 93.744 Q1613.41 93.744 1610.13 90.5438 Q1606.85 87.3031 1606.85 78.7962 L1606.85 54.1667 L1601.38 54.1667 L1601.38 48.3739 L1606.85 48.3739 L1606.85 35.492 L1614.34 35.492 Z" fill="#000000" fill-rule="nonzero" fill-opacity="1" /><path clip-path="url(#clip080)" d="M1639.5 48.3739 L1646.95 48.3739 L1646.95 93.744 L1639.5 93.744 L1639.5 48.3739 M1639.5 30.7119 L1646.95 30.7119 L1646.95 40.1505 L1639.5 40.1505 L1639.5 30.7119 Z" fill="#000000" fill-rule="nonzero" fill-opacity="1" /><path clip-path="url(#clip080)" d="M1680.13 53.5995 Q1674.13 53.5995 1670.65 58.2986 Q1667.17 62.9571 1667.17 71.0994 Q1667.17 79.2418 1670.61 83.9408 Q1674.09 88.5994 1680.13 88.5994 Q1686.08 88.5994 1689.57 83.9003 Q1693.05 79.2013 1693.05 71.0994 Q1693.05 63.0381 1689.57 58.3391 Q1686.08 53.5995 1680.13 53.5995 M1680.13 47.2801 Q1689.85 47.2801 1695.4 53.5995 Q1700.95 59.9189 1700.95 71.0994 Q1700.95 82.2394 1695.4 88.5994 Q1689.85 94.9188 1680.13 94.9188 Q1670.37 94.9188 1664.82 88.5994 Q1659.31 82.2394 1659.31 71.0994 Q1659.31 59.9189 1664.82 53.5995 Q1670.37 47.2801 1680.13 47.2801 Z" fill="#000000" fill-rule="nonzero" fill-opacity="1" /><path clip-path="url(#clip080)" d="M1751.02 66.3599 L1751.02 93.744 L1743.57 93.744 L1743.57 66.6029 Q1743.57 60.162 1741.05 56.9618 Q1738.54 53.7616 1733.52 53.7616 Q1727.48 53.7616 1724 57.6099 Q1720.52 61.4583 1720.52 68.1018 L1720.52 93.744 L1713.02 93.744 L1713.02 48.3739 L1720.52 48.3739 L1720.52 55.4224 Q1723.19 51.331 1726.79 49.3056 Q1730.44 47.2801 1735.18 47.2801 Q1743 47.2801 1747.01 52.1412 Q1751.02 56.9618 1751.02 66.3599 Z" fill="#000000" fill-rule="nonzero" fill-opacity="1" /><path clip-path="url(#clip080)" d="M1019.45 121.432 L1026.9 121.432 L1026.9 184.464 L1019.45 184.464 L1019.45 121.432 Z" fill="#000000" fill-rule="nonzero" fill-opacity="1" /><path clip-path="url(#clip080)" d="M1063.11 161.657 Q1054.08 161.657 1050.6 163.723 Q1047.11 165.789 1047.11 170.772 Q1047.11 174.742 1049.71 177.091 Q1052.34 179.4 1056.84 179.4 Q1063.03 179.4 1066.76 175.025 Q1070.53 170.61 1070.53 163.318 L1070.53 161.657 L1063.11 161.657 M1077.98 158.579 L1077.98 184.464 L1070.53 184.464 L1070.53 177.577 Q1067.98 181.709 1064.17 183.694 Q1060.36 185.639 1054.85 185.639 Q1047.88 185.639 1043.75 181.75 Q1039.66 177.821 1039.66 171.258 Q1039.66 163.602 1044.76 159.713 Q1049.91 155.824 1060.08 155.824 L1070.53 155.824 L1070.53 155.095 Q1070.53 149.95 1067.13 147.155 Q1063.76 144.32 1057.65 144.32 Q1053.76 144.32 1050.07 145.251 Q1046.38 146.183 1042.98 148.046 L1042.98 141.16 Q1047.07 139.58 1050.92 138.81 Q1054.77 138 1058.42 138 Q1068.26 138 1073.12 143.104 Q1077.98 148.208 1077.98 158.579 Z" fill="#000000" fill-rule="nonzero" fill-opacity="1" /><path clip-path="url(#clip080)" d="M1128.66 147.803 Q1131.45 142.78 1135.34 140.39 Q1139.23 138 1144.5 138 Q1151.59 138 1155.44 142.983 Q1159.28 147.925 1159.28 157.08 L1159.28 184.464 L1151.79 184.464 L1151.79 157.323 Q1151.79 150.801 1149.48 147.641 Q1147.17 144.482 1142.43 144.482 Q1136.64 144.482 1133.28 148.33 Q1129.91 152.178 1129.91 158.822 L1129.91 184.464 L1122.42 184.464 L1122.42 157.323 Q1122.42 150.76 1120.11 147.641 Q1117.8 144.482 1112.98 144.482 Q1107.27 144.482 1103.91 148.37 Q1100.55 152.219 1100.55 158.822 L1100.55 184.464 L1093.05 184.464 L1093.05 139.094 L1100.55 139.094 L1100.55 146.142 Q1103.1 141.97 1106.66 139.985 Q1110.23 138 1115.13 138 Q1120.07 138 1123.51 140.512 Q1127 143.023 1128.66 147.803 Z" fill="#000000" fill-rule="nonzero" fill-opacity="1" /><path clip-path="url(#clip080)" d="M1206.72 161.819 Q1206.72 153.596 1203.32 148.938 Q1199.95 144.239 1194.04 144.239 Q1188.13 144.239 1184.72 148.938 Q1181.36 153.596 1181.36 161.819 Q1181.36 170.043 1184.72 174.742 Q1188.13 179.4 1194.04 179.4 Q1199.95 179.4 1203.32 174.742 Q1206.72 170.043 1206.72 161.819 M1181.36 145.98 Q1183.71 141.93 1187.28 139.985 Q1190.88 138 1195.86 138 Q1204.13 138 1209.27 144.563 Q1214.46 151.125 1214.46 161.819 Q1214.46 172.514 1209.27 179.076 Q1204.13 185.639 1195.86 185.639 Q1190.88 185.639 1187.28 183.694 Q1183.71 181.709 1181.36 177.658 L1181.36 184.464 L1173.87 184.464 L1173.87 121.432 L1181.36 121.432 L1181.36 145.98 Z" fill="#000000" fill-rule="nonzero" fill-opacity="1" /><path clip-path="url(#clip080)" d="M1256.67 145.98 L1256.67 121.432 L1264.12 121.432 L1264.12 184.464 L1256.67 184.464 L1256.67 177.658 Q1254.32 181.709 1250.71 183.694 Q1247.15 185.639 1242.12 185.639 Q1233.9 185.639 1228.72 179.076 Q1223.57 172.514 1223.57 161.819 Q1223.57 151.125 1228.72 144.563 Q1233.9 138 1242.12 138 Q1247.15 138 1250.71 139.985 Q1254.32 141.93 1256.67 145.98 M1231.27 161.819 Q1231.27 170.043 1234.63 174.742 Q1238.03 179.4 1243.95 179.4 Q1249.86 179.4 1253.26 174.742 Q1256.67 170.043 1256.67 161.819 Q1256.67 153.596 1253.26 148.938 Q1249.86 144.239 1243.95 144.239 Q1238.03 144.239 1234.63 148.938 Q1231.27 153.596 1231.27 161.819 Z" fill="#000000" fill-rule="nonzero" fill-opacity="1" /><path clip-path="url(#clip080)" d="M1300.09 161.657 Q1291.06 161.657 1287.58 163.723 Q1284.09 165.789 1284.09 170.772 Q1284.09 174.742 1286.68 177.091 Q1289.32 179.4 1293.81 179.4 Q1300.01 179.4 1303.74 175.025 Q1307.51 170.61 1307.51 163.318 L1307.51 161.657 L1300.09 161.657 M1314.96 158.579 L1314.96 184.464 L1307.51 184.464 L1307.51 177.577 Q1304.95 181.709 1301.15 183.694 Q1297.34 185.639 1291.83 185.639 Q1284.86 185.639 1280.73 181.75 Q1276.64 177.821 1276.64 171.258 Q1276.64 163.602 1281.74 159.713 Q1286.89 155.824 1297.05 155.824 L1307.51 155.824 L1307.51 155.095 Q1307.51 149.95 1304.1 147.155 Q1300.74 144.32 1294.62 144.32 Q1290.74 144.32 1287.05 145.251 Q1283.36 146.183 1279.96 148.046 L1279.96 141.16 Q1284.05 139.58 1287.9 138.81 Q1291.75 138 1295.39 138 Q1305.24 138 1310.1 143.104 Q1314.96 148.208 1314.96 158.579 Z" fill="#000000" fill-rule="nonzero" fill-opacity="1" /><path clip-path="url(#clip080)" d="M1357.66 146.791 L1409.59 146.791 L1409.59 153.596 L1357.66 153.596 L1357.66 146.791 M1357.66 163.318 L1409.59 163.318 L1409.59 170.205 L1357.66 170.205 L1357.66 163.318 Z" fill="#000000" fill-rule="nonzero" fill-opacity="1" /><path clip-path="url(#clip080)" d="M1471.12 129.372 Q1464.8 129.372 1461.6 135.61 Q1458.44 141.808 1458.44 154.285 Q1458.44 166.721 1461.6 172.959 Q1464.8 179.157 1471.12 179.157 Q1477.48 179.157 1480.64 172.959 Q1483.84 166.721 1483.84 154.285 Q1483.84 141.808 1480.64 135.61 Q1477.48 129.372 1471.12 129.372 M1471.12 122.89 Q1481.29 122.89 1486.64 130.952 Q1492.02 138.972 1492.02 154.285 Q1492.02 169.557 1486.64 177.618 Q1481.29 185.639 1471.12 185.639 Q1460.95 185.639 1455.57 177.618 Q1450.22 169.557 1450.22 154.285 Q1450.22 138.972 1455.57 130.952 Q1460.95 122.89 1471.12 122.89 Z" fill="#000000" fill-rule="nonzero" fill-opacity="1" /><path clip-path="url(#clip080)" d="M1506.41 174.175 L1514.95 174.175 L1514.95 184.464 L1506.41 184.464 L1506.41 174.175 Z" fill="#000000" fill-rule="nonzero" fill-opacity="1" /><path clip-path="url(#clip080)" d="M1551.29 150.963 Q1545.78 150.963 1542.54 154.73 Q1539.34 158.498 1539.34 165.06 Q1539.34 171.582 1542.54 175.39 Q1545.78 179.157 1551.29 179.157 Q1556.8 179.157 1560 175.39 Q1563.24 171.582 1563.24 165.06 Q1563.24 158.498 1560 154.73 Q1556.8 150.963 1551.29 150.963 M1567.53 125.321 L1567.53 132.774 Q1564.45 131.316 1561.3 130.546 Q1558.18 129.777 1555.1 129.777 Q1547 129.777 1542.7 135.246 Q1538.45 140.714 1537.84 151.773 Q1540.23 148.249 1543.84 146.386 Q1547.44 144.482 1551.78 144.482 Q1560.89 144.482 1566.16 150.031 Q1571.46 155.541 1571.46 165.06 Q1571.46 174.377 1565.95 180.008 Q1560.44 185.639 1551.29 185.639 Q1540.8 185.639 1535.25 177.618 Q1529.7 169.557 1529.7 154.285 Q1529.7 139.945 1536.5 131.438 Q1543.31 122.89 1554.77 122.89 Q1557.85 122.89 1560.97 123.498 Q1564.13 124.106 1567.53 125.321 Z" fill="#000000" fill-rule="nonzero" fill-opacity="1" /><path clip-path="url(#clip082)" d="M322.151 1182.12 L322.151 1358.74 L403.53 1358.74 L403.53 1182.12 L322.151 1182.12 L322.151 1182.12  Z" fill="#009af9" fill-rule="evenodd" fill-opacity="1"/>
<polyline clip-path="url(#clip082)" style="stroke:#000000; stroke-linecap:round; stroke-linejoin:round; stroke-width:4; stroke-opacity:1; fill:none" points="322.151,1182.12 322.151,1358.74 403.53,1358.74 403.53,1182.12 322.151,1182.12 "/>
<path clip-path="url(#clip082)" d="M423.875 836.941 L423.875 1358.74 L505.255 1358.74 L505.255 836.941 L423.875 836.941 L423.875 836.941  Z" fill="#009af9" fill-rule="evenodd" fill-opacity="1"/>
<polyline clip-path="url(#clip082)" style="stroke:#000000; stroke-linecap:round; stroke-linejoin:round; stroke-width:4; stroke-opacity:1; fill:none" points="423.875,836.941 423.875,1358.74 505.255,1358.74 505.255,836.941 423.875,836.941 "/>
<path clip-path="url(#clip082)" d="M525.6 1318.82 L525.6 1358.74 L606.979 1358.74 L606.979 1318.82 L525.6 1318.82 L525.6 1318.82  Z" fill="#009af9" fill-rule="evenodd" fill-opacity="1"/>
<polyline clip-path="url(#clip082)" style="stroke:#000000; stroke-linecap:round; stroke-linejoin:round; stroke-width:4; stroke-opacity:1; fill:none" points="525.6,1318.82 525.6,1358.74 606.979,1358.74 606.979,1318.82 525.6,1318.82 "/>
<path clip-path="url(#clip082)" d="M627.324 734.811 L627.324 1358.74 L708.703 1358.74 L708.703 734.811 L627.324 734.811 L627.324 734.811  Z" fill="#009af9" fill-rule="evenodd" fill-opacity="1"/>
<polyline clip-path="url(#clip082)" style="stroke:#000000; stroke-linecap:round; stroke-linejoin:round; stroke-width:4; stroke-opacity:1; fill:none" points="627.324,734.811 627.324,1358.74 708.703,1358.74 708.703,734.811 627.324,734.811 "/>
<path clip-path="url(#clip082)" d="M729.048 1071.78 L729.048 1358.74 L810.428 1358.74 L810.428 1071.78 L729.048 1071.78 L729.048 1071.78  Z" fill="#009af9" fill-rule="evenodd" fill-opacity="1"/>
<polyline clip-path="url(#clip082)" style="stroke:#000000; stroke-linecap:round; stroke-linejoin:round; stroke-width:4; stroke-opacity:1; fill:none" points="729.048,1071.78 729.048,1358.74 810.428,1358.74 810.428,1071.78 729.048,1071.78 "/>
<path clip-path="url(#clip082)" d="M830.773 1344.78 L830.773 1358.74 L912.152 1358.74 L912.152 1344.78 L830.773 1344.78 L830.773 1344.78  Z" fill="#009af9" fill-rule="evenodd" fill-opacity="1"/>
<polyline clip-path="url(#clip082)" style="stroke:#000000; stroke-linecap:round; stroke-linejoin:round; stroke-width:4; stroke-opacity:1; fill:none" points="830.773,1344.78 830.773,1358.74 912.152,1358.74 912.152,1344.78 830.773,1344.78 "/>
<path clip-path="url(#clip082)" d="M932.497 1120.17 L932.497 1358.74 L1013.88 1358.74 L1013.88 1120.17 L932.497 1120.17 L932.497 1120.17  Z" fill="#009af9" fill-rule="evenodd" fill-opacity="1"/>
<polyline clip-path="url(#clip082)" style="stroke:#000000; stroke-linecap:round; stroke-linejoin:round; stroke-width:4; stroke-opacity:1; fill:none" points="932.497,1120.17 932.497,1358.74 1013.88,1358.74 1013.88,1120.17 932.497,1120.17 "/>
<path clip-path="url(#clip082)" d="M1034.22 805.141 L1034.22 1358.74 L1115.6 1358.74 L1115.6 805.141 L1034.22 805.141 L1034.22 805.141  Z" fill="#009af9" fill-rule="evenodd" fill-opacity="1"/>
<polyline clip-path="url(#clip082)" style="stroke:#000000; stroke-linecap:round; stroke-linejoin:round; stroke-width:4; stroke-opacity:1; fill:none" points="1034.22,805.141 1034.22,1358.74 1115.6,1358.74 1115.6,805.141 1034.22,805.141 "/>
<path clip-path="url(#clip082)" d="M1135.95 1318.7 L1135.95 1358.74 L1217.33 1358.74 L1217.33 1318.7 L1135.95 1318.7 L1135.95 1318.7  Z" fill="#009af9" fill-rule="evenodd" fill-opacity="1"/>
<polyline clip-path="url(#clip082)" style="stroke:#000000; stroke-linecap:round; stroke-linejoin:round; stroke-width:4; stroke-opacity:1; fill:none" points="1135.95,1318.7 1135.95,1358.74 1217.33,1358.74 1217.33,1318.7 1135.95,1318.7 "/>
<path clip-path="url(#clip082)" d="M1237.67 1203.64 L1237.67 1358.74 L1319.05 1358.74 L1319.05 1203.64 L1237.67 1203.64 L1237.67 1203.64  Z" fill="#009af9" fill-rule="evenodd" fill-opacity="1"/>
<polyline clip-path="url(#clip082)" style="stroke:#000000; stroke-linecap:round; stroke-linejoin:round; stroke-width:4; stroke-opacity:1; fill:none" points="1237.67,1203.64 1237.67,1358.74 1319.05,1358.74 1319.05,1203.64 1237.67,1203.64 "/>
<path clip-path="url(#clip082)" d="M1339.39 1238.42 L1339.39 1358.74 L1420.77 1358.74 L1420.77 1238.42 L1339.39 1238.42 L1339.39 1238.42  Z" fill="#009af9" fill-rule="evenodd" fill-opacity="1"/>
<polyline clip-path="url(#clip082)" style="stroke:#000000; stroke-linecap:round; stroke-linejoin:round; stroke-width:4; stroke-opacity:1; fill:none" points="1339.39,1238.42 1339.39,1358.74 1420.77,1358.74 1420.77,1238.42 1339.39,1238.42 "/>
<path clip-path="url(#clip082)" d="M1441.12 1048.19 L1441.12 1358.74 L1522.5 1358.74 L1522.5 1048.19 L1441.12 1048.19 L1441.12 1048.19  Z" fill="#009af9" fill-rule="evenodd" fill-opacity="1"/>
<polyline clip-path="url(#clip082)" style="stroke:#000000; stroke-linecap:round; stroke-linejoin:round; stroke-width:4; stroke-opacity:1; fill:none" points="1441.12,1048.19 1441.12,1358.74 1522.5,1358.74 1522.5,1048.19 1441.12,1048.19 "/>
<path clip-path="url(#clip082)" d="M1542.84 1222.02 L1542.84 1358.74 L1624.22 1358.74 L1624.22 1222.02 L1542.84 1222.02 L1542.84 1222.02  Z" fill="#009af9" fill-rule="evenodd" fill-opacity="1"/>
<polyline clip-path="url(#clip082)" style="stroke:#000000; stroke-linecap:round; stroke-linejoin:round; stroke-width:4; stroke-opacity:1; fill:none" points="1542.84,1222.02 1542.84,1358.74 1624.22,1358.74 1624.22,1222.02 1542.84,1222.02 "/>
<path clip-path="url(#clip082)" d="M1644.57 1122 L1644.57 1358.74 L1725.95 1358.74 L1725.95 1122 L1644.57 1122 L1644.57 1122  Z" fill="#009af9" fill-rule="evenodd" fill-opacity="1"/>
<polyline clip-path="url(#clip082)" style="stroke:#000000; stroke-linecap:round; stroke-linejoin:round; stroke-width:4; stroke-opacity:1; fill:none" points="1644.57,1122 1644.57,1358.74 1725.95,1358.74 1725.95,1122 1644.57,1122 "/>
<path clip-path="url(#clip082)" d="M1746.29 1169.47 L1746.29 1358.74 L1827.67 1358.74 L1827.67 1169.47 L1746.29 1169.47 L1746.29 1169.47  Z" fill="#009af9" fill-rule="evenodd" fill-opacity="1"/>
<polyline clip-path="url(#clip082)" style="stroke:#000000; stroke-linecap:round; stroke-linejoin:round; stroke-width:4; stroke-opacity:1; fill:none" points="1746.29,1169.47 1746.29,1358.74 1827.67,1358.74 1827.67,1169.47 1746.29,1169.47 "/>
<path clip-path="url(#clip082)" d="M1848.02 1302.52 L1848.02 1358.74 L1929.4 1358.74 L1929.4 1302.52 L1848.02 1302.52 L1848.02 1302.52  Z" fill="#009af9" fill-rule="evenodd" fill-opacity="1"/>
<polyline clip-path="url(#clip082)" style="stroke:#000000; stroke-linecap:round; stroke-linejoin:round; stroke-width:4; stroke-opacity:1; fill:none" points="1848.02,1302.52 1848.02,1358.74 1929.4,1358.74 1929.4,1302.52 1848.02,1302.52 "/>
<path clip-path="url(#clip082)" d="M1949.74 788.652 L1949.74 1358.74 L2031.12 1358.74 L2031.12 788.652 L1949.74 788.652 L1949.74 788.652  Z" fill="#009af9" fill-rule="evenodd" fill-opacity="1"/>
<polyline clip-path="url(#clip082)" style="stroke:#000000; stroke-linecap:round; stroke-linejoin:round; stroke-width:4; stroke-opacity:1; fill:none" points="1949.74,788.652 1949.74,1358.74 2031.12,1358.74 2031.12,788.652 1949.74,788.652 "/>
<path clip-path="url(#clip082)" d="M2051.46 1203.43 L2051.46 1358.74 L2132.84 1358.74 L2132.84 1203.43 L2051.46 1203.43 L2051.46 1203.43  Z" fill="#009af9" fill-rule="evenodd" fill-opacity="1"/>
<polyline clip-path="url(#clip082)" style="stroke:#000000; stroke-linecap:round; stroke-linejoin:round; stroke-width:4; stroke-opacity:1; fill:none" points="2051.46,1203.43 2051.46,1358.74 2132.84,1358.74 2132.84,1203.43 2051.46,1203.43 "/>
<path clip-path="url(#clip082)" d="M2153.19 183.952 L2153.19 1358.74 L2234.57 1358.74 L2234.57 183.952 L2153.19 183.952 L2153.19 183.952  Z" fill="#009af9" fill-rule="evenodd" fill-opacity="1"/>
<polyline clip-path="url(#clip082)" style="stroke:#000000; stroke-linecap:round; stroke-linejoin:round; stroke-width:4; stroke-opacity:1; fill:none" points="2153.19,183.952 2153.19,1358.74 2234.57,1358.74 2234.57,183.952 2153.19,183.952 "/>
<circle clip-path="url(#clip082)" style="fill:#009af9; stroke:none; fill-opacity:0" cx="362.841" cy="1182.12" r="2"/>
<circle clip-path="url(#clip082)" style="fill:#009af9; stroke:none; fill-opacity:0" cx="464.565" cy="836.941" r="2"/>
<circle clip-path="url(#clip082)" style="fill:#009af9; stroke:none; fill-opacity:0" cx="566.289" cy="1318.82" r="2"/>
<circle clip-path="url(#clip082)" style="fill:#009af9; stroke:none; fill-opacity:0" cx="668.014" cy="734.811" r="2"/>
<circle clip-path="url(#clip082)" style="fill:#009af9; stroke:none; fill-opacity:0" cx="769.738" cy="1071.78" r="2"/>
<circle clip-path="url(#clip082)" style="fill:#009af9; stroke:none; fill-opacity:0" cx="871.462" cy="1344.78" r="2"/>
<circle clip-path="url(#clip082)" style="fill:#009af9; stroke:none; fill-opacity:0" cx="973.187" cy="1120.17" r="2"/>
<circle clip-path="url(#clip082)" style="fill:#009af9; stroke:none; fill-opacity:0" cx="1074.91" cy="805.141" r="2"/>
<circle clip-path="url(#clip082)" style="fill:#009af9; stroke:none; fill-opacity:0" cx="1176.64" cy="1318.7" r="2"/>
<circle clip-path="url(#clip082)" style="fill:#009af9; stroke:none; fill-opacity:0" cx="1278.36" cy="1203.64" r="2"/>
<circle clip-path="url(#clip082)" style="fill:#009af9; stroke:none; fill-opacity:0" cx="1380.08" cy="1238.42" r="2"/>
<circle clip-path="url(#clip082)" style="fill:#009af9; stroke:none; fill-opacity:0" cx="1481.81" cy="1048.19" r="2"/>
<circle clip-path="url(#clip082)" style="fill:#009af9; stroke:none; fill-opacity:0" cx="1583.53" cy="1222.02" r="2"/>
<circle clip-path="url(#clip082)" style="fill:#009af9; stroke:none; fill-opacity:0" cx="1685.26" cy="1122" r="2"/>
<circle clip-path="url(#clip082)" style="fill:#009af9; stroke:none; fill-opacity:0" cx="1786.98" cy="1169.47" r="2"/>
<circle clip-path="url(#clip082)" style="fill:#009af9; stroke:none; fill-opacity:0" cx="1888.71" cy="1302.52" r="2"/>
<circle clip-path="url(#clip082)" style="fill:#009af9; stroke:none; fill-opacity:0" cx="1990.43" cy="788.652" r="2"/>
<circle clip-path="url(#clip082)" style="fill:#009af9; stroke:none; fill-opacity:0" cx="2092.15" cy="1203.43" r="2"/>
<circle clip-path="url(#clip082)" style="fill:#009af9; stroke:none; fill-opacity:0" cx="2193.88" cy="183.952" r="2"/>
</svg>
